<?xml version="1.0" encoding="UTF-8" standalone="no"?>
<svg
   xmlns:dc="http://purl.org/dc/elements/1.1/"
   xmlns:cc="http://creativecommons.org/ns#"
   xmlns:rdf="http://www.w3.org/1999/02/22-rdf-syntax-ns#"
   xmlns:svg="http://www.w3.org/2000/svg"
   xmlns="http://www.w3.org/2000/svg"
   xmlns:sodipodi="http://sodipodi.sourceforge.net/DTD/sodipodi-0.dtd"
   xmlns:inkscape="http://www.inkscape.org/namespaces/inkscape"
   width="71.136032"
   height="71.136383"
   id="svg16676"
   version="1.1"
   inkscape:version="1.0 (4035a4fb49, 2020-05-01)"
   sodipodi:docname="A.18_Fahrverbot_für_Wassermotorräder.svg">
  <defs
     id="defs16678" />
  <sodipodi:namedview
     inkscape:snap-grids="false"
     id="base"
     pagecolor="#ffffff"
     bordercolor="#666666"
     borderopacity="1.0"
     inkscape:pageopacity="0.0"
     inkscape:pageshadow="2"
     inkscape:zoom="5.6568543"
     inkscape:cx="42.644524"
     inkscape:cy="50.666734"
     inkscape:document-units="px"
     inkscape:current-layer="layer1"
     showgrid="false"
     inkscape:window-width="1277"
     inkscape:window-height="1008"
     inkscape:window-x="634"
     inkscape:window-y="0"
     inkscape:window-maximized="0"
     inkscape:document-rotation="0">
    <inkscape:grid
       id="grid842"
       type="xygrid" />
  </sodipodi:namedview>
  <metadata
     id="metadata16681">
    <rdf:RDF>
      <cc:Work
         rdf:about="">
        <dc:format>image/svg+xml</dc:format>
        <dc:type
           rdf:resource="http://purl.org/dc/dcmitype/StillImage" />
        <dc:title />
      </cc:Work>
    </rdf:RDF>
  </metadata>
  <g
     inkscape:label="Ebene 1"
     inkscape:groupmode="layer"
     id="layer1"
     transform="translate(-524.43209,-453.93678)">
    <path
       d="m 529.29184,524.86941 61.45375,0 c 0.20125,-10e-4 0.4025,-0.015 0.60125,-0.0425 0.2,-0.0263 0.3975,-0.0675 0.59125,-0.1225 0.195,-0.05 0.385,-0.115 0.57125,-0.19375 0.185,-0.0775 0.36625,-0.16875 0.53875,-0.27125 0.175,-0.1 0.3425,-0.21125 0.50125,-0.33375 0.16,-0.12375 0.31125,-0.25625 0.4525,-0.4 0.14375,-0.14125 0.2775,-0.2925 0.4,-0.4525 0.1225,-0.15875 0.23375,-0.32625 0.335,-0.50125 0.10125,-0.17375 0.19125,-0.35375 0.26875,-0.54 0.0775,-0.185 0.1425,-0.37625 0.195,-0.57 0.055,-0.195 0.0962,-0.3925 0.125,-0.59125 0.0275,-0.2 0.0412,-0.4 0.04,-0.60125 l 0,-61.49 c -10e-4,-0.20125 -0.015,-0.4025 -0.0425,-0.6025 -0.0263,-0.19875 -0.0675,-0.39625 -0.1225,-0.59 -0.05,-0.195 -0.115,-0.38625 -0.19375,-0.57125 -0.0775,-0.18625 -0.1675,-0.36625 -0.27,-0.54 -0.10125,-0.17375 -0.2125,-0.34125 -0.335,-0.50125 -0.12375,-0.16 -0.25625,-0.31 -0.4,-0.45125 -0.14125,-0.14375 -0.2925,-0.2775 -0.4525,-0.4 -0.15875,-0.12375 -0.32625,-0.235 -0.50125,-0.335 -0.17375,-0.1025 -0.35375,-0.19125 -0.53875,-0.27 -0.18625,-0.0775 -0.3775,-0.1425 -0.57125,-0.19375 -0.195,-0.055 -0.39125,-0.0975 -0.59125,-0.12625 -0.19875,-0.0275 -0.4,-0.0412 -0.60125,-0.04 l -61.49,0 c -0.20125,10e-4 -0.4025,0.0162 -0.6025,0.0425 -0.19875,0.0275 -0.39625,0.0688 -0.59,0.12375 -0.195,0.05 -0.38625,0.11375 -0.57125,0.1925 -0.18625,0.0775 -0.36625,0.16875 -0.53875,0.27125 -0.175,0.1 -0.3425,0.2125 -0.5025,0.335 -0.15875,0.1225 -0.31,0.25625 -0.4525,0.4 -0.1425,0.14125 -0.27625,0.29125 -0.39875,0.45125 -0.1225,0.16 -0.235,0.3275 -0.335,0.50125 -0.10125,0.17375 -0.1925,0.35375 -0.26875,0.54 -0.0788,0.18625 -0.14375,0.37625 -0.19625,0.57125 -0.0538,0.19375 -0.0963,0.39125 -0.12375,0.59125 -0.0288,0.19875 -0.0425,0.4 -0.0413,0.60125 l 0,61.49 c 0.003,0.20125 0.0163,0.40125 0.0425,0.60125 0.0275,0.2 0.0688,0.39625 0.1225,0.59125 0.0512,0.19375 0.11625,0.385 0.19375,0.57125 0.0775,0.185 0.16875,0.365 0.27125,0.53875 0.10125,0.17375 0.2125,0.3425 0.335,0.50125 0.1225,0.16 0.25625,0.31125 0.39875,0.4525 0.1425,0.14375 0.2925,0.27625 0.4525,0.4 0.16,0.1225 0.3275,0.23375 0.5025,0.33375 0.1725,0.1025 0.3525,0.1925 0.53875,0.27 0.185,0.0775 0.37625,0.1425 0.57125,0.195 0.19375,0.055 0.39125,0.0962 0.59125,0.125 0.19875,0.0275 0.4,0.0412 0.60125,0.04 l 0.0362,0 z"
       style="fill:none;stroke:#231f20;stroke-width:0.27000001;stroke-linecap:butt;stroke-linejoin:bevel;stroke-miterlimit:22.9260006;stroke-opacity:1;stroke-dasharray:none"
       id="path20656" />
    <path
       d="m 529.29184,524.93816 -0.0187,0 -0.0188,0 c -0.20375,-0.001 -0.4075,-0.015 -0.61,-0.0425 -0.2025,-0.0275 -0.4025,-0.07 -0.6,-0.125 -0.1975,-0.0512 -0.39,-0.11625 -0.57875,-0.19625 -0.18875,-0.0787 -0.37125,-0.17125 -0.54625,-0.275 -0.1775,-0.1025 -0.3475,-0.215 -0.51,-0.34 -0.16125,-0.125 -0.315,-0.26 -0.45875,-0.405 -0.145,-0.14375 -0.28,-0.29625 -0.405,-0.45875 -0.125,-0.16125 -0.2375,-0.3325 -0.33875,-0.50875 -0.10375,-0.17625 -0.195,-0.35875 -0.27375,-0.5475 -0.0788,-0.18875 -0.145,-0.3825 -0.19875,-0.57875 -0.055,-0.1975 -0.0975,-0.3975 -0.12625,-0.6 -0.0287,-0.2025 -0.0425,-0.40625 -0.04,-0.61 l 0,-0.0188 -10e-4,-0.0187 0,-61.41625 10e-4,-0.0188 0,-0.0188 c 0,-0.205 0.015,-0.40875 0.0425,-0.61 0.0275,-0.2025 0.0688,-0.4025 0.12375,-0.6 0.0512,-0.1975 0.1175,-0.39125 0.19625,-0.57875 0.08,-0.18875 0.17125,-0.37125 0.27625,-0.5475 0.10125,-0.1775 0.215,-0.3475 0.33875,-0.50875 0.125,-0.1625 0.26,-0.315 0.405,-0.45875 0.14375,-0.145 0.2975,-0.28125 0.45875,-0.40625 0.1625,-0.12375 0.3325,-0.2375 0.51,-0.33875 0.175,-0.10375 0.35875,-0.195 0.54625,-0.27375 0.18875,-0.0788 0.3825,-0.145 0.57875,-0.1975 0.1975,-0.0563 0.3975,-0.0975 0.6,-0.12625 0.2025,-0.0288 0.40625,-0.0425 0.61,-0.0412 l 61.4925,0 c 0.20375,10e-4 0.4075,0.0163 0.60875,0.0437 0.2025,0.0263 0.40375,0.0675 0.6,0.12375 0.1975,0.0512 0.39125,0.11625 0.58,0.19625 0.1875,0.0788 0.37,0.17125 0.54625,0.275 0.1775,0.10125 0.3475,0.215 0.50875,0.34 0.1625,0.125 0.315,0.26 0.46,0.405 0.145,0.14375 0.28,0.29625 0.405,0.45875 0.12375,0.16125 0.2375,0.33125 0.33875,0.50875 0.10375,0.17625 0.195,0.35875 0.27375,0.5475 0.0788,0.1875 0.145,0.38125 0.1975,0.57875 0.0562,0.1975 0.0987,0.3975 0.12625,0.6 0.0287,0.20125 0.0425,0.40625 0.0412,0.61 l 0,61.49125 c -10e-4,0.20375 -0.015,0.4075 -0.0425,0.61 -0.0275,0.2025 -0.0688,0.4025 -0.125,0.6 -0.0512,0.1975 -0.11625,0.39125 -0.19625,0.58 -0.0788,0.1875 -0.17125,0.37 -0.275,0.54625 -0.10125,0.17625 -0.215,0.34625 -0.34,0.50875 -0.12375,0.1625 -0.26,0.315 -0.40375,0.45875 -0.145,0.145 -0.2975,0.28125 -0.46,0.405 -0.16125,0.125 -0.33125,0.23875 -0.50875,0.34 -0.17625,0.1025 -0.35875,0.195 -0.54625,0.27375 -0.18875,0.0788 -0.3825,0.14375 -0.58,0.1975 -0.19625,0.055 -0.3975,0.0975 -0.6,0.12625 -0.20125,0.0287 -0.40625,0.0425 -0.60875,0.0412 l -0.0188,0 -0.0187,0 -61.4175,0 z"
       style="fill:#ffffff;fill-opacity:1;fill-rule:evenodd;stroke:#000000;stroke-width:0.27000001000000001;stroke-linecap:butt;stroke-linejoin:bevel;stroke-miterlimit:22.92600059999999800;stroke-opacity:1;stroke-dasharray:none"
       id="path20660" />
    <path
       d="m 529.29184,523.16566 61.4175,0 0.0225,0 c 0.1275,-10e-4 0.255,-0.01 0.38125,-0.0275 0.1275,-0.0163 0.2525,-0.0425 0.375,-0.0775 0.12375,-0.0312 0.245,-0.0725 0.3625,-0.1225 0.1175,-0.0488 0.23125,-0.1075 0.34125,-0.1725 0.11125,-0.0625 0.2175,-0.13375 0.31875,-0.2125 0.10125,-0.0775 0.19625,-0.16125 0.28625,-0.2525 0.0913,-0.09 0.17625,-0.185 0.25375,-0.28625 0.0775,-0.10125 0.14875,-0.2075 0.21125,-0.31875 0.065,-0.11 0.1225,-0.22375 0.17125,-0.34125 0.05,-0.1175 0.0913,-0.23875 0.12375,-0.3625 0.035,-0.1225 0.0613,-0.24875 0.0788,-0.375 0.0188,-0.12625 0.0275,-0.25375 0.0263,-0.38125 l 0,-61.46375 c -10e-4,-0.1275 -0.01,-0.255 -0.0275,-0.38125 -0.0162,-0.12625 -0.0425,-0.25125 -0.0775,-0.375 -0.0325,-0.1225 -0.0725,-0.24375 -0.1225,-0.36125 -0.05,-0.1175 -0.1075,-0.2325 -0.1725,-0.34125 -0.0625,-0.11125 -0.13375,-0.2175 -0.21125,-0.31875 -0.0775,-0.10125 -0.1625,-0.1975 -0.25375,-0.2875 -0.09,-0.09 -0.185,-0.175 -0.28625,-0.2525 -0.10125,-0.0775 -0.2075,-0.14875 -0.31875,-0.2125 -0.11,-0.065 -0.22375,-0.12125 -0.34125,-0.17125 -0.11875,-0.0487 -0.23875,-0.09 -0.3625,-0.12375 -0.1225,-0.0337 -0.24875,-0.0613 -0.375,-0.0788 -0.12625,-0.0175 -0.25375,-0.0263 -0.38125,-0.025 l -61.46375,0 c -0.1275,0 -0.255,0.009 -0.38125,0.0263 -0.12625,0.0175 -0.25125,0.0437 -0.37375,0.0775 -0.12375,0.0325 -0.245,0.0738 -0.3625,0.12375 -0.1175,0.0488 -0.2325,0.10625 -0.3425,0.17125 -0.11,0.0637 -0.21625,0.135 -0.3175,0.2125 -0.10125,0.0775 -0.1975,0.1625 -0.28625,0.2525 -0.0912,0.09 -0.17625,0.18625 -0.25375,0.2875 -0.0788,0.10125 -0.14875,0.2075 -0.2125,0.31875 -0.065,0.10875 -0.12125,0.22375 -0.17125,0.34125 -0.0487,0.1175 -0.09,0.23875 -0.12375,0.36125 -0.035,0.12375 -0.0612,0.24875 -0.0788,0.375 -0.0175,0.12625 -0.0263,0.25375 -0.025,0.38125 l 0,0.0238 0,61.4175 0,0.0225 c 0,0.1275 0.01,0.255 0.0263,0.38125 0.0175,0.12625 0.0438,0.2525 0.0775,0.375 0.0325,0.12375 0.0738,0.245 0.12375,0.3625 0.0488,0.1175 0.10625,0.23125 0.17125,0.34125 0.0637,0.11125 0.135,0.2175 0.2125,0.31875 0.0775,0.10125 0.1625,0.19625 0.25375,0.28625 0.0888,0.0913 0.185,0.175 0.28625,0.25375 0.10125,0.0775 0.2075,0.14875 0.3175,0.21125 0.11,0.065 0.225,0.1225 0.3425,0.17125 0.1175,0.05 0.23875,0.0912 0.3625,0.12375 0.1225,0.035 0.2475,0.0612 0.375,0.08 0.125,0.0175 0.25375,0.0263 0.38,0.025 l 0.0237,0 z"
       style="fill:#cc0000;fill-opacity:1;fill-rule:evenodd;stroke:#000000;stroke-width:0.27000001000000001;stroke-linecap:butt;stroke-linejoin:bevel;stroke-miterlimit:22.92600059999999800;stroke-opacity:1;stroke-dasharray:none"
       id="path20664" />
    <path
       d="m 576.46309,513.12691 -40.08625,-40.08625 0,40.08625 40.08625,0"
       style="fill:#ffffff;fill-opacity:1;fill-rule:evenodd;stroke:none"
       id="path20668" />
    <path
       d="m 583.62184,505.96816 v -40.085 h -40.085 l 40.085,40.085"
       style="fill:#ffffff;fill-opacity:1;fill-rule:evenodd;stroke:none"
       id="path20672" />
    <g
       transform="translate(1.2036862)"
       id="g929">
      <g
         id="g919"
         transform="translate(-1.0105759)">
        <path
           d="m 545.16692,491.4778 c -3,0 -3.99935,1.45898 -7.32031,1.45898 v 4 c 3.32096,0 4.32031,-1.45898 7.32031,-1.45898 3,0 3.99935,1.45898 7.32031,1.45898 3.32096,0 4.32032,-1.45898 7.32032,-1.45898 3,0 3.99935,1.45898 7.32031,1.45898 3.32096,0 4.32031,-1.45898 7.32031,-1.45898 3,0 3.99935,1.45898 7.32031,1.45898 v -4 c -3.32096,0 -4.32031,-1.45898 -7.32031,-1.45898 -3,0 -3.99935,1.45898 -7.32031,1.45898 -3.32096,0 -4.32031,-1.45898 -7.32031,-1.45898 -3,0 -3.99936,1.45898 -7.32032,1.45898 -3.32096,0 -4.32031,-1.45898 -7.32031,-1.45898 z"
           style="fill:#000000;fill-opacity:1;stroke:none;stroke-width:1px;stroke-linecap:butt;stroke-linejoin:miter;stroke-opacity:1"
           id="path844" />
        <path
           id="path871"
           style="fill:#000000;fill-opacity:1;stroke:none;stroke-width:1px;stroke-linecap:butt;stroke-linejoin:miter;stroke-opacity:1"
           d="m 545.16692,498.00814 c -3,0 -3.99935,1.45898 -7.32031,1.45898 v 4 c 3.32096,0 4.32031,-1.45898 7.32031,-1.45898 3,0 3.99935,1.45898 7.32031,1.45898 3.32096,0 4.32032,-1.45898 7.32032,-1.45898 3,0 3.99935,1.45898 7.32031,1.45898 3.32096,0 4.32031,-1.45898 7.32031,-1.45898 3,0 3.99935,1.45898 7.32031,1.45898 v -4 c -3.32096,0 -4.32031,-1.45898 -7.32031,-1.45898 -3,0 -3.99935,1.45898 -7.32031,1.45898 -3.32096,0 -4.32031,-1.45898 -7.32031,-1.45898 -3,0 -3.99936,1.45898 -7.32032,1.45898 -3.32096,0 -4.32031,-1.45898 -7.32031,-1.45898 z" />
        <path
           sodipodi:nodetypes="cccsccsccscccccccc"
           transform="translate(524.23898,453.93678)"
           d="m 48.035156,21.861328 c -0.65215,0.008 -1.275228,0.271162 -1.736328,0.732422 l -8.835937,8.835938 H 17.578125 14.949219 c 0,0 0.18796,4.950368 1.890625,4.49414 1.2539,-0.41486 2.32971,-0.914062 4.08789,-0.914062 2.76578,0 3.853699,1.226292 6.605469,1.419922 h 1.429688 c 2.75177,-0.19363 3.839678,-1.419922 6.605468,-1.419922 1.86949,0 2.962599,0.56713 4.324219,0.99414 0.13349,-0.0896 0.25965,-0.19128 0.375,-0.30664 l 7.798828,-7.800782 7.601563,7.601563 c 0.512182,0.512638 1.190171,0.747789 1.861328,0.722656 V 30.287109 L 49.833984,22.59375 c -0.47641,-0.47657 -1.125018,-0.740662 -1.798828,-0.732422 z"
           style="color:#000000;font-style:normal;font-variant:normal;font-weight:normal;font-stretch:normal;font-size:medium;line-height:normal;font-family:sans-serif;font-variant-ligatures:normal;font-variant-position:normal;font-variant-caps:normal;font-variant-numeric:normal;font-variant-alternates:normal;font-variant-east-asian:normal;font-feature-settings:normal;font-variation-settings:normal;text-indent:0;text-align:start;text-decoration:none;text-decoration-line:none;text-decoration-style:solid;text-decoration-color:#000000;letter-spacing:normal;word-spacing:normal;text-transform:none;writing-mode:lr-tb;direction:ltr;text-orientation:mixed;dominant-baseline:auto;baseline-shift:baseline;text-anchor:start;white-space:normal;shape-padding:0;shape-margin:0;inline-size:0;clip-rule:nonzero;display:inline;overflow:visible;visibility:visible;isolation:auto;mix-blend-mode:normal;color-interpolation:sRGB;color-interpolation-filters:linearRGB;solid-color:#000000;solid-opacity:1;vector-effect:none;fill:#000000;fill-opacity:1;fill-rule:nonzero;stroke:none;stroke-width:5;stroke-linecap:round;stroke-linejoin:round;stroke-miterlimit:4;stroke-dasharray:none;stroke-dashoffset:0;stroke-opacity:1;color-rendering:auto;image-rendering:auto;shape-rendering:auto;text-rendering:auto;enable-background:accumulate;stop-color:#000000"
           id="path887" />
        <path
           d="m 562.88106,480.05554 a 4.7729707,4.7729707 0 0 1 -4.77297,4.77297 4.7729707,4.7729707 0 0 1 -4.77297,-4.77297 4.7729707,4.7729707 0 0 1 4.77297,-4.77297 4.7729707,4.7729707 0 0 1 4.77297,4.77297"
           style="fill:#000000;fill-opacity:1;stroke:none;stroke-width:5.34653;stroke-linecap:round;stroke-linejoin:round;stroke-miterlimit:4;stroke-dasharray:none"
           id="path899" />
      </g>
    </g>
  </g>
</svg>
