<?xml version="1.0" encoding="UTF-8" standalone="no"?>
<!-- Created with Inkscape (http://www.inkscape.org/) -->

<svg
   xmlns:dc="http://purl.org/dc/elements/1.1/"
   xmlns:cc="http://creativecommons.org/ns#"
   xmlns:rdf="http://www.w3.org/1999/02/22-rdf-syntax-ns#"
   xmlns:svg="http://www.w3.org/2000/svg"
   xmlns="http://www.w3.org/2000/svg"
   xmlns:sodipodi="http://sodipodi.sourceforge.net/DTD/sodipodi-0.dtd"
   xmlns:inkscape="http://www.inkscape.org/namespaces/inkscape"
   width="71.182587"
   height="71.181396"
   id="svg17283"
   version="1.1"
   inkscape:version="0.47 r22583"
   sodipodi:docname="B.11a Gebot.svg">
  <defs
     id="defs17285" />
  <sodipodi:namedview
     id="base"
     pagecolor="#ffffff"
     bordercolor="#666666"
     borderopacity="1.0"
     inkscape:pageopacity="0.0"
     inkscape:pageshadow="2"
     inkscape:zoom="7.0428096"
     inkscape:cx="35.591293"
     inkscape:cy="35.590697"
     inkscape:document-units="px"
     inkscape:current-layer="layer1"
     showgrid="false"
     inkscape:window-width="1280"
     inkscape:window-height="748"
     inkscape:window-x="-8"
     inkscape:window-y="-8"
     inkscape:window-maximized="1" />
  <metadata
     id="metadata17288">
    <rdf:RDF>
      <cc:Work
         rdf:about="">
        <dc:format>image/svg+xml</dc:format>
        <dc:type
           rdf:resource="http://purl.org/dc/dcmitype/StillImage" />
        <dc:title />
      </cc:Work>
    </rdf:RDF>
  </metadata>
  <g
     inkscape:label="Ebene 1"
     inkscape:groupmode="layer"
     id="layer1"
     transform="translate(-314.40871,-496.77148)">
    <g
       transform="translate(-32.857149,28.571416)"
       id="layer1-7"
       inkscape:label="Ebene 1">
      <path
         id="path7862"
         style="fill:#ffffff;fill-opacity:1;fill-rule:nonzero;stroke:none"
         d="m 358.05402,478.98769 0,49.60625 49.60625,0 0,-49.60625 -49.60625,0 z" />
      <path
         d="m 351.6559,539.17882 62.435,0 c 0.18125,-10e-4 0.3625,-0.0137 0.54125,-0.0375 0.17875,-0.025 0.35625,-0.0613 0.53125,-0.11125 0.175,-0.045 0.3475,-0.10375 0.51375,-0.17375 0.16625,-0.07 0.32875,-0.15125 0.48375,-0.24375 0.1575,-0.09 0.30875,-0.19125 0.45125,-0.30125 0.14375,-0.11 0.28,-0.23 0.4075,-0.35875 0.12875,-0.1275 0.24875,-0.2625 0.35875,-0.40625 0.11,-0.14375 0.21125,-0.295 0.3,-0.45125 0.0925,-0.15625 0.17375,-0.31875 0.2425,-0.485 0.0713,-0.1675 0.12875,-0.33875 0.17625,-0.51375 0.0488,-0.17375 0.0863,-0.3525 0.1125,-0.53125 0.025,-0.17875 0.0375,-0.36 0.0362,-0.54 l 0,-62.46875 c -0.001,-0.18125 -0.0138,-0.36125 -0.0387,-0.54 -0.0238,-0.18 -0.0613,-0.3575 -0.11,-0.5325 -0.045,-0.175 -0.10375,-0.34625 -0.17375,-0.51375 -0.07,-0.16625 -0.1525,-0.32875 -0.245,-0.48375 -0.09,-0.1575 -0.19,-0.3075 -0.3,-0.45125 -0.11,-0.14375 -0.23,-0.27875 -0.35875,-0.40625 -0.1275,-0.12875 -0.26375,-0.24875 -0.4075,-0.36 -0.1425,-0.11 -0.29375,-0.21 -0.45125,-0.3 -0.155,-0.0913 -0.3175,-0.1725 -0.48375,-0.2425 -0.1675,-0.07 -0.33875,-0.12875 -0.51375,-0.175 -0.175,-0.05 -0.3525,-0.0875 -0.53125,-0.1125 -0.17875,-0.025 -0.36,-0.0375 -0.54125,-0.0362 l -62.4675,0 c -0.18125,0 -0.3625,0.0137 -0.54125,0.0375 -0.18,0.0238 -0.3575,0.0613 -0.53125,0.11125 -0.175,0.045 -0.3475,0.1025 -0.51375,0.1725 -0.1675,0.0712 -0.32875,0.1525 -0.485,0.245 -0.15625,0.09 -0.3075,0.19 -0.45125,0.3 -0.1425,0.11125 -0.27875,0.23125 -0.40625,0.36 -0.12875,0.1275 -0.24875,0.2625 -0.35875,0.40625 -0.11125,0.14375 -0.21125,0.29375 -0.30125,0.45125 -0.0913,0.15625 -0.1725,0.3175 -0.2425,0.485 -0.07,0.16625 -0.12875,0.33875 -0.175,0.5125 -0.05,0.175 -0.0875,0.3525 -0.1125,0.5325 -0.025,0.17875 -0.0375,0.35875 -0.0362,0.54 l 0,62.46875 c 10e-4,0.18 0.0138,0.36125 0.0387,0.54 0.0238,0.18 0.06,0.3575 0.11,0.53125 0.045,0.175 0.10375,0.3475 0.17375,0.51375 0.07,0.1675 0.15125,0.32875 0.24375,0.485 0.09,0.15625 0.19125,0.3075 0.30125,0.45125 0.11,0.14375 0.23,0.27875 0.35875,0.40625 0.1275,0.12875 0.26375,0.24875 0.40625,0.35875 0.14375,0.11 0.295,0.21125 0.45125,0.30125 0.15625,0.0913 0.31875,0.1725 0.485,0.2425 0.1675,0.07 0.33875,0.1275 0.51375,0.175 0.175,0.05 0.3525,0.0875 0.53125,0.1125 0.17875,0.025 0.36,0.0375 0.54125,0.0362 l 0.0325,0 z"
         style="fill:#ffffff;stroke:#000000;stroke-width:0.27000001;stroke-linecap:butt;stroke-linejoin:bevel;stroke-miterlimit:22.9260006;stroke-opacity:1;stroke-dasharray:none"
         id="path7846" />
      <path
         id="path7850"
         style="fill:#ffffff;stroke:#000000;stroke-width:0.27000001;stroke-linecap:butt;stroke-linejoin:bevel;stroke-miterlimit:22.9260006;stroke-opacity:1;stroke-dasharray:none"
         d="m 351.6559,539.24632 -0.0337,0 c -0.18375,-10e-4 -0.3675,-0.0137 -0.54875,-0.0387 -0.1825,-0.0238 -0.36375,-0.0625 -0.54,-0.11125 -0.17875,-0.0462 -0.3525,-0.10625 -0.5225,-0.1775 -0.17,-0.0712 -0.33375,-0.15375 -0.4925,-0.2475 -0.15875,-0.0925 -0.3125,-0.19375 -0.4575,-0.30625 -0.14625,-0.1125 -0.28375,-0.23375 -0.41375,-0.365 -0.13125,-0.12875 -0.2525,-0.26625 -0.365,-0.4125 -0.1125,-0.14625 -0.21375,-0.29875 -0.305,-0.45875 -0.0937,-0.15875 -0.17625,-0.32375 -0.2475,-0.4925 -0.0713,-0.17 -0.13,-0.34375 -0.1775,-0.5225 -0.05,-0.17625 -0.0888,-0.3575 -0.11375,-0.54 -0.0263,-0.18125 -0.0388,-0.365 -0.0375,-0.54875 l 0,-62.46875 c 10e-4,-0.18375 0.0138,-0.3675 0.0387,-0.55 0.025,-0.1825 0.0625,-0.3625 0.1125,-0.53875 0.0462,-0.17875 0.105,-0.35375 0.17625,-0.52375 0.0713,-0.16875 0.15375,-0.33375 0.24875,-0.49125 0.0913,-0.16 0.1925,-0.3125 0.305,-0.45875 0.1125,-0.14625 0.23375,-0.28375 0.365,-0.41375 0.12875,-0.13 0.2675,-0.2525 0.4125,-0.36375 0.14625,-0.1125 0.3,-0.215 0.45875,-0.30625 0.15875,-0.0937 0.32375,-0.175 0.4925,-0.24625 0.17,-0.0712 0.345,-0.13 0.5225,-0.17875 0.17625,-0.05 0.3575,-0.0887 0.54,-0.11375 0.18125,-0.0263 0.365,-0.0375 0.54875,-0.0362 l 62.47,0 c 0.18375,10e-4 0.3675,0.0137 0.54875,0.0375 0.1825,0.025 0.3625,0.0625 0.54,0.1125 0.17875,0.0463 0.3525,0.105 0.5225,0.1775 0.17,0.0712 0.33375,0.15375 0.4925,0.2475 0.15875,0.0913 0.3125,0.19375 0.4575,0.30625 0.14625,0.11125 0.285,0.23375 0.41375,0.36375 0.13125,0.13 0.2525,0.2675 0.365,0.41375 0.11125,0.14625 0.21375,0.29875 0.30625,0.45875 0.0925,0.15875 0.175,0.3225 0.24625,0.4925 0.0712,0.17 0.13,0.34375 0.1775,0.5225 0.0513,0.17625 0.0888,0.3575 0.115,0.53875 0.025,0.1825 0.0375,0.36625 0.0362,0.55 l 0,62.46875 c -0.001,0.18375 -0.0137,0.3675 -0.0387,0.55 -0.025,0.18125 -0.0625,0.3625 -0.1125,0.53875 -0.0462,0.17875 -0.105,0.3525 -0.17625,0.5225 -0.0713,0.17 -0.15375,0.33375 -0.2475,0.4925 -0.0925,0.16 -0.195,0.3125 -0.30625,0.45875 -0.1125,0.145 -0.23375,0.28375 -0.365,0.4125 -0.12875,0.13125 -0.2675,0.25375 -0.41375,0.365 -0.145,0.1125 -0.29875,0.215 -0.4575,0.30625 -0.15875,0.0925 -0.32375,0.175 -0.4925,0.24625 -0.17,0.0712 -0.345,0.13 -0.5225,0.17875 -0.1775,0.05 -0.3575,0.0875 -0.54,0.11375 -0.18125,0.025 -0.365,0.0375 -0.54875,0.0362 l -62.43625,0 z" />
      <path
         d="m 351.6559,537.55757 -0.02,0 c -0.11125,-0.001 -0.22125,-0.009 -0.33125,-0.0238 -0.11,-0.015 -0.21875,-0.0375 -0.32625,-0.0675 -0.1075,-0.0275 -0.2125,-0.0638 -0.315,-0.10625 -0.1025,-0.0425 -0.20125,-0.0925 -0.29625,-0.15 -0.0962,-0.055 -0.18875,-0.11625 -0.2775,-0.18375 -0.0875,-0.0688 -0.17125,-0.14125 -0.24875,-0.22125 -0.0788,-0.0775 -0.1525,-0.16 -0.22,-0.24875 -0.0675,-0.0875 -0.12875,-0.18 -0.18375,-0.27625 -0.0562,-0.095 -0.10625,-0.195 -0.14875,-0.2975 -0.0437,-0.1025 -0.0788,-0.2075 -0.1075,-0.31375 -0.0312,-0.1075 -0.0537,-0.21625 -0.0687,-0.32625 -0.0163,-0.11 -0.0238,-0.22125 -0.0225,-0.33125 l 0,-62.4425 c 0,-0.11125 0.009,-0.2225 0.0238,-0.33125 0.0138,-0.11 0.0362,-0.21875 0.0675,-0.32625 0.0275,-0.1075 0.0625,-0.2125 0.10625,-0.315 0.0425,-0.1025 0.0925,-0.20125 0.15,-0.2975 0.055,-0.095 0.11625,-0.1875 0.18375,-0.27625 0.0675,-0.0875 0.14125,-0.17 0.22,-0.24875 0.0775,-0.0788 0.16125,-0.1525 0.24875,-0.22 0.0888,-0.0675 0.18125,-0.12875 0.2775,-0.185 0.095,-0.055 0.195,-0.105 0.29625,-0.1475 0.1025,-0.0437 0.2075,-0.0788 0.315,-0.1075 0.1075,-0.0312 0.21625,-0.0538 0.32625,-0.0688 0.11,-0.0162 0.22,-0.0237 0.33125,-0.0225 l 62.4425,0 c 0.11125,0 0.22125,0.007 0.33125,0.0225 0.11,0.015 0.21875,0.0375 0.32625,0.0688 0.1075,0.0275 0.2125,0.0625 0.315,0.10625 0.1025,0.0425 0.20125,0.0925 0.2975,0.14875 0.095,0.0562 0.1875,0.1175 0.275,0.185 0.0888,0.0675 0.17125,0.14125 0.25,0.22 0.0787,0.0787 0.1525,0.16125 0.22,0.24875 0.0675,0.0887 0.12875,0.18125 0.18375,0.27625 0.0563,0.0963 0.10625,0.195 0.14875,0.2975 0.0425,0.1025 0.0787,0.2075 0.1075,0.315 0.03,0.1075 0.0538,0.21625 0.0687,0.32625 0.0163,0.10875 0.0238,0.22 0.0225,0.33125 l 0,62.4425 c 0,0.11 -0.007,0.22125 -0.0225,0.33125 -0.015,0.11 -0.0387,0.21875 -0.0687,0.32625 -0.0275,0.10625 -0.0625,0.2125 -0.10625,0.315 -0.0425,0.10125 -0.0925,0.20125 -0.15,0.29625 -0.055,0.0962 -0.11625,0.18875 -0.18375,0.27625 -0.0675,0.0875 -0.14125,0.17125 -0.22,0.24875 -0.0788,0.08 -0.16125,0.15375 -0.25,0.22125 -0.0875,0.0675 -0.18,0.12875 -0.275,0.18375 -0.0962,0.0563 -0.195,0.10625 -0.2975,0.14875 -0.1025,0.0425 -0.2075,0.0788 -0.315,0.1075 -0.1075,0.03 -0.21625,0.0537 -0.32625,0.0688 -0.11,0.0162 -0.22,0.0225 -0.33125,0.0225 l -0.02,0 -62.4025,0 z"
         style="fill:#cc0000;fill-opacity:1;fill-rule:evenodd;stroke:#000000;stroke-width:0.27000001;stroke-linecap:butt;stroke-linejoin:bevel;stroke-miterlimit:22.9260006;stroke-opacity:1;stroke-dasharray:none"
         id="path7842" />
      <path
         id="path7852"
         style="fill:#ffffff;fill-opacity:1;fill-rule:nonzero;stroke:none"
         d="m 359.21965,480.15382 0,47.275 47.275,0 0,-47.275 -47.275,0 z" />
    </g>
    <g
       style="font-size:21.81206512px;font-style:normal;font-weight:normal;fill:#000000;fill-opacity:1;stroke:none;font-family:Arial;-inkscape-font-specification:Arial"
       id="text2820">
      <path
         d="m 327.96427,534.80644 0,-10.26701 2.35374,0 0,10.00075 c 0,1.07215 0.30353,1.89045 0.91061,2.45492 0.60707,0.56448 1.35792,0.84671 2.25257,0.84671 0.89462,0 1.64548,-0.28223 2.25256,-0.84671 0.60706,-0.56447 0.9106,-1.38277 0.91061,-2.45492 l 0,-10.00075 2.35374,0 0,10.26701 c -1e-5,1.61887 -0.53608,2.91999 -1.60821,3.90338 -1.07215,0.98339 -2.37505,1.47508 -3.9087,1.47508 -1.54077,0 -2.84545,-0.49169 -3.91403,-1.47508 -1.0686,-0.98339 -1.60289,-2.28451 -1.60289,-3.90338 z"
         style="font-family:DIN 1451 Mittelschrift;-inkscape-font-specification:DIN 1451 Mittelschrift"
         id="path2825" />
      <path
         d="m 342.00152,540.0571 0,-15.51767 2.35375,0 0,7.99847 0.0532,0 6.3796,-7.99847 2.80106,0 -4.97374,6.124 5.49561,9.39367 -2.79041,0 -4.23887,-7.5831 -2.7265,2.85431 0,4.72879 z"
         style="font-family:DIN 1451 Mittelschrift;-inkscape-font-specification:DIN 1451 Mittelschrift"
         id="path2827" />
      <path
         d="m 358.25407,540.0571 -3.88741,-15.51767 2.4922,0 2.43895,11.03384 0.0426,0 3.01407,-11.03384 1.69342,0 3.01407,11.03384 0.0426,0 2.43895,-11.03384 2.49219,0 -3.8874,15.51767 -1.95968,0 -2.97147,-11.18295 -0.0426,0 -2.96081,11.18295 z"
         style="font-family:DIN 1451 Mittelschrift;-inkscape-font-specification:DIN 1451 Mittelschrift"
         id="path2829" />
    </g>
  </g>
</svg>
