<?xml version="1.0" encoding="UTF-8" standalone="no"?>
<!-- Created with Inkscape (http://www.inkscape.org/) -->

<svg
   xmlns:dc="http://purl.org/dc/elements/1.1/"
   xmlns:cc="http://creativecommons.org/ns#"
   xmlns:rdf="http://www.w3.org/1999/02/22-rdf-syntax-ns#"
   xmlns:svg="http://www.w3.org/2000/svg"
   xmlns="http://www.w3.org/2000/svg"
   xmlns:sodipodi="http://sodipodi.sourceforge.net/DTD/sodipodi-0.dtd"
   xmlns:inkscape="http://www.inkscape.org/namespaces/inkscape"
   width="48.276367"
   height="71.136482"
   id="svg10956"
   version="1.1"
   inkscape:version="0.47 r22583"
   sodipodi:docname="B.2b Gebot.svg">
  <defs
     id="defs10958" />
  <sodipodi:namedview
     id="base"
     pagecolor="#ffffff"
     bordercolor="#666666"
     borderopacity="1.0"
     inkscape:pageopacity="0.0"
     inkscape:pageshadow="2"
     inkscape:zoom="7.3520644"
     inkscape:cx="24.138184"
     inkscape:cy="35.568241"
     inkscape:document-units="px"
     inkscape:current-layer="layer1"
     showgrid="false"
     inkscape:window-width="1280"
     inkscape:window-height="748"
     inkscape:window-x="-8"
     inkscape:window-y="-8"
     inkscape:window-maximized="1" />
  <metadata
     id="metadata10961">
    <rdf:RDF>
      <cc:Work
         rdf:about="">
        <dc:format>image/svg+xml</dc:format>
        <dc:type
           rdf:resource="http://purl.org/dc/dcmitype/StillImage" />
        <dc:title></dc:title>
      </cc:Work>
    </rdf:RDF>
  </metadata>
  <g
     inkscape:label="Ebene 1"
     inkscape:groupmode="layer"
     id="layer1"
     transform="translate(381.28104,-22.508226)">
    <g
       id="g7672"
       transform="matrix(0,1.25,1.25,0,-377.71717,92.365843)"
       style="stroke:#000000;fill:#cc0000;fill-opacity:1">
      <path
         d="M 0,0 0,-0.014 C -0.001,-0.093 -0.006,-0.172 -0.017,-0.251 -0.027,-0.329 -0.043,-0.406 -0.065,-0.482 -0.085,-0.559 -0.11,-0.634 -0.141,-0.707 -0.172,-0.78 -0.207,-0.85 -0.247,-0.918 -0.287,-0.987 -0.331,-1.053 -0.379,-1.116 -0.427,-1.178 -0.48,-1.238 -0.536,-1.293 -0.591,-1.349 -0.651,-1.402 -0.713,-1.45 -0.776,-1.498 -0.842,-1.542 -0.91,-1.581 -0.979,-1.621 -1.049,-1.657 -1.122,-1.687 -1.195,-1.718 -1.27,-1.743 -1.346,-1.764 -1.422,-1.786 -1.5,-1.802 -1.579,-1.813 -1.657,-1.824 -1.736,-1.829 -1.815,-1.829 l -51.235,0 c -0.079,10e-4 -0.158,0.006 -0.236,0.017 -0.078,0.01 -0.156,0.026 -0.232,0.048 -0.077,0.02 -0.152,0.045 -0.225,0.076 -0.072,0.031 -0.143,0.066 -0.211,0.107 -0.069,0.039 -0.134,0.083 -0.197,0.131 -0.063,0.048 -0.122,0.101 -0.178,0.157 -0.056,0.055 -0.109,0.115 -0.157,0.177 -0.048,0.063 -0.092,0.129 -0.131,0.198 -0.04,0.068 -0.076,0.138 -0.106,0.211 -0.03,0.073 -0.056,0.148 -0.077,0.225 -0.021,0.076 -0.038,0.153 -0.049,0.232 -0.011,0.078 -0.016,0.157 -0.015,0.236 l 0,32.947 c 0,0.079 0.006,0.158 0.016,0.236 0.011,0.079 0.027,0.156 0.048,0.232 0.02,0.077 0.046,0.152 0.076,0.224 0.031,0.073 0.067,0.144 0.107,0.212 0.039,0.069 0.083,0.135 0.131,0.197 0.049,0.063 0.101,0.122 0.157,0.178 0.056,0.056 0.115,0.108 0.178,0.157 0.063,0.048 0.128,0.092 0.197,0.131 0.068,0.04 0.139,0.075 0.211,0.106 0.074,0.03 0.149,0.056 0.225,0.076 0.076,0.022 0.154,0.038 0.232,0.05 0.078,0.011 0.157,0.016 0.236,0.015 l 51.235,0 c 0.079,0 0.158,-0.006 0.237,-0.016 0.078,-0.011 0.156,-0.027 0.232,-0.049 0.076,-0.019 0.151,-0.045 0.224,-0.075 0.073,-0.031 0.143,-0.067 0.212,-0.107 0.068,-0.039 0.134,-0.083 0.197,-0.132 0.062,-0.048 0.122,-0.1 0.177,-0.156 0.057,-0.056 0.109,-0.115 0.157,-0.178 0.048,-0.062 0.092,-0.128 0.132,-0.197 0.039,-0.068 0.075,-0.139 0.106,-0.212 0.03,-0.073 0.055,-0.148 0.076,-0.224 0.022,-0.076 0.038,-0.154 0.049,-0.232 C -0.005,33.091 0,33.012 0,32.933 L 0,32.918 0,0 z"
         style="fill:#cc0000;fill-opacity:1;fill-rule:evenodd;stroke:#000000;stroke-width:0.21600000999999999;stroke-linecap:butt;stroke-linejoin:bevel;stroke-miterlimit:22.92600059999999800;stroke-opacity:1;stroke-dasharray:none"
         id="path7674" />
    </g>
    <g
       id="g7676"
       transform="matrix(0,1.25,1.25,0,-378.26592,93.463343)"
       style="stroke:#000000">
      <path
         d="m 0,0 0,33.814 c -0.001,0.098 -0.007,0.196 -0.02,0.293 -0.014,0.097 -0.034,0.193 -0.06,0.288 -0.025,0.094 -0.056,0.188 -0.094,0.278 -0.038,0.09 -0.083,0.178 -0.133,0.262 -0.048,0.085 -0.103,0.167 -0.163,0.245 -0.06,0.077 -0.124,0.151 -0.194,0.22 -0.069,0.07 -0.142,0.135 -0.22,0.194 -0.078,0.06 -0.159,0.114 -0.245,0.163 -0.084,0.05 -0.172,0.094 -0.262,0.131 -0.091,0.038 -0.184,0.07 -0.278,0.096 -0.095,0.026 -0.191,0.047 -0.288,0.06 -0.097,0.014 -0.195,0.021 -0.293,0.02 l -52.12,0 c -0.098,0 -0.196,-0.007 -0.293,-0.021 -0.097,-0.013 -0.193,-0.033 -0.288,-0.059 -0.094,-0.025 -0.187,-0.057 -0.278,-0.095 -0.09,-0.038 -0.178,-0.082 -0.262,-0.132 -0.085,-0.049 -0.167,-0.103 -0.244,-0.163 -0.078,-0.059 -0.152,-0.124 -0.221,-0.194 -0.069,-0.069 -0.135,-0.143 -0.194,-0.22 -0.06,-0.078 -0.114,-0.16 -0.163,-0.245 -0.05,-0.084 -0.094,-0.172 -0.131,-0.262 -0.038,-0.091 -0.07,-0.184 -0.095,-0.278 -0.027,-0.095 -0.047,-0.191 -0.061,-0.288 -0.014,-0.097 -0.02,-0.195 -0.02,-0.293 l 0,-33.832 c 10e-4,-0.098 0.008,-0.196 0.021,-0.293 0.013,-0.097 0.033,-0.193 0.06,-0.287 0.024,-0.095 0.056,-0.188 0.094,-0.279 0.038,-0.09 0.082,-0.178 0.132,-0.262 0.049,-0.085 0.103,-0.167 0.163,-0.245 0.06,-0.077 0.125,-0.151 0.194,-0.22 0.069,-0.069 0.143,-0.135 0.221,-0.194 0.077,-0.06 0.159,-0.114 0.244,-0.163 0.084,-0.05 0.172,-0.094 0.262,-0.131 0.091,-0.038 0.184,-0.07 0.278,-0.095 0.095,-0.027 0.191,-0.048 0.288,-0.061 0.097,-0.014 0.195,-0.02 0.293,-0.02 l 52.12,0 c 0.098,10e-4 0.196,0.008 0.293,0.021 0.097,0.013 0.193,0.033 0.288,0.06 0.095,0.024 0.188,0.056 0.278,0.094 0.09,0.038 0.178,0.082 0.262,0.132 0.085,0.049 0.167,0.103 0.245,0.163 0.078,0.06 0.151,0.125 0.22,0.194 0.07,0.069 0.135,0.143 0.195,0.22 0.059,0.078 0.114,0.16 0.162,0.245 0.05,0.084 0.094,0.172 0.132,0.263 0.037,0.09 0.069,0.183 0.095,0.278 0.026,0.094 0.047,0.19 0.06,0.287 0.014,0.097 0.021,0.195 0.02,0.293 L 0,0 z"
         style="fill:none;stroke:#000000;stroke-width:0.21600000999999999;stroke-linecap:butt;stroke-linejoin:bevel;stroke-miterlimit:22.92600059999999800;stroke-opacity:1;stroke-dasharray:none"
         id="path7678" />
      <g
         id="g7680"
         transform="translate(0.037,0)"
         style="stroke:#000000">
        <path
           d="m 0,0 0,-0.018 c -0.001,-0.1 -0.007,-0.199 -0.021,-0.298 -0.013,-0.098 -0.033,-0.196 -0.061,-0.292 -0.025,-0.096 -0.057,-0.191 -0.095,-0.283 -0.039,-0.092 -0.084,-0.181 -0.135,-0.266 -0.049,-0.087 -0.104,-0.17 -0.165,-0.249 -0.061,-0.079 -0.127,-0.153 -0.198,-0.223 -0.07,-0.072 -0.144,-0.138 -0.223,-0.198 C -0.977,-1.888 -1.06,-1.943 -1.147,-1.992 -1.232,-2.043 -1.322,-2.088 -1.414,-2.126 -1.505,-2.165 -1.6,-2.197 -1.696,-2.223 -1.792,-2.25 -1.89,-2.271 -1.989,-2.284 -2.087,-2.298 -2.187,-2.305 -2.286,-2.304 l -52.12,0 c -0.1,0 -0.2,0.007 -0.298,0.021 -0.099,0.013 -0.197,0.033 -0.293,0.06 -0.096,0.025 -0.191,0.057 -0.283,0.096 -0.091,0.039 -0.18,0.084 -0.266,0.135 -0.086,0.049 -0.169,0.104 -0.248,0.165 -0.079,0.061 -0.154,0.127 -0.224,0.198 -0.071,0.069 -0.137,0.144 -0.198,0.223 -0.06,0.079 -0.116,0.162 -0.165,0.249 -0.051,0.085 -0.095,0.175 -0.134,0.266 -0.038,0.092 -0.07,0.187 -0.096,0.283 -0.028,0.096 -0.048,0.194 -0.062,0.293 -0.014,0.098 -0.021,0.197 -0.02,0.297 l 0,33.832 c 10e-4,0.1 0.007,0.199 0.021,0.298 0.013,0.099 0.034,0.196 0.061,0.292 0.025,0.097 0.057,0.191 0.096,0.283 0.038,0.092 0.083,0.181 0.134,0.266 0.049,0.087 0.105,0.17 0.165,0.249 0.061,0.079 0.127,0.154 0.198,0.224 0.07,0.071 0.145,0.137 0.224,0.197 0.079,0.061 0.162,0.117 0.248,0.166 0.086,0.05 0.175,0.095 0.267,0.133 0.092,0.039 0.186,0.071 0.282,0.097 0.096,0.027 0.194,0.048 0.293,0.062 0.098,0.014 0.198,0.02 0.298,0.02 l 52.12,0 c 0.099,-10e-4 0.199,-0.008 0.298,-0.021 0.098,-0.014 0.196,-0.034 0.292,-0.061 0.096,-0.025 0.191,-0.057 0.283,-0.096 0.091,-0.038 0.181,-0.083 0.266,-0.134 0.087,-0.05 0.17,-0.105 0.248,-0.166 0.08,-0.06 0.154,-0.126 0.224,-0.197 0.071,-0.07 0.137,-0.145 0.198,-0.224 0.061,-0.079 0.116,-0.162 0.165,-0.249 0.051,-0.085 0.095,-0.174 0.134,-0.266 0.038,-0.092 0.071,-0.187 0.096,-0.283 0.028,-0.096 0.048,-0.193 0.062,-0.292 C -0.006,34.013 0.001,33.914 0,33.814 L 0,0 z"
           style="fill:none;stroke:#000000;stroke-width:0.21600000999999999;stroke-linecap:butt;stroke-linejoin:bevel;stroke-miterlimit:22.92600059999999800;stroke-opacity:1;stroke-dasharray:none"
           id="path7682" />
      </g>
    </g>
    <path
       d="m -373.89592,30.614594 0,54.893749 32.75375,0 0,-54.893749 -32.75375,0 z"
       style="fill:#ffffff;fill-opacity:1;fill-rule:nonzero;stroke:none"
       id="path7684" />
    <g
       id="g7686"
       transform="matrix(0,1.25,1.25,0,-366.57967,81.717093)"
       style="stroke:#000000">
      <path
         d="m 0,0 -10.643,0.058 -15.341,12.565 -7.96,0.162"
         style="fill:none;stroke:#000000;stroke-width:2;stroke-linecap:butt;stroke-linejoin:miter;stroke-miterlimit:22.92600059999999800;stroke-opacity:1;stroke-dasharray:none"
         id="path7688" />
    </g>
    <g
       id="g7690"
       transform="matrix(0,1.25,1.25,0,-350.46967,32.917093)"
       style="fill:#000000">
      <path
         d="M 0,0 5.111,-2.686 5.216,2.477 0,0"
         style="fill:#000000;fill-opacity:1;fill-rule:evenodd;stroke:none"
         id="path7692" />
    </g>
  </g>
</svg>
