<?xml version="1.0" encoding="UTF-8" standalone="no"?>
<!-- Created with Inkscape (http://www.inkscape.org/) -->

<svg
   xmlns:dc="http://purl.org/dc/elements/1.1/"
   xmlns:cc="http://creativecommons.org/ns#"
   xmlns:rdf="http://www.w3.org/1999/02/22-rdf-syntax-ns#"
   xmlns:svg="http://www.w3.org/2000/svg"
   xmlns="http://www.w3.org/2000/svg"
   xmlns:sodipodi="http://sodipodi.sourceforge.net/DTD/sodipodi-0.dtd"
   xmlns:inkscape="http://www.inkscape.org/namespaces/inkscape"
   width="48.276367"
   height="71.136482"
   id="svg11536"
   version="1.1"
   inkscape:version="0.47 r22583"
   sodipodi:docname="B.3a Gebot.svg">
  <defs
     id="defs11538" />
  <sodipodi:namedview
     id="base"
     pagecolor="#ffffff"
     bordercolor="#666666"
     borderopacity="1.0"
     inkscape:pageopacity="0.0"
     inkscape:pageshadow="2"
     inkscape:zoom="7.3520644"
     inkscape:cx="24.138184"
     inkscape:cy="35.568241"
     inkscape:document-units="px"
     inkscape:current-layer="layer1"
     showgrid="false"
     inkscape:window-width="1280"
     inkscape:window-height="748"
     inkscape:window-x="-8"
     inkscape:window-y="-8"
     inkscape:window-maximized="1" />
  <metadata
     id="metadata11541">
    <rdf:RDF>
      <cc:Work
         rdf:about="">
        <dc:format>image/svg+xml</dc:format>
        <dc:type
           rdf:resource="http://purl.org/dc/dcmitype/StillImage" />
        <dc:title></dc:title>
      </cc:Work>
    </rdf:RDF>
  </metadata>
  <g
     inkscape:label="Ebene 1"
     inkscape:groupmode="layer"
     id="layer1"
     transform="translate(-325.86181,-496.79394)">
    <g
       id="g7694"
       transform="matrix(0,1.25,1.25,0,329.42568,498.07156)"
       style="stroke:#000000;fill:#cc0000;fill-opacity:1">
      <path
         d="M 0,0 0,-0.014 C 0.001,-0.093 0.006,-0.172 0.017,-0.251 0.027,-0.329 0.043,-0.406 0.065,-0.482 0.085,-0.559 0.11,-0.634 0.141,-0.707 0.172,-0.78 0.207,-0.85 0.247,-0.918 0.287,-0.987 0.331,-1.053 0.379,-1.116 0.427,-1.178 0.48,-1.238 0.536,-1.293 0.591,-1.349 0.651,-1.402 0.713,-1.45 0.776,-1.498 0.842,-1.542 0.91,-1.581 0.979,-1.621 1.049,-1.657 1.122,-1.687 1.195,-1.718 1.27,-1.743 1.346,-1.764 1.422,-1.786 1.5,-1.802 1.579,-1.813 1.657,-1.824 1.736,-1.829 1.814,-1.829 l 51.236,0 c 0.079,10e-4 0.158,0.006 0.236,0.017 0.078,0.01 0.156,0.026 0.232,0.048 0.077,0.02 0.152,0.045 0.225,0.076 0.072,0.031 0.143,0.066 0.211,0.107 0.069,0.039 0.134,0.083 0.197,0.131 0.063,0.048 0.122,0.101 0.178,0.157 0.056,0.055 0.109,0.115 0.157,0.177 0.048,0.063 0.092,0.129 0.131,0.198 0.04,0.068 0.076,0.138 0.106,0.211 0.03,0.073 0.056,0.148 0.077,0.225 0.021,0.076 0.038,0.153 0.049,0.232 0.011,0.078 0.016,0.157 0.015,0.236 l 0,32.947 c 0,0.079 -0.006,0.158 -0.016,0.236 -0.011,0.079 -0.027,0.156 -0.048,0.232 -0.02,0.077 -0.046,0.152 -0.076,0.224 -0.031,0.073 -0.067,0.144 -0.107,0.212 -0.039,0.069 -0.083,0.135 -0.131,0.197 -0.049,0.063 -0.101,0.122 -0.157,0.178 -0.056,0.056 -0.115,0.108 -0.178,0.157 -0.063,0.048 -0.128,0.092 -0.197,0.131 -0.068,0.04 -0.139,0.075 -0.211,0.106 -0.074,0.03 -0.149,0.056 -0.225,0.076 -0.076,0.022 -0.154,0.038 -0.232,0.05 -0.078,0.011 -0.157,0.016 -0.236,0.015 l -51.236,0 C 1.736,34.747 1.657,34.741 1.578,34.731 1.5,34.72 1.422,34.704 1.346,34.682 1.27,34.663 1.195,34.637 1.122,34.607 1.049,34.576 0.979,34.54 0.91,34.5 0.842,34.461 0.776,34.417 0.713,34.368 0.651,34.32 0.591,34.268 0.536,34.212 0.479,34.156 0.427,34.097 0.379,34.034 0.331,33.972 0.287,33.906 0.247,33.837 0.208,33.769 0.172,33.698 0.141,33.625 0.111,33.552 0.086,33.477 0.065,33.401 0.043,33.325 0.027,33.247 0.016,33.169 0.005,33.091 0,33.012 0,32.933 L 0,32.918 0,0 z"
         style="fill:#cc0000;fill-opacity:1;fill-rule:evenodd;stroke:#000000;stroke-width:0.21600000999999999;stroke-linecap:butt;stroke-linejoin:bevel;stroke-miterlimit:22.92600059999999800;stroke-opacity:1;stroke-dasharray:none"
         id="path7696" />
    </g>
    <g
       id="g7698"
       transform="matrix(0,1.25,1.25,0,328.87693,496.97531)"
       style="stroke:#000000">
      <path
         d="m 0,0 0,33.814 c 0.001,0.098 0.007,0.196 0.02,0.293 0.014,0.097 0.034,0.193 0.06,0.288 0.025,0.094 0.056,0.188 0.094,0.278 0.038,0.09 0.083,0.178 0.133,0.262 0.048,0.085 0.103,0.167 0.163,0.245 0.059,0.077 0.124,0.151 0.194,0.22 0.069,0.07 0.142,0.135 0.22,0.194 0.078,0.06 0.159,0.114 0.245,0.163 0.084,0.05 0.172,0.094 0.262,0.131 0.091,0.038 0.184,0.07 0.278,0.096 0.095,0.026 0.191,0.047 0.288,0.06 0.097,0.014 0.195,0.021 0.293,0.02 l 52.12,0 c 0.098,0 0.195,-0.007 0.293,-0.021 0.097,-0.013 0.193,-0.033 0.287,-0.059 0.095,-0.025 0.188,-0.057 0.279,-0.095 0.09,-0.038 0.178,-0.082 0.262,-0.132 0.085,-0.049 0.167,-0.103 0.244,-0.163 0.078,-0.059 0.152,-0.124 0.221,-0.194 0.069,-0.069 0.135,-0.143 0.194,-0.22 0.06,-0.078 0.114,-0.16 0.163,-0.245 0.05,-0.084 0.094,-0.172 0.131,-0.262 0.038,-0.091 0.07,-0.184 0.095,-0.278 0.027,-0.095 0.047,-0.191 0.061,-0.288 0.014,-0.097 0.02,-0.195 0.02,-0.293 l 0,-33.832 c -10e-4,-0.098 -0.008,-0.196 -0.021,-0.293 -0.013,-0.097 -0.033,-0.193 -0.06,-0.287 -0.024,-0.095 -0.056,-0.188 -0.094,-0.279 -0.038,-0.09 -0.082,-0.178 -0.132,-0.262 -0.049,-0.085 -0.103,-0.167 -0.163,-0.245 -0.06,-0.077 -0.125,-0.151 -0.194,-0.22 -0.069,-0.069 -0.143,-0.135 -0.221,-0.194 -0.077,-0.06 -0.159,-0.114 -0.244,-0.163 -0.084,-0.05 -0.172,-0.094 -0.262,-0.131 -0.091,-0.038 -0.184,-0.07 -0.279,-0.095 -0.094,-0.027 -0.19,-0.048 -0.287,-0.061 -0.097,-0.014 -0.195,-0.02 -0.293,-0.02 l -52.12,0 c -0.098,10e-4 -0.196,0.008 -0.293,0.021 -0.097,0.013 -0.193,0.033 -0.288,0.06 -0.095,0.024 -0.188,0.056 -0.278,0.094 -0.09,0.038 -0.178,0.082 -0.262,0.132 -0.085,0.049 -0.167,0.103 -0.245,0.163 -0.078,0.06 -0.151,0.125 -0.22,0.194 -0.07,0.069 -0.135,0.143 -0.195,0.22 -0.059,0.078 -0.114,0.16 -0.162,0.245 -0.05,0.084 -0.094,0.172 -0.132,0.263 -0.038,0.09 -0.069,0.183 -0.095,0.278 -0.026,0.094 -0.047,0.19 -0.06,0.287 C 0.006,-0.214 -0.001,-0.116 0,-0.018 L 0,0 z"
         style="fill:none;stroke:#000000;stroke-width:0.21600000999999999;stroke-linecap:butt;stroke-linejoin:bevel;stroke-miterlimit:22.92600059999999800;stroke-opacity:1;stroke-dasharray:none"
         id="path7700" />
      <g
         id="g7702"
         transform="translate(-0.037,0)"
         style="stroke:#000000">
        <path
           d="m 0,0 0,-0.018 c 0.001,-0.1 0.007,-0.199 0.021,-0.298 0.013,-0.098 0.033,-0.196 0.061,-0.292 0.025,-0.096 0.057,-0.191 0.095,-0.283 0.039,-0.092 0.084,-0.181 0.135,-0.266 0.049,-0.087 0.104,-0.17 0.165,-0.249 0.061,-0.079 0.127,-0.153 0.198,-0.223 0.07,-0.072 0.144,-0.138 0.223,-0.198 C 0.977,-1.888 1.06,-1.943 1.147,-1.992 1.233,-2.043 1.322,-2.088 1.414,-2.126 1.506,-2.165 1.6,-2.197 1.696,-2.223 1.792,-2.25 1.89,-2.271 1.989,-2.284 2.087,-2.298 2.187,-2.305 2.286,-2.304 l 52.121,0 c 0.099,0 0.199,0.007 0.297,0.021 0.099,0.013 0.197,0.033 0.293,0.06 0.096,0.025 0.191,0.057 0.283,0.096 0.091,0.039 0.18,0.084 0.266,0.135 0.086,0.049 0.169,0.104 0.248,0.165 0.079,0.061 0.154,0.127 0.224,0.198 0.071,0.069 0.137,0.144 0.198,0.223 0.061,0.079 0.116,0.162 0.165,0.249 0.051,0.085 0.095,0.175 0.134,0.266 0.038,0.092 0.07,0.187 0.096,0.283 0.028,0.096 0.048,0.194 0.062,0.293 0.014,0.098 0.021,0.197 0.02,0.297 l 0,33.832 c -10e-4,0.1 -0.007,0.199 -0.021,0.298 -0.013,0.099 -0.033,0.196 -0.061,0.292 -0.025,0.097 -0.057,0.191 -0.096,0.283 -0.038,0.092 -0.083,0.181 -0.134,0.266 -0.049,0.087 -0.104,0.17 -0.165,0.249 -0.061,0.079 -0.127,0.154 -0.198,0.224 -0.07,0.071 -0.145,0.137 -0.224,0.197 -0.079,0.061 -0.162,0.117 -0.248,0.166 -0.086,0.05 -0.175,0.095 -0.267,0.133 -0.092,0.039 -0.186,0.071 -0.282,0.097 -0.096,0.027 -0.194,0.048 -0.293,0.062 -0.098,0.014 -0.198,0.02 -0.297,0.02 l -52.121,0 C 2.187,36.1 2.087,36.093 1.988,36.08 1.89,36.066 1.792,36.046 1.696,36.019 1.6,35.994 1.505,35.962 1.413,35.923 1.322,35.885 1.233,35.84 1.147,35.789 1.06,35.739 0.977,35.684 0.899,35.623 0.819,35.563 0.745,35.497 0.675,35.426 0.604,35.356 0.538,35.281 0.477,35.202 0.416,35.123 0.361,35.04 0.312,34.953 0.261,34.868 0.217,34.779 0.178,34.687 0.14,34.595 0.107,34.5 0.082,34.404 0.054,34.308 0.034,34.211 0.02,34.112 0.006,34.013 -0.001,33.914 0,33.814 L 0,0 z"
           style="fill:none;stroke:#000000;stroke-width:0.21600000999999999;stroke-linecap:butt;stroke-linejoin:bevel;stroke-miterlimit:22.92600059999999800;stroke-opacity:1;stroke-dasharray:none"
           id="path7704" />
      </g>
    </g>
    <path
       d="m 333.24693,504.93031 0,54.89375 32.75375,0 0,-54.89375 -32.75375,0 z"
       style="fill:#ffffff;fill-opacity:1;fill-rule:nonzero;stroke:none"
       id="path7706" />
    <g
       id="g7708"
       transform="matrix(0,1.25,1.25,0,342.66318,520.70531)">
      <path
         d="M 0,0 0,-0.014 -0.002,-0.007 0,0 z"
         style="fill:#a7a9ac;fill-opacity:1;fill-rule:evenodd;stroke:#231f20;stroke-width:0.21600001;stroke-linecap:butt;stroke-linejoin:bevel;stroke-miterlimit:22.9260006;stroke-opacity:1;stroke-dasharray:none"
         id="path7710" />
    </g>
    <g
       id="g7712"
       transform="matrix(0,1.25,1.25,0,344.48318,521.19531)"
       style="fill:#000000">
      <path
         d="M 0,0 0.791,2.946 0.795,2.963 C 0.802,2.988 0.806,3.014 0.81,3.039 0.813,3.065 0.816,3.091 0.816,3.117 0.817,3.148 0.816,3.18 0.813,3.212 0.809,3.244 0.804,3.276 0.796,3.307 0.789,3.338 0.78,3.368 0.768,3.398 0.757,3.428 0.743,3.457 0.728,3.485 0.713,3.513 0.696,3.54 0.677,3.566 0.658,3.592 0.638,3.616 0.616,3.639 0.594,3.663 0.57,3.685 0.546,3.705 0.521,3.725 0.495,3.743 0.467,3.76 0.44,3.777 0.412,3.792 0.383,3.805 0.353,3.817 0.323,3.829 0.293,3.837 0.262,3.847 0.231,3.854 0.2,3.859 0.168,3.864 0.136,3.867 0.104,3.867 0.072,3.868 0.04,3.867 0.009,3.864 -0.023,3.861 -0.055,3.855 -0.086,3.848 -0.117,3.84 -0.148,3.831 -0.177,3.82 -0.207,3.808 -0.236,3.795 -0.264,3.779 L -0.272,3.775 -0.281,3.77 l -9.073,-5.233 9.073,-5.186 0.016,-0.009 c 0.022,-0.012 0.045,-0.023 0.069,-0.033 0.024,-0.01 0.048,-0.018 0.072,-0.025 0.031,-0.009 0.062,-0.017 0.094,-0.021 0.031,-0.005 0.063,-0.008 0.095,-0.008 0.032,-0.001 0.064,0 0.096,0.003 0.032,0.004 0.063,0.009 0.094,0.017 0.031,0.007 0.062,0.017 0.091,0.028 0.03,0.012 0.059,0.025 0.087,0.041 0.028,0.015 0.055,0.032 0.081,0.051 0.026,0.019 0.05,0.039 0.073,0.062 0.024,0.022 0.045,0.045 0.065,0.07 0.02,0.025 0.039,0.051 0.055,0.078 0.017,0.028 0.032,0.056 0.045,0.085 0.013,0.029 0.024,0.059 0.032,0.09 0.009,0.031 0.017,0.062 0.021,0.094 0.005,0.031 0.008,0.063 0.009,0.095 0.001,0.032 0,0.064 -0.004,0.096 -0.003,0.031 -0.009,0.063 -0.017,0.094 l -0.002,0.009 -0.003,0.009 -0.785,2.897 27.587,0 0.019,0 0.019,0 c 0.064,0.002 0.127,0.007 0.191,0.017 0.063,0.01 0.125,0.025 0.186,0.043 0.062,0.017 0.122,0.039 0.18,0.065 0.058,0.026 0.115,0.057 0.169,0.091 0.055,0.032 0.107,0.069 0.157,0.11 0.049,0.039 0.096,0.083 0.14,0.13 0.044,0.046 0.085,0.095 0.123,0.146 0.037,0.052 0.071,0.106 0.101,0.163 0.031,0.056 0.058,0.114 0.081,0.173 0.023,0.06 0.042,0.121 0.056,0.183 0.012,0.048 0.022,0.097 0.029,0.146 0.006,0.049 0.01,0.098 0.011,0.147 l 0,0.018 0.001,0.017 0,0.038 c -0.001,0.064 -0.006,0.128 -0.015,0.191 -0.01,0.063 -0.023,0.126 -0.042,0.187 -0.017,0.062 -0.038,0.122 -0.063,0.181 -0.026,0.058 -0.055,0.115 -0.089,0.169 -0.032,0.055 -0.068,0.108 -0.108,0.158 -0.04,0.05 -0.083,0.097 -0.129,0.141 -0.046,0.045 -0.094,0.087 -0.146,0.125 -0.051,0.038 -0.105,0.072 -0.161,0.103 -0.056,0.031 -0.113,0.059 -0.173,0.082 -0.059,0.023 -0.12,0.043 -0.182,0.058 -0.053,0.014 -0.106,0.024 -0.159,0.032 -0.054,0.007 -0.108,0.011 -0.162,0.011 L 27.607,0 27.59,0 0,0 z"
         style="fill:#000000;fill-opacity:1;fill-rule:evenodd;stroke:#231f20;stroke-width:0.21600000999999999;stroke-linecap:butt;stroke-linejoin:bevel;stroke-miterlimit:22.92600059999999800;stroke-opacity:1;stroke-dasharray:none"
         id="path7714" />
    </g>
    <g
       id="g7716"
       transform="matrix(0,1.25,1.25,0,357.29318,544.02031)">
      <path
         d="M 0,0 0,-0.014 0.002,-0.007 0,0 z"
         style="fill:#a7a9ac;fill-opacity:1;fill-rule:evenodd;stroke:#231f20;stroke-width:0.21600001;stroke-linecap:butt;stroke-linejoin:bevel;stroke-miterlimit:22.9260006;stroke-opacity:1;stroke-dasharray:none"
         id="path7718" />
    </g>
    <g
       id="g7720"
       transform="matrix(0,1.25,1.25,0,359.11318,543.53156)"
       style="fill:#000000">
      <path
         d="m 0,0 -0.791,2.946 -0.005,0.017 c -0.006,0.026 -0.011,0.051 -0.014,0.077 -0.004,0.025 -0.006,0.051 -0.006,0.077 -0.002,0.032 0,0.064 0.003,0.096 0.003,0.031 0.009,0.063 0.017,0.094 0.007,0.031 0.016,0.061 0.028,0.091 0.011,0.03 0.024,0.059 0.04,0.087 0.015,0.028 0.032,0.055 0.051,0.081 0.019,0.026 0.039,0.05 0.061,0.074 0.022,0.023 0.045,0.045 0.07,0.065 0.025,0.02 0.051,0.038 0.079,0.055 0.026,0.017 0.055,0.032 0.084,0.045 0.029,0.013 0.059,0.023 0.09,0.033 0.03,0.009 0.062,0.016 0.093,0.021 0.032,0.005 0.063,0.008 0.095,0.009 0.032,0 0.064,-10e-4 0.096,-0.004 C 0.023,3.861 0.054,3.855 0.086,3.848 0.117,3.84 0.147,3.831 0.177,3.82 0.207,3.809 0.236,3.795 0.264,3.779 L 0.272,3.775 0.281,3.77 9.354,-1.463 0.281,-6.649 0.265,-6.658 C 0.243,-6.67 0.22,-6.681 0.196,-6.691 0.172,-6.701 0.148,-6.709 0.123,-6.716 0.093,-6.725 0.061,-6.732 0.03,-6.737 c -0.032,-0.005 -0.063,-0.008 -0.095,-0.008 -0.033,-0.001 -0.065,0 -0.096,0.003 -0.032,0.004 -0.063,0.009 -0.094,0.017 -0.031,0.007 -0.062,0.017 -0.092,0.028 -0.029,0.012 -0.059,0.026 -0.086,0.041 -0.028,0.015 -0.056,0.032 -0.081,0.051 -0.026,0.019 -0.05,0.04 -0.073,0.062 -0.024,0.022 -0.045,0.045 -0.066,0.07 -0.02,0.025 -0.038,0.051 -0.055,0.079 -0.016,0.027 -0.031,0.055 -0.044,0.084 -0.013,0.029 -0.024,0.06 -0.033,0.09 -0.009,0.031 -0.016,0.062 -0.021,0.094 -0.004,0.031 -0.007,0.063 -0.008,0.095 -0.001,0.032 0,0.064 0.003,0.096 0.004,0.032 0.009,0.063 0.018,0.094 l 0.002,0.009 0.002,0.009 0.785,2.897 -27.605,0 -0.019,0 c -0.064,0.002 -0.128,0.007 -0.191,0.017 -0.063,0.01 -0.125,0.024 -0.186,0.043 -0.062,0.018 -0.122,0.04 -0.18,0.065 -0.059,0.026 -0.115,0.057 -0.169,0.091 -0.055,0.033 -0.107,0.069 -0.157,0.11 -0.05,0.04 -0.097,0.083 -0.14,0.13 -0.044,0.046 -0.086,0.095 -0.123,0.146 -0.038,0.052 -0.072,0.106 -0.102,0.163 -0.03,0.056 -0.057,0.114 -0.08,0.173 -0.023,0.06 -0.042,0.121 -0.057,0.183 -0.012,0.048 -0.021,0.097 -0.028,0.146 -0.006,0.049 -0.01,0.098 -0.011,0.147 l -0.001,0.018 0,0.017 0,0.038 c 0.001,0.064 0.006,0.128 0.015,0.191 0.009,0.063 0.023,0.126 0.041,0.187 0.017,0.062 0.039,0.122 0.064,0.181 0.026,0.058 0.055,0.115 0.088,0.169 0.033,0.055 0.069,0.108 0.109,0.158 0.04,0.05 0.083,0.097 0.129,0.141 0.046,0.045 0.094,0.087 0.145,0.125 0.052,0.038 0.106,0.072 0.162,0.103 0.056,0.031 0.113,0.059 0.173,0.082 0.059,0.024 0.12,0.043 0.182,0.058 0.052,0.014 0.105,0.024 0.159,0.032 0.054,0.007 0.107,0.011 0.161,0.011 L -27.607,0 -27.59,0 0,0 z"
         style="fill:#000000;fill-opacity:1;fill-rule:evenodd;stroke:#231f20;stroke-width:0.21600000999999999;stroke-linecap:butt;stroke-linejoin:bevel;stroke-miterlimit:22.92600059999999800;stroke-opacity:1;stroke-dasharray:none"
         id="path7722" />
    </g>
    <path
       d="m 353.91443,536.95906 0,1.4545 7.278,0 0,-1.4545 -7.278,0 z"
       style="fill:#ffffff;fill-opacity:1;fill-rule:nonzero;stroke:none"
       id="path7724" />
    <path
       d="m 353.35068,514.31531 0,1.4545 7.278,0 0,-1.4545 -7.278,0 z"
       style="fill:#ffffff;fill-opacity:1;fill-rule:nonzero;stroke:none"
       id="path7726" />
    <path
       d="m 353.91443,521.86281 0,1.4545 7.278,0 0,-1.4545 -7.278,0 z"
       style="fill:#ffffff;fill-opacity:1;fill-rule:nonzero;stroke:none"
       id="path7728" />
    <path
       d="m 353.91443,529.41156 0,1.4545 7.278,0 0,-1.4545 -7.278,0 z"
       style="fill:#ffffff;fill-opacity:1;fill-rule:nonzero;stroke:none"
       id="path7730" />
  </g>
</svg>
