<?xml version="1.0" encoding="UTF-8" standalone="no"?>
<!-- Created with Inkscape (http://www.inkscape.org/) -->

<svg
   xmlns:dc="http://purl.org/dc/elements/1.1/"
   xmlns:cc="http://creativecommons.org/ns#"
   xmlns:rdf="http://www.w3.org/1999/02/22-rdf-syntax-ns#"
   xmlns:svg="http://www.w3.org/2000/svg"
   xmlns="http://www.w3.org/2000/svg"
   xmlns:sodipodi="http://sodipodi.sourceforge.net/DTD/sodipodi-0.dtd"
   xmlns:inkscape="http://www.inkscape.org/namespaces/inkscape"
   width="48.276367"
   height="71.136482"
   id="svg12132"
   version="1.1"
   inkscape:version="0.47 r22583"
   sodipodi:docname="Neues Dokument 16">
  <defs
     id="defs12134" />
  <sodipodi:namedview
     id="base"
     pagecolor="#ffffff"
     bordercolor="#666666"
     borderopacity="1.0"
     inkscape:pageopacity="0.0"
     inkscape:pageshadow="2"
     inkscape:zoom="7.3520644"
     inkscape:cx="24.138184"
     inkscape:cy="35.568241"
     inkscape:document-units="px"
     inkscape:current-layer="layer1"
     showgrid="false"
     inkscape:window-width="1280"
     inkscape:window-height="748"
     inkscape:window-x="-8"
     inkscape:window-y="-8"
     inkscape:window-maximized="1" />
  <metadata
     id="metadata12137">
    <rdf:RDF>
      <cc:Work
         rdf:about="">
        <dc:format>image/svg+xml</dc:format>
        <dc:type
           rdf:resource="http://purl.org/dc/dcmitype/StillImage" />
        <dc:title></dc:title>
      </cc:Work>
    </rdf:RDF>
  </metadata>
  <g
     inkscape:label="Ebene 1"
     inkscape:groupmode="layer"
     id="layer1"
     transform="translate(-121.5761,-773.93679)">
    <g
       id="g7732"
       transform="matrix(0,1.25,1.25,0,166.28985,775.21441)"
       style="stroke:#000000;fill:#cc0000;fill-opacity:1">
      <path
         d="M 0,0 0,0.014 C 0,0.093 0.006,0.172 0.017,0.251 0.027,0.329 0.043,0.406 0.065,0.482 0.085,0.559 0.11,0.634 0.141,0.707 0.172,0.78 0.207,0.85 0.247,0.918 0.287,0.987 0.331,1.053 0.379,1.116 0.427,1.178 0.48,1.238 0.536,1.293 0.591,1.349 0.651,1.402 0.713,1.45 0.776,1.498 0.842,1.542 0.91,1.581 0.979,1.621 1.049,1.657 1.122,1.687 1.195,1.718 1.27,1.743 1.346,1.764 1.422,1.786 1.5,1.802 1.579,1.813 1.657,1.824 1.736,1.829 1.814,1.829 l 51.236,0 C 53.129,1.828 53.208,1.823 53.286,1.812 53.364,1.802 53.442,1.786 53.518,1.764 53.595,1.744 53.67,1.719 53.743,1.688 53.815,1.657 53.886,1.622 53.954,1.581 54.023,1.542 54.088,1.498 54.151,1.45 54.214,1.402 54.273,1.349 54.329,1.293 54.385,1.238 54.438,1.178 54.486,1.116 54.534,1.053 54.578,0.987 54.617,0.918 54.657,0.85 54.693,0.78 54.723,0.707 54.753,0.634 54.779,0.559 54.8,0.482 54.821,0.406 54.838,0.329 54.849,0.25 54.86,0.172 54.865,0.093 54.864,0.014 l 0,-32.947 c 0,-0.079 -0.006,-0.158 -0.016,-0.236 -0.011,-0.078 -0.027,-0.156 -0.048,-0.232 -0.02,-0.077 -0.046,-0.152 -0.076,-0.224 -0.031,-0.073 -0.067,-0.144 -0.107,-0.212 -0.039,-0.068 -0.083,-0.134 -0.131,-0.197 -0.049,-0.063 -0.101,-0.122 -0.157,-0.178 -0.056,-0.056 -0.115,-0.108 -0.178,-0.157 -0.063,-0.048 -0.128,-0.092 -0.197,-0.131 -0.068,-0.04 -0.139,-0.075 -0.211,-0.106 -0.074,-0.03 -0.149,-0.056 -0.225,-0.076 -0.076,-0.022 -0.154,-0.038 -0.232,-0.049 -0.078,-0.012 -0.157,-0.017 -0.236,-0.016 l -51.236,0 c -0.078,0 -0.157,0.006 -0.236,0.016 -0.078,0.011 -0.156,0.027 -0.232,0.049 -0.076,0.019 -0.151,0.045 -0.224,0.075 -0.073,0.031 -0.143,0.067 -0.212,0.107 -0.068,0.039 -0.134,0.083 -0.197,0.132 -0.062,0.048 -0.122,0.1 -0.177,0.156 -0.057,0.056 -0.109,0.115 -0.157,0.178 -0.048,0.063 -0.092,0.129 -0.132,0.197 -0.04,0.068 -0.075,0.139 -0.106,0.212 -0.03,0.073 -0.055,0.148 -0.076,0.224 -0.022,0.076 -0.038,0.154 -0.049,0.232 C 0.005,-33.091 0,-33.012 0,-32.933 L 0,-32.918 0,0 z"
         style="fill:#cc0000;fill-opacity:1;fill-rule:evenodd;stroke:#000000;stroke-width:0.21600000999999999;stroke-linecap:butt;stroke-linejoin:bevel;stroke-miterlimit:22.92600059999999800;stroke-opacity:1;stroke-dasharray:none"
         id="path7734" />
    </g>
    <g
       id="g7736"
       transform="matrix(0,1.25,1.25,0,166.83735,774.11691)"
       style="stroke:#000000">
      <path
         d="m 0,0 0,-33.814 c 0.001,-0.098 0.007,-0.196 0.02,-0.293 0.014,-0.097 0.034,-0.193 0.06,-0.288 0.025,-0.094 0.056,-0.188 0.094,-0.278 0.038,-0.09 0.083,-0.178 0.133,-0.262 0.049,-0.085 0.103,-0.167 0.163,-0.245 0.06,-0.077 0.124,-0.151 0.194,-0.22 0.069,-0.07 0.143,-0.135 0.22,-0.194 0.078,-0.06 0.16,-0.114 0.245,-0.163 0.084,-0.05 0.172,-0.094 0.262,-0.131 0.091,-0.038 0.184,-0.07 0.278,-0.096 0.095,-0.026 0.191,-0.047 0.288,-0.06 0.097,-0.014 0.195,-0.021 0.293,-0.02 l 52.12,0 c 0.098,10e-4 0.196,0.007 0.293,0.021 0.097,0.013 0.193,0.033 0.288,0.059 0.094,0.025 0.187,0.057 0.278,0.095 0.09,0.038 0.178,0.082 0.262,0.132 0.085,0.049 0.167,0.103 0.244,0.163 0.078,0.059 0.152,0.124 0.221,0.194 0.069,0.069 0.135,0.143 0.194,0.22 0.06,0.078 0.114,0.16 0.163,0.245 0.05,0.084 0.094,0.172 0.131,0.263 0.038,0.09 0.07,0.183 0.095,0.277 0.027,0.095 0.047,0.191 0.061,0.288 0.014,0.097 0.02,0.195 0.02,0.293 l 0,33.832 c -10e-4,0.098 -0.008,0.196 -0.021,0.293 -0.013,0.097 -0.033,0.193 -0.06,0.287 -0.024,0.095 -0.055,0.188 -0.093,0.279 -0.039,0.09 -0.083,0.178 -0.133,0.262 -0.049,0.085 -0.103,0.167 -0.163,0.245 -0.06,0.077 -0.125,0.151 -0.194,0.22 -0.069,0.069 -0.143,0.134 -0.221,0.194 -0.077,0.06 -0.159,0.114 -0.244,0.163 -0.084,0.05 -0.172,0.094 -0.262,0.131 -0.091,0.038 -0.184,0.07 -0.278,0.096 -0.095,0.026 -0.191,0.047 -0.288,0.06 -0.097,0.014 -0.195,0.02 -0.293,0.02 l -52.12,0 C 2.152,2.267 2.054,2.26 1.957,2.247 1.86,2.234 1.764,2.214 1.669,2.188 1.574,2.163 1.481,2.131 1.391,2.093 1.301,2.055 1.213,2.011 1.129,1.961 1.044,1.912 0.962,1.858 0.884,1.798 0.807,1.738 0.733,1.673 0.664,1.604 0.594,1.535 0.529,1.461 0.469,1.384 0.41,1.306 0.356,1.224 0.307,1.139 0.257,1.055 0.213,0.967 0.175,0.876 0.138,0.786 0.106,0.693 0.08,0.598 0.054,0.504 0.033,0.408 0.02,0.311 0.006,0.214 0,0.116 0,0.018 L 0,0 z"
         style="fill:none;stroke:#000000;stroke-width:0.21600000999999999;stroke-linecap:butt;stroke-linejoin:bevel;stroke-miterlimit:22.92600059999999800;stroke-opacity:1;stroke-dasharray:none"
         id="path7738" />
      <g
         id="g7740"
         transform="translate(-0.036,0)"
         style="stroke:#000000">
        <path
           d="m 0,0 0,0.018 c 0.001,0.1 0.007,0.199 0.021,0.298 0.013,0.098 0.033,0.196 0.061,0.292 0.025,0.096 0.057,0.191 0.095,0.283 0.039,0.092 0.084,0.181 0.135,0.266 0.049,0.087 0.104,0.17 0.165,0.249 0.061,0.079 0.127,0.153 0.198,0.223 0.07,0.072 0.144,0.138 0.223,0.198 C 0.977,1.888 1.06,1.943 1.147,1.992 1.232,2.043 1.322,2.088 1.414,2.126 1.505,2.165 1.6,2.197 1.696,2.223 1.792,2.25 1.89,2.271 1.989,2.284 2.087,2.298 2.187,2.305 2.286,2.304 l 52.12,0 c 0.1,0 0.2,-0.007 0.298,-0.021 C 54.803,2.27 54.901,2.25 54.997,2.223 55.093,2.198 55.188,2.166 55.28,2.127 55.371,2.088 55.46,2.044 55.546,1.992 55.632,1.943 55.715,1.888 55.794,1.827 55.873,1.766 55.948,1.7 56.018,1.629 56.089,1.56 56.155,1.485 56.216,1.406 c 0.06,-0.079 0.116,-0.162 0.165,-0.249 0.051,-0.085 0.095,-0.174 0.134,-0.266 0.038,-0.092 0.07,-0.187 0.096,-0.283 0.028,-0.096 0.048,-0.194 0.062,-0.292 0.014,-0.099 0.021,-0.198 0.02,-0.298 l 0,-33.832 c -10e-4,-0.1 -0.007,-0.199 -0.021,-0.298 -0.013,-0.099 -0.034,-0.196 -0.061,-0.292 -0.025,-0.097 -0.057,-0.191 -0.096,-0.283 -0.038,-0.092 -0.083,-0.181 -0.134,-0.266 -0.049,-0.087 -0.105,-0.17 -0.165,-0.249 -0.061,-0.079 -0.127,-0.154 -0.198,-0.224 -0.07,-0.071 -0.145,-0.137 -0.224,-0.197 -0.079,-0.061 -0.162,-0.117 -0.248,-0.166 -0.086,-0.05 -0.175,-0.095 -0.267,-0.133 -0.092,-0.039 -0.186,-0.071 -0.282,-0.097 -0.096,-0.027 -0.194,-0.048 -0.293,-0.062 -0.098,-0.014 -0.198,-0.02 -0.298,-0.02 l -52.12,0 c -0.099,10e-4 -0.199,0.008 -0.297,0.021 -0.099,0.014 -0.197,0.034 -0.293,0.061 -0.096,0.025 -0.191,0.057 -0.283,0.096 -0.091,0.038 -0.181,0.083 -0.266,0.134 -0.087,0.05 -0.17,0.105 -0.248,0.166 -0.08,0.06 -0.154,0.126 -0.224,0.197 -0.071,0.07 -0.137,0.145 -0.198,0.224 -0.061,0.079 -0.116,0.162 -0.165,0.249 -0.051,0.085 -0.095,0.174 -0.134,0.266 -0.038,0.092 -0.071,0.187 -0.096,0.283 -0.028,0.096 -0.048,0.193 -0.062,0.292 -0.014,0.099 -0.021,0.198 -0.02,0.298 L 0,0 z"
           style="fill:none;stroke:#000000;stroke-width:0.21600000999999999;stroke-linecap:butt;stroke-linejoin:bevel;stroke-miterlimit:22.92600059999999800;stroke-opacity:1;stroke-dasharray:none"
           id="path7742" />
      </g>
    </g>
    <path
       d="m 129.7136,782.07191 0,54.89375 32.75375,0 0,-54.89375 -32.75375,0 z"
       style="fill:#ffffff;fill-opacity:1;fill-rule:nonzero;stroke:none"
       id="path7744" />
    <g
       id="g7746"
       transform="matrix(0,1.25,1.25,0,153.05235,797.84816)">
      <path
         d="M 0,0 0,0.014 -0.002,0.007 0,0 z"
         style="fill:#a7a9ac;fill-opacity:1;fill-rule:evenodd;stroke:#231f20;stroke-width:0.21600001;stroke-linecap:butt;stroke-linejoin:bevel;stroke-miterlimit:22.9260006;stroke-opacity:1;stroke-dasharray:none"
         id="path7748" />
    </g>
    <g
       id="g7750"
       transform="matrix(0,1.25,1.25,0,151.2311,798.33691)"
       style="fill:#000000">
      <path
         d="M 0,0 0.791,-2.946 0.795,-2.963 C 0.802,-2.988 0.806,-3.014 0.81,-3.039 0.813,-3.065 0.816,-3.091 0.816,-3.117 0.817,-3.148 0.816,-3.18 0.813,-3.212 0.809,-3.244 0.804,-3.276 0.796,-3.307 0.789,-3.338 0.78,-3.368 0.768,-3.398 0.757,-3.428 0.743,-3.457 0.728,-3.485 0.713,-3.513 0.696,-3.54 0.677,-3.566 0.658,-3.592 0.638,-3.616 0.616,-3.639 0.594,-3.663 0.57,-3.684 0.546,-3.705 0.521,-3.725 0.495,-3.743 0.467,-3.76 0.44,-3.777 0.412,-3.792 0.383,-3.805 0.354,-3.817 0.323,-3.829 0.293,-3.837 0.262,-3.847 0.231,-3.854 0.2,-3.859 0.168,-3.864 0.136,-3.867 0.104,-3.867 c -0.032,-10e-4 -0.063,0 -0.095,0.003 -0.032,0.003 -0.064,0.009 -0.095,0.016 -0.031,0.008 -0.062,0.017 -0.091,0.028 -0.03,0.012 -0.059,0.025 -0.087,0.041 l -0.008,0.004 -0.009,0.005 -9.073,5.233 9.073,5.186 0.016,0.009 c 0.022,0.012 0.045,0.023 0.069,0.033 0.024,0.01 0.048,0.018 0.072,0.025 0.031,0.009 0.062,0.017 0.094,0.021 0.031,0.005 0.063,0.008 0.095,0.008 0.032,0.001 0.064,0 0.096,-0.003 C 0.193,6.738 0.224,6.733 0.255,6.725 0.286,6.718 0.317,6.708 0.346,6.697 0.376,6.685 0.405,6.672 0.433,6.656 0.461,6.641 0.488,6.624 0.514,6.605 0.54,6.586 0.564,6.566 0.587,6.543 0.611,6.521 0.632,6.498 0.652,6.473 0.672,6.448 0.691,6.422 0.707,6.395 0.724,6.367 0.739,6.339 0.752,6.31 0.765,6.281 0.776,6.251 0.784,6.22 0.793,6.189 0.801,6.158 0.805,6.126 0.81,6.095 0.813,6.063 0.814,6.031 0.815,5.999 0.814,5.967 0.81,5.935 0.807,5.904 0.801,5.872 0.793,5.841 L 0.791,5.832 0.788,5.823 0.003,2.926 l 27.587,0 0.019,0 0.019,0 C 27.692,2.924 27.755,2.919 27.819,2.909 27.882,2.899 27.944,2.885 28.005,2.866 28.067,2.848 28.127,2.827 28.185,2.801 28.243,2.775 28.3,2.744 28.354,2.71 28.409,2.678 28.461,2.641 28.511,2.6 28.56,2.56 28.607,2.517 28.651,2.47 28.695,2.424 28.737,2.375 28.774,2.324 28.811,2.272 28.845,2.218 28.875,2.161 28.906,2.105 28.933,2.047 28.956,1.988 28.979,1.928 28.998,1.867 29.012,1.805 29.024,1.757 29.034,1.708 29.041,1.659 29.047,1.61 29.051,1.561 29.052,1.512 l 0,-0.018 0.001,-0.017 0,-0.038 C 29.052,1.375 29.047,1.311 29.038,1.248 29.029,1.185 29.015,1.122 28.996,1.061 28.979,0.999 28.958,0.939 28.933,0.88 28.907,0.822 28.878,0.765 28.844,0.711 28.812,0.656 28.776,0.603 28.736,0.553 28.696,0.503 28.653,0.456 28.607,0.412 28.561,0.367 28.513,0.325 28.461,0.287 28.41,0.249 28.356,0.215 28.3,0.184 28.244,0.153 28.187,0.125 28.127,0.102 28.068,0.079 28.007,0.059 27.945,0.044 27.892,0.03 27.839,0.02 27.786,0.012 27.732,0.005 27.678,0.001 27.625,0.001 L 27.607,0 27.59,0 0,0 z"
         style="fill:#000000;fill-opacity:1;fill-rule:evenodd;stroke:#231f20;stroke-width:0.21600000999999999;stroke-linecap:butt;stroke-linejoin:bevel;stroke-miterlimit:22.92600059999999800;stroke-opacity:1;stroke-dasharray:none"
         id="path7752" />
    </g>
    <g
       id="g7754"
       transform="matrix(0,1.25,1.25,0,138.4211,821.16316)">
      <path
         d="M 0,0 0,0.014 0.002,0.007 0,0 z"
         style="fill:#a7a9ac;fill-opacity:1;fill-rule:evenodd;stroke:#231f20;stroke-width:0.21600001;stroke-linecap:butt;stroke-linejoin:bevel;stroke-miterlimit:22.9260006;stroke-opacity:1;stroke-dasharray:none"
         id="path7756" />
    </g>
    <g
       id="g7758"
       transform="matrix(0,1.25,1.25,0,136.6011,820.67441)"
       style="fill:#000000">
      <path
         d="m 0,0 -0.791,-2.946 -0.005,-0.017 c -0.006,-0.026 -0.011,-0.051 -0.014,-0.077 -0.004,-0.025 -0.006,-0.051 -0.006,-0.077 -0.002,-0.032 0,-0.064 0.003,-0.096 0.003,-0.031 0.009,-0.063 0.017,-0.094 0.007,-0.031 0.016,-0.061 0.028,-0.091 0.011,-0.03 0.024,-0.059 0.04,-0.087 0.015,-0.028 0.032,-0.055 0.051,-0.081 0.019,-0.026 0.039,-0.05 0.061,-0.074 0.022,-0.023 0.045,-0.045 0.07,-0.065 0.025,-0.02 0.051,-0.038 0.079,-0.055 0.026,-0.017 0.055,-0.032 0.084,-0.045 0.029,-0.013 0.059,-0.023 0.09,-0.033 0.03,-0.009 0.062,-0.016 0.093,-0.021 0.032,-0.005 0.063,-0.008 0.095,-0.009 0.032,0 0.064,10e-4 0.096,0.004 0.032,0.003 0.063,0.009 0.095,0.016 0.031,0.008 0.061,0.017 0.091,0.028 0.03,0.011 0.059,0.025 0.087,0.041 L 0.272,-3.775 0.281,-3.77 9.354,1.463 0.281,6.649 0.265,6.658 C 0.243,6.67 0.22,6.681 0.196,6.691 0.172,6.701 0.148,6.709 0.123,6.716 0.093,6.725 0.061,6.732 0.03,6.737 -0.002,6.742 -0.033,6.745 -0.065,6.745 -0.098,6.746 -0.13,6.745 -0.161,6.742 -0.193,6.738 -0.225,6.733 -0.255,6.725 -0.286,6.718 -0.317,6.708 -0.347,6.697 -0.376,6.685 -0.406,6.671 -0.433,6.656 -0.461,6.641 -0.489,6.624 -0.514,6.605 -0.54,6.586 -0.564,6.565 -0.587,6.543 -0.611,6.521 -0.632,6.498 -0.653,6.473 -0.673,6.448 -0.691,6.422 -0.708,6.394 -0.724,6.367 -0.739,6.339 -0.752,6.31 -0.765,6.281 -0.776,6.25 -0.785,6.22 -0.794,6.189 -0.801,6.158 -0.806,6.127 -0.81,6.095 -0.813,6.063 -0.814,6.031 c -0.001,-0.032 0,-0.064 0.003,-0.096 0.004,-0.032 0.009,-0.063 0.018,-0.094 l 0.002,-0.009 0.002,-0.009 0.785,-2.897 -27.605,0 -0.019,0 c -0.064,-0.002 -0.128,-0.007 -0.191,-0.017 -0.063,-0.01 -0.125,-0.024 -0.186,-0.043 -0.062,-0.018 -0.122,-0.04 -0.18,-0.065 -0.059,-0.026 -0.115,-0.057 -0.169,-0.091 -0.055,-0.033 -0.107,-0.069 -0.157,-0.109 -0.05,-0.041 -0.097,-0.084 -0.14,-0.131 -0.044,-0.046 -0.086,-0.095 -0.123,-0.146 -0.038,-0.052 -0.072,-0.106 -0.102,-0.163 -0.03,-0.056 -0.057,-0.114 -0.08,-0.173 -0.023,-0.06 -0.042,-0.121 -0.057,-0.183 -0.012,-0.048 -0.021,-0.097 -0.028,-0.146 -0.006,-0.049 -0.01,-0.098 -0.011,-0.147 l -0.001,-0.018 0,-0.017 0,-0.038 c 0.001,-0.064 0.006,-0.128 0.015,-0.191 0.009,-0.063 0.023,-0.126 0.041,-0.187 0.017,-0.062 0.039,-0.122 0.064,-0.181 0.026,-0.058 0.055,-0.115 0.088,-0.169 0.033,-0.055 0.069,-0.108 0.109,-0.158 0.04,-0.05 0.083,-0.097 0.129,-0.141 0.046,-0.045 0.094,-0.087 0.145,-0.125 0.052,-0.038 0.106,-0.072 0.162,-0.103 0.056,-0.031 0.113,-0.059 0.173,-0.082 0.059,-0.024 0.12,-0.043 0.182,-0.058 0.052,-0.014 0.105,-0.024 0.159,-0.032 0.054,-0.007 0.107,-0.011 0.161,-0.011 L -27.607,0 -27.59,0 0,0 z"
         style="fill:#000000;fill-opacity:1;fill-rule:evenodd;stroke:#231f20;stroke-width:0.21600000999999999;stroke-linecap:butt;stroke-linejoin:bevel;stroke-miterlimit:22.92600059999999800;stroke-opacity:1;stroke-dasharray:none"
         id="path7760" />
    </g>
    <path
       d="m 134.52235,814.10066 0,1.4545 7.278,0 0,-1.4545 -7.278,0 z"
       style="fill:#ffffff;fill-opacity:1;fill-rule:nonzero;stroke:none"
       id="path7762" />
    <path
       d="m 135.0861,791.45816 0,1.4545 7.27788,0 0,-1.4545 -7.27788,0 z"
       style="fill:#ffffff;fill-opacity:1;fill-rule:nonzero;stroke:none"
       id="path7764" />
    <path
       d="m 134.52235,799.00566 0,1.4545 7.278,0 0,-1.4545 -7.278,0 z"
       style="fill:#ffffff;fill-opacity:1;fill-rule:nonzero;stroke:none"
       id="path7766" />
    <path
       d="m 134.52235,806.55316 0,1.4545 7.278,0 0,-1.4545 -7.278,0 z"
       style="fill:#ffffff;fill-opacity:1;fill-rule:nonzero;stroke:none"
       id="path7768" />
  </g>
</svg>
