<?xml version="1.0" encoding="UTF-8" standalone="no"?>
<!-- Created with Inkscape (http://www.inkscape.org/) -->

<svg
   xmlns:dc="http://purl.org/dc/elements/1.1/"
   xmlns:cc="http://creativecommons.org/ns#"
   xmlns:rdf="http://www.w3.org/1999/02/22-rdf-syntax-ns#"
   xmlns:svg="http://www.w3.org/2000/svg"
   xmlns="http://www.w3.org/2000/svg"
   xmlns:sodipodi="http://sodipodi.sourceforge.net/DTD/sodipodi-0.dtd"
   xmlns:inkscape="http://www.inkscape.org/namespaces/inkscape"
   width="71.136429"
   height="48.275272"
   id="svg20323"
   version="1.1"
   inkscape:version="0.47 r22583"
   sodipodi:docname="D.3 Empfehlung in die Richtung des Pfeils zu fahren.svg">
  <defs
     id="defs20325">
    <inkscape:perspective
       sodipodi:type="inkscape:persp3d"
       inkscape:vp_x="0 : 22.937592 : 1"
       inkscape:vp_y="0 : 1000 : 0"
       inkscape:vp_z="67.592834 : 22.937592 : 1"
       inkscape:persp3d-origin="33.796417 : 15.291728 : 1"
       id="perspective11" />
    <inkscape:perspective
       id="perspective2824"
       inkscape:persp3d-origin="35.568214 : 16.091757 : 1"
       inkscape:vp_z="71.136429 : 24.137636 : 1"
       inkscape:vp_y="0 : 1000 : 0"
       inkscape:vp_x="0 : 24.137636 : 1"
       sodipodi:type="inkscape:persp3d" />
  </defs>
  <sodipodi:namedview
     id="base"
     pagecolor="#ffffff"
     bordercolor="#666666"
     borderopacity="1.0"
     inkscape:pageopacity="0.0"
     inkscape:pageshadow="2"
     inkscape:zoom="5.7002495"
     inkscape:cx="92.008562"
     inkscape:cy="7.7064125"
     inkscape:document-units="px"
     inkscape:current-layer="layer1"
     showgrid="false"
     inkscape:window-width="1280"
     inkscape:window-height="748"
     inkscape:window-x="-8"
     inkscape:window-y="-8"
     inkscape:window-maximized="1" />
  <metadata
     id="metadata20328">
    <rdf:RDF>
      <cc:Work
         rdf:about="">
        <dc:format>image/svg+xml</dc:format>
        <dc:type
           rdf:resource="http://purl.org/dc/dcmitype/StillImage" />
        <dc:title />
      </cc:Work>
    </rdf:RDF>
  </metadata>
  <g
     inkscape:label="Ebene 1"
     inkscape:groupmode="layer"
     id="layer1"
     transform="translate(569.85393,8.9183117)">
    <g
       id="g2946"
       transform="translate(1.7169623e-7,-55.918599)">
      <g
         id="g2937">
        <g
           id="g2929">
          <g
             id="g2922">
            <g
               id="g2916">
              <g
                 transform="translate(39.32254,69.119781)"
                 id="g2834">
                <path
                   id="path17791"
                   style="fill:none;stroke:#231f20;stroke-width:0.27000001;stroke-linecap:butt;stroke-linejoin:bevel;stroke-miterlimit:22.9260006;stroke-opacity:1;stroke-dasharray:none"
                   d="m -606.16149,25.97578 65.11625,0 0.0112,0 c 0.1225,-0.001 0.245,-0.01 0.36625,-0.0263 0.12125,-0.0162 0.24125,-0.0412 0.36,-0.075 0.11875,-0.03 0.235,-0.07 0.3475,-0.1175 0.1125,-0.0475 0.2225,-0.1025 0.3275,-0.165 0.10625,-0.0613 0.20875,-0.12875 0.30625,-0.20375 0.0962,-0.075 0.18875,-0.155 0.275,-0.2425 0.0875,-0.0863 0.16875,-0.17875 0.2425,-0.275 0.075,-0.0975 0.14375,-0.2 0.20375,-0.30625 0.0625,-0.105 0.1175,-0.215 0.16375,-0.3275 0.0475,-0.11375 0.0875,-0.23 0.12,-0.3475 0.0325,-0.11875 0.0588,-0.23875 0.075,-0.36 0.0175,-0.12125 0.0262,-0.24375 0.025,-0.36625 l 0,-42.28875 c 0,-0.1225 -0.009,-0.245 -0.025,-0.36625 -0.0175,-0.12125 -0.0425,-0.24125 -0.075,-0.36 -0.0312,-0.11875 -0.0712,-0.235 -0.11875,-0.3475 -0.0475,-0.11375 -0.1025,-0.2225 -0.165,-0.3275 -0.0613,-0.10625 -0.12875,-0.20875 -0.20375,-0.30625 -0.0738,-0.0975 -0.155,-0.18875 -0.2425,-0.275 -0.0863,-0.0875 -0.17875,-0.16875 -0.275,-0.24375 -0.0975,-0.0737 -0.2,-0.1425 -0.30625,-0.20375 -0.105,-0.0612 -0.215,-0.11625 -0.3275,-0.16375 -0.11375,-0.0475 -0.23,-0.0863 -0.3475,-0.11875 -0.11875,-0.0337 -0.23875,-0.0587 -0.36,-0.0763 -0.12125,-0.0162 -0.24375,-0.025 -0.36625,-0.0237 l -65.15,0 c -0.1225,0 -0.24375,0.009 -0.36625,0.025 -0.12125,0.0162 -0.24125,0.0412 -0.35875,0.075 -0.11875,0.0312 -0.235,0.07 -0.34875,0.1175 -0.1125,0.0475 -0.2225,0.10375 -0.3275,0.165 -0.10625,0.0613 -0.20875,0.13 -0.305,0.20375 -0.0975,0.075 -0.19,0.15625 -0.27625,0.24375 -0.0863,0.0863 -0.16875,0.1775 -0.2425,0.275 -0.075,0.0975 -0.1425,0.19875 -0.20375,0.30625 -0.0625,0.105 -0.1175,0.215 -0.16375,0.3275 -0.0475,0.11375 -0.0875,0.22875 -0.11875,0.3475 -0.0337,0.11875 -0.06,0.23875 -0.0763,0.36 -0.0175,0.12125 -0.025,0.24375 -0.025,0.36625 l 0,42.28875 c 10e-4,0.1225 0.01,0.245 0.0262,0.36625 0.0163,0.12125 0.0413,0.24125 0.075,0.36 0.03,0.11875 0.07,0.235 0.1175,0.3475 0.0475,0.1125 0.1025,0.2225 0.165,0.3275 0.0613,0.10625 0.12875,0.20875 0.20375,0.30625 0.075,0.0962 0.15625,0.18875 0.2425,0.275 0.0863,0.0875 0.17875,0.1675 0.27625,0.2425 0.0962,0.075 0.19875,0.14375 0.305,0.20375 0.105,0.0625 0.215,0.1175 0.32875,0.165 0.1125,0.0463 0.22875,0.0863 0.3475,0.1175 0.1175,0.0337 0.2375,0.06 0.36,0.0762 0.12125,0.0175 0.2425,0.0263 0.365,0.025 l 0.0112,0 0.0112,0 z" />
                <path
                   id="path17795"
                   style="fill:#ffffff;fill-opacity:1;fill-rule:evenodd;stroke:#000000;stroke-width:0.27000001;stroke-linecap:butt;stroke-linejoin:bevel;stroke-miterlimit:22.9260006;stroke-opacity:1;stroke-dasharray:none"
                   d="m -606.16149,26.02078 -0.0112,0 -0.0112,0 c -0.125,-10e-4 -0.24875,-0.01 -0.37125,-0.0263 -0.12375,-0.0163 -0.24625,-0.0425 -0.36625,-0.0763 -0.12,-0.0312 -0.23875,-0.0712 -0.35375,-0.11875 -0.115,-0.0488 -0.22625,-0.105 -0.3325,-0.16875 -0.10875,-0.0613 -0.2125,-0.13125 -0.31125,-0.20625 -0.0987,-0.0763 -0.19125,-0.15875 -0.27875,-0.2475 -0.0888,-0.0875 -0.17125,-0.18125 -0.2475,-0.28 -0.0762,-0.0987 -0.145,-0.20125 -0.20625,-0.31 -0.0637,-0.1075 -0.12,-0.21875 -0.1675,-0.33375 -0.0487,-0.115 -0.0888,-0.2325 -0.12125,-0.3525 -0.0337,-0.12 -0.06,-0.2425 -0.0762,-0.36625 -0.0175,-0.1225 -0.0263,-0.2475 -0.025,-0.37125 l 0,-42.29 c 0,-0.125 0.009,-0.24875 0.0263,-0.3725 0.0163,-0.1225 0.0412,-0.245 0.075,-0.365 0.0312,-0.12125 0.0713,-0.23875 0.12,-0.35375 0.0488,-0.115 0.10375,-0.22625 0.16875,-0.3325 0.0613,-0.10875 0.13,-0.2125 0.20625,-0.31125 0.0763,-0.0987 0.15875,-0.1925 0.2475,-0.28 0.0875,-0.0888 0.18,-0.17125 0.27875,-0.24625 0.0987,-0.0763 0.2025,-0.145 0.31125,-0.2075 0.10625,-0.0625 0.21875,-0.11875 0.3325,-0.16625 0.115,-0.0487 0.23375,-0.0887 0.35375,-0.12125 0.12,-0.0337 0.2425,-0.06 0.36625,-0.0775 0.1225,-0.0175 0.24625,-0.025 0.37125,-0.0238 l 65.15,0 c 0.125,0 0.24875,0.009 0.3725,0.025 0.12375,0.0175 0.245,0.0425 0.365,0.0762 0.12125,0.0312 0.23875,0.0713 0.35375,0.12 0.115,0.0487 0.22625,0.10375 0.3325,0.1675 0.10875,0.0625 0.2125,0.13125 0.31125,0.2075 0.0987,0.0763 0.1925,0.1575 0.28,0.24625 0.0888,0.0875 0.17125,0.18125 0.24625,0.28 0.0762,0.0987 0.145,0.2025 0.2075,0.31125 0.0637,0.10625 0.11875,0.2175 0.16625,0.3325 0.0487,0.115 0.0888,0.23375 0.12125,0.35375 0.0337,0.12 0.06,0.2425 0.0775,0.365 0.0175,0.12375 0.025,0.2475 0.025,0.3725 l 0,42.29 c -10e-4,0.12375 -0.01,0.24875 -0.0263,0.37125 -0.0175,0.12375 -0.0425,0.24625 -0.0762,0.36625 -0.0312,0.12 -0.0713,0.23875 -0.12,0.3525 -0.0475,0.115 -0.10375,0.22625 -0.1675,0.33375 -0.0625,0.1075 -0.13125,0.21125 -0.2075,0.31 -0.075,0.0987 -0.1575,0.1925 -0.24625,0.28 -0.0875,0.0887 -0.18125,0.17125 -0.28,0.2475 -0.0987,0.0762 -0.2025,0.145 -0.31125,0.20625 -0.10625,0.0637 -0.2175,0.11875 -0.3325,0.1675 -0.115,0.0475 -0.23375,0.0875 -0.35375,0.12 -0.12,0.035 -0.24125,0.06 -0.365,0.0775 -0.12375,0.0175 -0.2475,0.0263 -0.3725,0.025 l -0.0112,0 -65.11625,0 z" />
                <path
                   sodipodi:nodetypes="cccsssssssssssccccsssssssssssccccssssssssssscccccccsssssssssssccc"
                   id="path17813"
                   style="fill:#003399;fill-opacity:1;fill-rule:evenodd;stroke:none"
                   d="m -606.98419,22.82098 0,0.0138 0,0.0137 c 0.002,0.04 0.004,0.08 0.009,0.12 0.006,0.03995 0.0135,0.08005 0.0225,0.11875 0.0125,0.04875 0.0263,0.09755 0.045,0.14375 0.0175,0.0462 0.0388,0.0912 0.0625,0.135 0.0238,0.04375 0.05,0.08625 0.0788,0.12625 0.03,0.0413 0.0625,0.08 0.0962,0.115 0.035,0.0363 0.0712,0.0713 0.11,0.1025 0.0388,0.0312 0.08,0.06 0.1225,0.0862 0.0425,0.0262 0.0862,0.0487 0.13125,0.07 0.0462,0.02 0.0925,0.0375 0.14125,0.0512 0.0476,0.0138 0.0963,0.0255 0.14625,0.0325 0.0488,0.0088 0.0987,0.0128 0.14875,0.0138 l 0.015,0 64.49375,0 0.0125,0 c 0.0412,0 0.0812,-0.004 0.12125,-0.009 0.04,-0.005 0.0801,-0.0125 0.11875,-0.0225 0.0487,-0.0113 0.0962,-0.0263 0.14375,-0.0438 0.0462,-0.0174 0.0913,-0.0387 0.135,-0.0637 0.0438,-0.0224 0.0863,-0.0499 0.12625,-0.0787 0.0412,-0.0287 0.08,-0.0612 0.115,-0.0962 0.0363,-0.0337 0.0713,-0.07 0.1025,-0.11 0.0313,-0.03745 0.06,-0.07875 0.0863,-0.12125 0.0263,-0.0425 0.0487,-0.0875 0.07,-0.1325 0.02,-0.045 0.0375,-0.0925 0.05,-0.14 0.0149,-0.04875 0.0257,-0.09745 0.0337,-0.14625 0.008,-0.05005 0.0127,-0.09875 0.0137,-0.14875 l 0,-0.015 -10e-5,-41.63375 -10e-4,-0.0125 c 0,-0.04125 -0.004,-0.08125 -0.009,-0.12125 -0.005,-0.04005 -0.0125,-0.08005 -0.0225,-0.11875 -0.0112,-0.04875 -0.025,-0.09625 -0.0437,-0.14375 -0.0175,-0.0462 -0.0388,-0.0912 -0.0625,-0.135 -0.0237,-0.04375 -0.05,-0.08625 -0.08,-0.12625 -0.0287,-0.0412 -0.0612,-0.0787 -0.0962,-0.115 -0.0338,-0.03625 -0.07,-0.07005 -0.10875,-0.10125 -0.0388,-0.0325 -0.08,-0.0613 -0.1225,-0.0863 -0.0425,-0.0262 -0.0862,-0.05 -0.13125,-0.07 -0.0462,-0.0212 -0.0937,-0.0387 -0.14125,-0.0512 -0.0476,-0.015 -0.0963,-0.0267 -0.14625,-0.0337 -0.0488,-0.0078 -0.0987,-0.0128 -0.14875,-0.0138 l -0.015,0 -64.48,0 m -1.1425,42.7475 -1e-4,-41.60505 0,-0.0138 0,-0.0162 c 0.001,-0.0487 0.005,-0.0987 0.0137,-0.14875 0.008,-0.0487 0.0188,-0.0975 0.0325,-0.145 0.0138,-0.0487 0.0312,-0.095 0.0513,-0.14125 0.02,-0.045 0.0438,-0.0888 0.07,-0.13125 0.0263,-0.0438 0.055,-0.0838 0.0863,-0.1225 0.0312,-0.0388 0.065,-0.0763 0.1025,-0.11 0.035,-0.035 0.0738,-0.0662 0.11375,-0.095 0.0412,-0.03 0.0838,-0.0563 0.1275,-0.08 0.0438,-0.0238 0.0888,-0.045 0.135,-0.0638 0.0463,-0.0175 0.095,-0.0325 0.14375,-0.0437 0.0387,-0.009 0.0788,-0.0162 0.11875,-0.0225 0.04,-0.005 0.08,-0.007 0.12,-0.009 l 0.0137,0 0.0138,0" />
              </g>
            </g>
          </g>
        </g>
      </g>
    </g>
    <path
       id="path17787"
       style="fill:#ffffff;fill-opacity:1;fill-rule:evenodd;stroke:none"
       d="m -530.50067,18.476908 -2.02,6.03625 -0.006,0.0162 -0.005,0.0163 c -0.0163,0.055 -0.0288,0.11125 -0.0362,0.1675 -0.008,0.0575 -0.01,0.11375 -0.008,0.17125 10e-4,0.0563 0.008,0.11375 0.0175,0.17 0.0125,0.055 0.0275,0.11125 0.0487,0.165 0.02,0.055 0.0438,0.10875 0.0725,0.16 0.0288,0.0525 0.0625,0.1025 0.1,0.15125 0.0362,0.0487 0.0775,0.095 0.12125,0.14 0.045,0.0437 0.0937,0.085 0.145,0.125 0.0512,0.0387 0.105,0.075 0.1625,0.10875 0.0575,0.0338 0.1175,0.0638 0.18,0.0913 0.0613,0.0275 0.12625,0.0513 0.1925,0.0713 0.0663,0.02 0.13375,0.0375 0.2025,0.05 0.0688,0.0138 0.13875,0.0238 0.20875,0.03 0.0713,0.005 0.14125,0.007 0.2125,0.005 0.0712,0 0.14125,-0.005 0.21125,-0.0137 0.07,-0.01 0.14,-0.0225 0.2075,-0.0387 0.0538,-0.0125 0.1075,-0.0275 0.15875,-0.0438 0.0525,-0.0175 0.1025,-0.0375 0.15125,-0.0588 0.006,-0.002 0.0112,-0.005 0.0175,-0.007 l 0.0163,-0.007 23.44375,-10.7625 -23.44375,-10.7612503 -0.0175,-0.009 -0.0188,-0.009 c -0.0625,-0.0263 -0.12625,-0.05 -0.1925,-0.07 -0.0675,-0.0212 -0.135,-0.0375 -0.20375,-0.05 -0.0688,-0.0138 -0.13875,-0.0238 -0.20875,-0.0288 -0.0712,-0.006 -0.1425,-0.007 -0.2125,-0.005 -0.0712,0.001 -0.14125,0.006 -0.21125,0.0162 -0.07,0.009 -0.14,0.0213 -0.2075,0.0375 -0.0675,0.0163 -0.13375,0.0363 -0.19875,0.06 -0.065,0.0238 -0.12625,0.05 -0.1875,0.08 -0.06,0.03 -0.1175,0.0625 -0.1725,0.0987 -0.055,0.0362 -0.10625,0.075 -0.155,0.11625 -0.0488,0.0412 -0.0937,0.0863 -0.135,0.13125 -0.0412,0.0462 -0.0787,0.095 -0.1125,0.145 -0.0337,0.05 -0.0638,0.1025 -0.0888,0.155 -0.025,0.0537 -0.045,0.1075 -0.0612,0.16375 -0.0163,0.055 -0.0288,0.11125 -0.0362,0.1675 -0.006,0.0575 -0.009,0.11375 -0.006,0.17125 10e-4,0.045 0.006,0.09 0.0137,0.135 0.008,0.0437 0.0175,0.0888 0.0312,0.1325 l 0.005,0.015 0.005,0.015 2.02,6.0350003 -27.31,0 -0.0538,10e-4 c -0.0175,0 -0.035,0 -0.0525,0 -0.1775,0.002 -0.35375,0.015 -0.52875,0.0375 -0.175,0.0212 -0.3475,0.0537 -0.5175,0.095 -0.17,0.0387 -0.33625,0.0875 -0.49875,0.14625 -0.16125,0.0575 -0.31875,0.125 -0.4675,0.2 -0.1525,0.0737 -0.2975,0.15625 -0.435,0.245 -0.1375,0.09 -0.2675,0.18625 -0.38875,0.29 -0.1225,0.1025 -0.23625,0.21125 -0.34,0.32625 -0.105,0.11625 -0.19875,0.23625 -0.2825,0.36125 -0.085,0.125 -0.16,0.25375 -0.22375,0.3875 -0.0625,0.1325 -0.115,0.26875 -0.155,0.4075 -0.0337,0.10625 -0.0587,0.21375 -0.0775,0.32375 -0.0187,0.10875 -0.03,0.21875 -0.0325,0.3275 0,0.0138 -10e-4,0.0263 -10e-4,0.0387 l -0.001,0.0388 0,0.0425 c 0,0.015 0,0.0288 0,0.0437 0.002,0.14125 0.0163,0.28375 0.0425,0.42375 0.025,0.14125 0.0638,0.28 0.11375,0.41625 0.0462,0.1375 0.10625,0.2725 0.17625,0.4025 0.0712,0.13 0.1525,0.25625 0.245,0.37875 0.09,0.12125 0.19125,0.23875 0.30125,0.35125 0.11,0.11125 0.22875,0.21625 0.3575,0.31375 0.12625,0.1 0.26125,0.1925 0.40375,0.2775 0.1425,0.0838 0.29125,0.16125 0.44625,0.22875 0.155,0.07 0.315,0.13125 0.48,0.18375 0.165,0.0525 0.33375,0.095 0.505,0.12875 0.145,0.03 0.2925,0.0537 0.44125,0.07 0.14875,0.0162 0.2975,0.025 0.4475,0.0263 0.0162,0.001 0.0312,0.001 0.0475,0.001 l 0.0488,0 27.31,0" />
  </g>
</svg>
