<?xml version="1.0" encoding="UTF-8" standalone="no"?>
<!-- Created with Inkscape (http://www.inkscape.org/) -->

<svg
   xmlns:dc="http://purl.org/dc/elements/1.1/"
   xmlns:cc="http://creativecommons.org/ns#"
   xmlns:rdf="http://www.w3.org/1999/02/22-rdf-syntax-ns#"
   xmlns:svg="http://www.w3.org/2000/svg"
   xmlns="http://www.w3.org/2000/svg"
   xmlns:sodipodi="http://sodipodi.sourceforge.net/DTD/sodipodi-0.dtd"
   xmlns:inkscape="http://www.inkscape.org/namespaces/inkscape"
   width="71.135574"
   height="48.275074"
   id="svg20875"
   version="1.1"
   inkscape:version="0.47 r22583"
   sodipodi:docname="E.1 Erlaubnis zur Durchfahrt.svg">
  <defs
     id="defs20877" />
  <sodipodi:namedview
     id="base"
     pagecolor="#ffffff"
     bordercolor="#666666"
     borderopacity="1.0"
     inkscape:pageopacity="0.0"
     inkscape:pageshadow="2"
     inkscape:zoom="10.833748"
     inkscape:cx="35.567787"
     inkscape:cy="24.137537"
     inkscape:document-units="px"
     inkscape:current-layer="layer1"
     showgrid="false"
     inkscape:window-width="1280"
     inkscape:window-height="748"
     inkscape:window-x="-8"
     inkscape:window-y="-8"
     inkscape:window-maximized="1" />
  <metadata
     id="metadata20880">
    <rdf:RDF>
      <cc:Work
         rdf:about="">
        <dc:format>image/svg+xml</dc:format>
        <dc:type
           rdf:resource="http://purl.org/dc/dcmitype/StillImage" />
        <dc:title />
      </cc:Work>
    </rdf:RDF>
  </metadata>
  <g
     inkscape:label="Ebene 1"
     inkscape:groupmode="layer"
     id="layer1"
     transform="translate(-2297.884,-1222.679)">
    <path
       style="fill:#ffffff;fill-opacity:1;fill-rule:nonzero;stroke:none"
       d="m 2320.1733,1222.7856 26.8256,0 0,48.038 -26.8256,0 0,-48.038 z"
       id="rect2818" />
    <path
       id="path18119"
       style="fill:#009933;fill-opacity:1;fill-rule:evenodd;stroke:none"
       d="m 2300.2111,1222.814 17.3651,0 c 1.1935,0 2.1705,1.5475 2.1705,3.4402 l 0,41.0741 c 0,1.8914 -0.977,3.439 -2.1705,3.439 l -17.3651,0 c -1.1934,0 -2.1705,-1.5476 -2.1705,-3.439 l 0,-41.0741 c 0,-1.8927 0.9771,-3.4402 2.1705,-3.4402" />
    <path
       id="path18123"
       style="fill:#009933;fill-opacity:1;fill-rule:evenodd;stroke:none"
       d="m 2349.7136,1222.814 16.9474,0 c 1.1647,0 2.1183,1.55 2.1183,3.4437 l 0,41.1175 c 0,1.8938 -0.9536,3.4438 -2.1183,3.4438 l -16.9474,0 c -1.1647,0 -2.1183,-1.55 -2.1183,-3.4438 l 0,-41.1175 c 0,-1.8937 0.9536,-3.4437 2.1183,-3.4437" />
    <path
       d="m 2346.5243,1222.7625 0,48.1092 11.0208,0 0,-48.1092 -11.0208,0 z"
       style="fill:#009933;fill-opacity:1;fill-rule:nonzero;stroke:none"
       id="path18129" />
    <path
       d="m 2309.2481,1222.8672 0,47.946 11.0764,0 0,-47.946 -11.0764,0 z"
       style="fill:#009933;fill-opacity:1;fill-rule:nonzero;stroke:none"
       id="path18131" />
    <path
       id="path18127"
       style="fill:none;stroke:#000000;stroke-width:0.27000001000000001;stroke-linecap:butt;stroke-linejoin:bevel;stroke-miterlimit:22.92600059999999800;stroke-opacity:1;stroke-dasharray:none"
       d="m 2300.8993,1270.819 -0.023,0 c -0.125,-10e-4 -0.2487,-0.01 -0.3725,-0.026 -0.1225,-0.016 -0.245,-0.041 -0.365,-0.076 -0.1212,-0.031 -0.2387,-0.071 -0.3537,-0.1188 -0.115,-0.049 -0.2263,-0.105 -0.3325,-0.1687 -0.1088,-0.061 -0.2125,-0.1313 -0.3113,-0.2063 -0.099,-0.076 -0.1925,-0.1587 -0.28,-0.2475 -0.089,-0.088 -0.1712,-0.18 -0.2462,-0.28 -0.076,-0.098 -0.145,-0.2012 -0.2075,-0.31 -0.062,-0.1075 -0.1188,-0.2187 -0.1663,-0.3337 -0.049,-0.115 -0.089,-0.2325 -0.1212,-0.3525 -0.034,-0.12 -0.06,-0.2425 -0.076,-0.3663 -0.017,-0.1225 -0.026,-0.2475 -0.025,-0.3712 l 0,-42.29 c 0,-0.1238 0.01,-0.2488 0.025,-0.3713 0.017,-0.1237 0.043,-0.245 0.076,-0.365 0.031,-0.1212 0.071,-0.24 0.12,-0.3537 0.048,-0.115 0.1037,-0.2263 0.1675,-0.3338 0.062,-0.1075 0.1312,-0.2112 0.2075,-0.31 0.076,-0.099 0.1575,-0.1925 0.2462,-0.28 0.088,-0.089 0.1813,-0.1712 0.28,-0.2462 0.099,-0.076 0.2025,-0.1463 0.3113,-0.2075 0.1062,-0.064 0.2187,-0.1188 0.3325,-0.1675 0.115,-0.047 0.2337,-0.087 0.3537,-0.12 0.12,-0.034 0.2425,-0.06 0.3663,-0.078 0.1225,-0.017 0.2462,-0.025 0.3712,-0.025 l 65.15,0 c 0.125,10e-4 0.2488,0.01 0.3725,0.026 0.1238,0.016 0.2463,0.043 0.365,0.076 0.1213,0.031 0.2388,0.071 0.355,0.12 0.1138,0.048 0.225,0.1037 0.3325,0.1675 0.1075,0.061 0.2113,0.1312 0.31,0.2075 0.099,0.075 0.1925,0.1575 0.28,0.2462 0.089,0.088 0.1713,0.1813 0.2475,0.28 0.075,0.099 0.1438,0.2025 0.2063,0.31 0.064,0.1075 0.1187,0.2188 0.1675,0.3338 0.047,0.115 0.087,0.2325 0.12,0.3537 0.034,0.12 0.06,0.2413 0.077,0.365 0.017,0.1225 0.025,0.2475 0.025,0.3713 l 0,42.29 c 0,0.1237 -0.01,0.2487 -0.026,0.3712 -0.016,0.1238 -0.043,0.2463 -0.076,0.3663 -0.031,0.12 -0.071,0.2387 -0.12,0.3537 -0.048,0.1138 -0.1038,0.225 -0.1675,0.3325 -0.062,0.1088 -0.1313,0.2125 -0.2063,0.31 -0.076,0.1 -0.1587,0.1925 -0.2475,0.28 -0.088,0.089 -0.1812,0.1713 -0.28,0.2475 -0.099,0.076 -0.2025,0.145 -0.31,0.2063 -0.1075,0.064 -0.2187,0.1187 -0.3337,0.1675 -0.115,0.047 -0.2325,0.089 -0.3538,0.12 -0.1187,0.035 -0.2412,0.06 -0.365,0.078 -0.1237,0.017 -0.2475,0.026 -0.3725,0.025 l -65.1275,0 z" />
  </g>
</svg>
