<?xml version="1.0" encoding="UTF-8" standalone="no"?>
<!-- Created with Inkscape (http://www.inkscape.org/) -->

<svg
   xmlns:dc="http://purl.org/dc/elements/1.1/"
   xmlns:cc="http://creativecommons.org/ns#"
   xmlns:rdf="http://www.w3.org/1999/02/22-rdf-syntax-ns#"
   xmlns:svg="http://www.w3.org/2000/svg"
   xmlns="http://www.w3.org/2000/svg"
   xmlns:sodipodi="http://sodipodi.sourceforge.net/DTD/sodipodi-0.dtd"
   xmlns:inkscape="http://www.inkscape.org/namespaces/inkscape"
   width="71.136383"
   height="71.136383"
   id="svg3649"
   version="1.1"
   inkscape:version="0.47 r22583"
   sodipodi:docname="E.10a Nebenwasserstraße.svg">
  <defs
     id="defs3651">
    <inkscape:perspective
       sodipodi:type="inkscape:persp3d"
       inkscape:vp_x="0 : 526.18109 : 1"
       inkscape:vp_y="0 : 1000 : 0"
       inkscape:vp_z="744.09448 : 526.18109 : 1"
       inkscape:persp3d-origin="372.04724 : 350.78739 : 1"
       id="perspective3657" />
    <inkscape:perspective
       id="perspective3641"
       inkscape:persp3d-origin="0.5 : 0.33333333 : 1"
       inkscape:vp_z="1 : 0.5 : 1"
       inkscape:vp_y="0 : 1000 : 0"
       inkscape:vp_x="0 : 0.5 : 1"
       sodipodi:type="inkscape:persp3d" />
  </defs>
  <sodipodi:namedview
     id="base"
     pagecolor="#ffffff"
     bordercolor="#666666"
     borderopacity="1.0"
     inkscape:pageopacity="0.0"
     inkscape:pageshadow="2"
     inkscape:zoom="7.0428096"
     inkscape:cx="35.568192"
     inkscape:cy="35.568192"
     inkscape:document-units="px"
     inkscape:current-layer="layer1"
     showgrid="false"
     inkscape:window-width="1280"
     inkscape:window-height="748"
     inkscape:window-x="-8"
     inkscape:window-y="-8"
     inkscape:window-maximized="1" />
  <metadata
     id="metadata3654">
    <rdf:RDF>
      <cc:Work
         rdf:about="">
        <dc:format>image/svg+xml</dc:format>
        <dc:type
           rdf:resource="http://purl.org/dc/dcmitype/StillImage" />
        <dc:title></dc:title>
      </cc:Work>
    </rdf:RDF>
  </metadata>
  <g
     inkscape:label="Ebene 1"
     inkscape:groupmode="layer"
     id="layer1"
     transform="translate(-314.43181,-496.79399)">
    <g
       id="g4101"
       transform="matrix(0,1.25,1.25,0,382.77556,496.92912)"
       style="stroke:#000000;fill:#003399;fill-opacity:1">
      <path
         d="M 0,0 0,0.017 C 0.001,0.109 0.007,0.2 0.019,0.291 0.031,0.382 0.05,0.473 0.075,0.561 0.098,0.65 0.128,0.737 0.164,0.822 0.199,0.906 0.241,0.989 0.288,1.068 0.333,1.147 0.384,1.224 0.441,1.297 0.496,1.37 0.557,1.439 0.623,1.503 0.687,1.569 0.756,1.63 0.829,1.686 c 0.073,0.056 0.15,0.107 0.229,0.152 0.079,0.047 0.161,0.088 0.246,0.124 0.085,0.035 0.172,0.065 0.261,0.089 0.088,0.025 0.179,0.044 0.27,0.057 0.091,0.013 0.182,0.019 0.274,0.018 l 52.475,0 c 0.092,-10e-4 0.183,-0.007 0.274,-0.019 0.091,-0.012 0.181,-0.031 0.27,-0.056 0.089,-0.023 0.176,-0.053 0.261,-0.089 0.084,-0.035 0.167,-0.077 0.245,-0.124 0.08,-0.045 0.157,-0.096 0.23,-0.153 C 55.937,1.63 56.006,1.569 56.07,1.503 56.136,1.439 56.197,1.37 56.252,1.297 56.309,1.224 56.36,1.147 56.405,1.068 56.452,0.989 56.493,0.906 56.528,0.822 56.564,0.737 56.594,0.65 56.618,0.561 56.642,0.473 56.661,0.382 56.674,0.291 56.687,0.2 56.693,0.109 56.693,0.017 l 0,-52.475 c -10e-4,-0.091 -0.007,-0.183 -0.02,-0.274 -0.012,-0.091 -0.031,-0.182 -0.055,-0.27 -0.023,-0.089 -0.053,-0.176 -0.088,-0.261 -0.036,-0.084 -0.077,-0.167 -0.125,-0.245 -0.045,-0.08 -0.096,-0.157 -0.153,-0.23 -0.055,-0.073 -0.116,-0.142 -0.182,-0.206 -0.064,-0.066 -0.133,-0.127 -0.206,-0.182 -0.073,-0.057 -0.15,-0.108 -0.23,-0.153 -0.079,-0.047 -0.161,-0.088 -0.246,-0.124 -0.084,-0.035 -0.171,-0.065 -0.26,-0.089 -0.089,-0.024 -0.179,-0.043 -0.27,-0.056 -0.091,-0.013 -0.182,-0.019 -0.274,-0.019 l -52.475,0 c -0.092,10e-4 -0.183,0.007 -0.274,0.02 -0.091,0.012 -0.182,0.031 -0.27,0.055 -0.089,0.023 -0.176,0.053 -0.261,0.088 -0.085,0.036 -0.167,0.077 -0.246,0.125 -0.079,0.045 -0.156,0.096 -0.229,0.153 -0.073,0.055 -0.142,0.116 -0.206,0.182 -0.066,0.064 -0.127,0.133 -0.183,0.206 -0.056,0.073 -0.107,0.15 -0.152,0.23 -0.047,0.079 -0.088,0.161 -0.124,0.246 -0.035,0.084 -0.065,0.171 -0.089,0.26 -0.025,0.088 -0.044,0.179 -0.057,0.27 -0.013,0.091 -0.019,0.183 -0.018,0.274 L 0,0 z"
         style="fill:#003399;fill-opacity:1;fill-rule:evenodd;stroke:#000000;stroke-width:0.21600000999999999;stroke-linecap:butt;stroke-linejoin:bevel;stroke-miterlimit:22.92600059999999800;stroke-opacity:1;stroke-dasharray:none"
         id="path4103" />
    </g>
    <path
       d="m 314.56681,525.90537 0,10.62987 70.86625,0 0,-10.62987 -70.86625,0 z"
       style="fill:#ffffff;fill-opacity:1;fill-rule:nonzero;stroke:none"
       id="path4105" />
    <path
       d="m 347.42181,496.92912 0,70.86625 4.48437,0 0,-70.86625 -4.48437,0 z"
       style="fill:#ffffff;fill-opacity:1;fill-rule:nonzero;stroke:none"
       id="path4107" />
  </g>
</svg>
