<?xml version="1.0" encoding="UTF-8" standalone="no"?>
<!-- Created with Inkscape (http://www.inkscape.org/) -->

<svg
   xmlns:dc="http://purl.org/dc/elements/1.1/"
   xmlns:cc="http://creativecommons.org/ns#"
   xmlns:rdf="http://www.w3.org/1999/02/22-rdf-syntax-ns#"
   xmlns:svg="http://www.w3.org/2000/svg"
   xmlns="http://www.w3.org/2000/svg"
   xmlns:sodipodi="http://sodipodi.sourceforge.net/DTD/sodipodi-0.dtd"
   xmlns:inkscape="http://www.inkscape.org/namespaces/inkscape"
   width="71.136345"
   height="71.136421"
   id="svg4021"
   version="1.1"
   inkscape:version="0.47 r22583"
   sodipodi:docname="Neues Dokument 2">
  <defs
     id="defs4023" />
  <sodipodi:namedview
     id="base"
     pagecolor="#ffffff"
     bordercolor="#666666"
     borderopacity="1.0"
     inkscape:pageopacity="0.0"
     inkscape:pageshadow="2"
     inkscape:zoom="7.0428058"
     inkscape:cx="35.56875"
     inkscape:cy="36.529233"
     inkscape:document-units="px"
     inkscape:current-layer="layer1"
     showgrid="false"
     inkscape:window-width="1280"
     inkscape:window-height="748"
     inkscape:window-x="-8"
     inkscape:window-y="-8"
     inkscape:window-maximized="1" />
  <metadata
     id="metadata4026">
    <rdf:RDF>
      <cc:Work
         rdf:about="">
        <dc:format>image/svg+xml</dc:format>
        <dc:type
           rdf:resource="http://purl.org/dc/dcmitype/StillImage" />
        <dc:title></dc:title>
      </cc:Work>
    </rdf:RDF>
  </metadata>
  <g
     inkscape:label="Ebene 1"
     inkscape:groupmode="layer"
     id="layer1"
     transform="translate(146.99732,-242.50825)">
    <g
       id="g4573"
       transform="matrix(0,1.25,1.25,0,-142.60982,313.44209)"
       style="fill:#ffffff;stroke:#000000">
      <path
         d="m 0,0 0,49.89 0,0.013 0,0.013 c -0.001,0.145 -0.011,0.289 -0.031,0.432 -0.019,0.144 -0.048,0.286 -0.088,0.425 -0.036,0.14 -0.083,0.278 -0.139,0.411 -0.056,0.133 -0.121,0.263 -0.195,0.387 -0.072,0.126 -0.152,0.246 -0.241,0.361 -0.088,0.114 -0.184,0.223 -0.286,0.325 -0.102,0.103 -0.211,0.199 -0.325,0.287 -0.115,0.088 -0.236,0.168 -0.361,0.24 -0.125,0.074 -0.254,0.138 -0.388,0.194 -0.133,0.056 -0.271,0.103 -0.41,0.14 -0.14,0.04 -0.282,0.07 -0.425,0.09 -0.144,0.02 -0.288,0.03 -0.432,0.029 l -49.943,0 c -0.144,-0.001 -0.289,-0.011 -0.432,-0.03 -0.144,-0.019 -0.285,-0.049 -0.425,-0.089 -0.14,-0.036 -0.277,-0.082 -0.41,-0.138 -0.134,-0.057 -0.263,-0.122 -0.388,-0.196 -0.125,-0.072 -0.246,-0.152 -0.361,-0.24 -0.114,-0.088 -0.223,-0.184 -0.324,-0.287 -0.104,-0.102 -0.199,-0.211 -0.288,-0.325 -0.088,-0.115 -0.168,-0.235 -0.24,-0.361 -0.073,-0.125 -0.138,-0.254 -0.194,-0.388 -0.056,-0.133 -0.103,-0.27 -0.14,-0.41 -0.04,-0.139 -0.07,-0.281 -0.09,-0.425 -0.02,-0.143 -0.03,-0.288 -0.029,-0.432 l 0,-49.942 c 10e-4,-0.145 0.011,-0.289 0.03,-0.433 0.02,-0.143 0.049,-0.285 0.089,-0.424 0.036,-0.141 0.082,-0.278 0.138,-0.411 0.057,-0.134 0.122,-0.263 0.196,-0.388 0.072,-0.125 0.152,-0.246 0.24,-0.36 0.089,-0.115 0.184,-0.224 0.288,-0.325 0.101,-0.103 0.21,-0.199 0.324,-0.287 0.115,-0.089 0.236,-0.169 0.361,-0.241 0.125,-0.073 0.255,-0.138 0.388,-0.194 0.133,-0.056 0.271,-0.102 0.41,-0.14 0.14,-0.039 0.282,-0.069 0.425,-0.09 0.143,-0.02 0.288,-0.03 0.432,-0.028 l 0.014,0 0.013,-10e-4 49.889,0 0.013,10e-4 0.014,0 c 0.144,0 0.288,0.01 0.432,0.03 0.143,0.019 0.285,0.049 0.425,0.088 0.14,0.036 0.277,0.083 0.41,0.139 0.134,0.056 0.263,0.121 0.388,0.195 0.125,0.072 0.246,0.153 0.36,0.241 0.115,0.088 0.224,0.184 0.326,0.287 0.102,0.101 0.198,0.21 0.287,0.325 0.088,0.114 0.168,0.235 0.24,0.36 0.073,0.125 0.138,0.255 0.194,0.388 0.056,0.134 0.103,0.271 0.14,0.411 0.04,0.139 0.07,0.281 0.09,0.425 0.02,0.143 0.03,0.287 0.029,0.432 L 0,-0.013 0,0 z"
         style="fill:#ffffff;stroke:#000000;stroke-width:0.21600001;stroke-linecap:butt;stroke-linejoin:bevel;stroke-miterlimit:22.9260006;stroke-opacity:1;stroke-dasharray:none"
         id="path4575" />
      <g
         id="g4577"
         transform="translate(0.054,0)"
         style="fill:#ffffff;stroke:#000000">
        <path
           d="M 0,0 0,-0.027 C -0.001,-0.174 -0.011,-0.32 -0.031,-0.466 -0.05,-0.612 -0.081,-0.756 -0.121,-0.898 -0.157,-1.04 -0.205,-1.18 -0.262,-1.315 -0.319,-1.451 -0.385,-1.582 -0.46,-1.708 -0.533,-1.836 -0.615,-1.958 -0.705,-2.075 -0.794,-2.192 -0.892,-2.302 -0.996,-2.405 -1.1,-2.51 -1.21,-2.608 -1.326,-2.697 c -0.117,-0.09 -0.239,-0.171 -0.367,-0.245 -0.127,-0.074 -0.258,-0.14 -0.394,-0.197 -0.136,-0.056 -0.275,-0.104 -0.417,-0.142 -0.142,-0.04 -0.286,-0.071 -0.432,-0.091 -0.145,-0.021 -0.292,-0.03 -0.439,-0.03 l -49.943,0 c -0.147,0.001 -0.294,0.012 -0.439,0.031 -0.146,0.02 -0.29,0.05 -0.432,0.09 -0.142,0.037 -0.282,0.084 -0.418,0.141 -0.135,0.057 -0.266,0.123 -0.393,0.198 -0.127,0.074 -0.25,0.156 -0.366,0.245 -0.117,0.09 -0.227,0.187 -0.331,0.292 -0.104,0.103 -0.202,0.213 -0.291,0.33 -0.09,0.116 -0.172,0.239 -0.245,0.367 -0.074,0.126 -0.14,0.258 -0.197,0.393 -0.057,0.136 -0.104,0.275 -0.142,0.417 -0.041,0.142 -0.071,0.286 -0.092,0.432 -0.02,0.146 -0.03,0.292 -0.029,0.439 l 0,49.943 c 10e-4,0.147 0.011,0.294 0.031,0.44 0.02,0.145 0.05,0.289 0.09,0.431 0.036,0.142 0.084,0.282 0.141,0.418 0.057,0.135 0.123,0.267 0.198,0.393 0.073,0.127 0.155,0.25 0.245,0.367 0.089,0.116 0.187,0.227 0.291,0.33 0.104,0.105 0.214,0.202 0.331,0.292 0.116,0.089 0.239,0.171 0.366,0.244 0.127,0.075 0.258,0.141 0.394,0.197 0.136,0.057 0.275,0.105 0.417,0.143 0.142,0.04 0.286,0.07 0.432,0.091 0.145,0.021 0.292,0.03 0.439,0.029 l 49.943,0 c 0.147,-10e-4 0.294,-0.011 0.439,-0.031 0.146,-0.019 0.29,-0.049 0.432,-0.089 0.142,-0.037 0.282,-0.084 0.417,-0.142 0.136,-0.057 0.267,-0.123 0.394,-0.198 0.127,-0.073 0.25,-0.155 0.367,-0.244 0.116,-0.09 0.226,-0.187 0.33,-0.292 0.104,-0.103 0.202,-0.214 0.292,-0.33 0.089,-0.117 0.171,-0.239 0.244,-0.367 0.074,-0.127 0.14,-0.258 0.197,-0.394 0.057,-0.135 0.104,-0.275 0.142,-0.417 0.04,-0.142 0.071,-0.286 0.092,-0.432 C -0.009,50.21 0.001,50.063 0,49.916 L 0,0 z"
           style="fill:#ffffff;stroke:#000000;stroke-width:0.21600001;stroke-linecap:butt;stroke-linejoin:bevel;stroke-miterlimit:22.9260006;stroke-opacity:1;stroke-dasharray:none"
           id="path4579" />
      </g>
    </g>
    <g
       id="g4569"
       transform="matrix(0,1.25,1.25,0,-142.60982,310.47334)"
       style="fill:#003399;fill-opacity:1">
      <path
         d="m 0,0 0,-0.008 c 0,-0.042 -0.003,-0.084 -0.009,-0.125 -0.005,-0.042 -0.014,-0.083 -0.026,-0.124 -0.01,-0.04 -0.024,-0.08 -0.04,-0.119 -0.016,-0.038 -0.035,-0.076 -0.057,-0.112 -0.02,-0.037 -0.044,-0.072 -0.07,-0.105 -0.025,-0.033 -0.053,-0.065 -0.083,-0.094 -0.029,-0.03 -0.061,-0.058 -0.094,-0.084 -0.033,-0.025 -0.068,-0.049 -0.105,-0.069 -0.036,-0.022 -0.074,-0.04 -0.112,-0.057 -0.039,-0.016 -0.079,-0.03 -0.119,-0.04 -0.041,-0.012 -0.082,-0.021 -0.124,-0.027 -0.041,-0.005 -0.083,-0.008 -0.125,-0.008 l -0.008,0 -49.89,0 -0.007,0 c -0.042,0 -0.084,0.003 -0.126,0.009 -0.041,0.005 -0.083,0.014 -0.123,0.026 -0.041,0.01 -0.081,0.024 -0.119,0.04 -0.039,0.016 -0.077,0.035 -0.113,0.057 -0.036,0.02 -0.071,0.044 -0.105,0.069 -0.033,0.026 -0.064,0.054 -0.094,0.084 -0.03,0.029 -0.058,0.061 -0.083,0.094 -0.026,0.033 -0.049,0.068 -0.07,0.105 -0.021,0.036 -0.04,0.074 -0.057,0.112 -0.016,0.039 -0.029,0.079 -0.04,0.119 -0.012,0.041 -0.02,0.082 -0.026,0.124 -0.006,0.041 -0.009,0.083 -0.008,0.125 l 0,49.905 c 0,0.042 0.002,0.084 0.008,0.126 0.006,0.041 0.014,0.083 0.026,0.123 0.01,0.041 0.024,0.081 0.04,0.119 0.017,0.039 0.036,0.077 0.057,0.113 0.021,0.036 0.044,0.071 0.07,0.104 0.025,0.034 0.053,0.065 0.083,0.095 0.03,0.03 0.061,0.058 0.094,0.083 0.034,0.026 0.069,0.049 0.105,0.07 0.036,0.021 0.074,0.04 0.113,0.057 0.038,0.016 0.078,0.029 0.119,0.04 0.04,0.012 0.082,0.02 0.123,0.026 0.042,0.006 0.084,0.009 0.126,0.008 l 49.905,0 c 0.042,0 0.084,-0.002 0.125,-0.008 0.042,-0.006 0.083,-0.014 0.124,-0.026 0.04,-0.01 0.08,-0.024 0.119,-0.04 0.038,-0.017 0.076,-0.036 0.112,-0.057 0.037,-0.021 0.072,-0.044 0.105,-0.07 0.033,-0.025 0.065,-0.053 0.094,-0.083 0.03,-0.03 0.058,-0.061 0.084,-0.095 0.025,-0.033 0.049,-0.068 0.069,-0.104 0.022,-0.036 0.04,-0.074 0.057,-0.113 0.016,-0.038 0.03,-0.078 0.04,-0.119 0.012,-0.04 0.021,-0.082 0.027,-0.123 C -0.003,49.981 0,49.939 0,49.897 L 0,49.89 0,0"
         style="fill:#003399;fill-opacity:1;fill-rule:evenodd;stroke:none"
         id="path4571" />
    </g>
    <g
       style="font-size:25.94532585px;font-style:normal;font-variant:normal;font-weight:normal;font-stretch:normal;text-align:start;line-height:125%;writing-mode:lr-tb;text-anchor:start;fill:#ffffff;fill-opacity:1;stroke:none;font-family:DIN 1451 Mittelschrift;-inkscape-font-specification:DIN 1451 Mittelschrift"
       id="text4832">
      <path
         d="m -137.64044,272.29985 0,-12.21255 2.79977,0 0,11.89583 c -1e-5,1.27531 0.36105,2.24869 1.08316,2.92012 0.72211,0.67144 1.61525,1.00716 2.67942,1.00715 1.06415,1e-5 1.95729,-0.33571 2.67941,-1.00715 0.7221,-0.67143 1.08315,-1.64481 1.08316,-2.92012 l 0,-11.89583 2.79977,0 0,12.21255 c -2e-5,1.92563 -0.63767,3.47331 -1.91296,4.64305 -1.27532,1.16973 -2.82511,1.7546 -4.64938,1.7546 -1.83274,0 -3.38464,-0.58487 -4.65572,-1.7546 -1.27109,-1.16974 -1.90663,-2.71742 -1.90663,-4.64305 z"
         style=""
         id="path4846" />
      <path
         d="m -120.9432,278.54548 0,-18.45818 2.79976,0 0,9.51413 0.0633,0 7.5885,-9.51413 3.33184,0 -5.91624,7.28446 6.537,11.17372 -3.31917,0 -5.04211,-9.02006 -3.24317,3.39519 0,5.62487 z"
         style=""
         id="path4848" />
      <path
         d="m -101.61089,278.54548 -4.62405,-18.45818 2.96446,0 2.90111,13.12469 0.0507,0 3.585223,-13.12469 2.01431,0 3.585218,13.12469 0.05067,0 2.901114,-13.12469 2.964456,0 -4.624045,18.45818 -2.331026,0 -3.534543,-13.30205 -0.05067,0 -3.521875,13.30205 z"
         style=""
         id="path4850" />
    </g>
    <g
       style="font-size:25.94499969px;font-style:normal;font-variant:normal;font-weight:normal;font-stretch:normal;text-align:start;line-height:125%;writing-mode:lr-tb;text-anchor:start;fill:#ffffff;fill-opacity:1;stroke:none;font-family:DIN 1451 Mittelschrift;-inkscape-font-specification:DIN 1451 Mittelschrift"
       id="text4836">
      <path
         d="m -118.25111,303.89812 0,-15.69622 -2.63504,1.9256 0,-2.81239 2.63504,-1.91294 2.66037,0 0,18.49595 z"
         style=""
         id="path4841" />
      <path
         d="m -110.24465,290.53289 c 0,0.86992 0.27237,1.52868 0.81712,1.97628 0.54474,0.44763 1.15493,0.67144 1.83059,0.67143 0.67564,10e-6 1.28584,-0.2238 1.83059,-0.67143 0.54474,-0.4476 0.81711,-1.10636 0.81712,-1.97628 -1e-5,-0.86144 -0.27238,-1.51808 -0.81712,-1.96994 -0.54475,-0.45183 -1.15495,-0.67775 -1.83059,-0.67776 -0.67566,10e-6 -1.28585,0.22593 -1.83059,0.67776 -0.54475,0.45186 -0.81712,1.1085 -0.81712,1.96994 z m -2.97709,7.94313 c 0,-1.79892 0.72633,-3.184 2.17898,-4.15526 -0.54897,-0.48983 -0.99448,-1.03247 -1.33652,-1.62789 -0.34205,-0.59541 -0.51308,-1.29851 -0.51308,-2.1093 0,-1.48642 0.50885,-2.74904 1.52655,-3.78787 1.0177,-1.0388 2.27399,-1.5582 3.76887,-1.55822 1.49487,2e-5 2.75116,0.51942 3.76886,1.55822 1.01769,1.03883 1.52654,2.30145 1.52655,3.78787 -1e-5,0.81079 -0.17314,1.51389 -0.5194,2.1093 -0.34628,0.59542 -0.78546,1.13806 -1.31752,1.62789 1.44419,0.97971 2.16629,2.36479 2.1663,4.15526 -1e-5,1.63845 -0.55531,2.97075 -1.6659,3.9969 -1.11061,1.02614 -2.43024,1.53921 -3.95889,1.53921 -1.53711,0 -2.85885,-0.51307 -3.96523,-1.53921 -1.10638,-1.02615 -1.65957,-2.35845 -1.65957,-3.9969 z m 2.64771,-0.0253 c 0,0.84457 0.29771,1.54344 0.89313,2.09663 0.59541,0.55319 1.29006,0.82979 2.08396,0.82978 0.78544,10e-6 1.48009,-0.27659 2.08396,-0.82978 0.60385,-0.55319 0.90579,-1.25206 0.90579,-2.09663 0,-0.84456 -0.30194,-1.54554 -0.90579,-2.10296 -0.60387,-0.55741 -1.29852,-0.83611 -2.08396,-0.83612 -0.7939,1e-5 -1.48855,0.27871 -2.08396,0.83612 -0.59542,0.55742 -0.89313,1.2584 -0.89313,2.10296 z"
         style=""
         id="path4843" />
    </g>
  </g>
</svg>
