<?xml version="1.0" encoding="UTF-8" standalone="no"?>
<!-- Created with Inkscape (http://www.inkscape.org/) -->

<svg
   xmlns:dc="http://purl.org/dc/elements/1.1/"
   xmlns:cc="http://creativecommons.org/ns#"
   xmlns:rdf="http://www.w3.org/1999/02/22-rdf-syntax-ns#"
   xmlns:svg="http://www.w3.org/2000/svg"
   xmlns="http://www.w3.org/2000/svg"
   xmlns:sodipodi="http://sodipodi.sourceforge.net/DTD/sodipodi-0.dtd"
   xmlns:inkscape="http://www.inkscape.org/namespaces/inkscape"
   width="71.136421"
   height="42.832634"
   id="svg5891"
   version="1.1"
   inkscape:version="0.47 r22583"
   sodipodi:docname="E.22 II Hochwassermarke Marke II.svg">
  <defs
     id="defs5893">
    <inkscape:perspective
       sodipodi:type="inkscape:persp3d"
       inkscape:vp_x="0 : 526.18109 : 1"
       inkscape:vp_y="0 : 1000 : 0"
       inkscape:vp_z="744.09448 : 526.18109 : 1"
       inkscape:persp3d-origin="372.04724 : 350.78739 : 1"
       id="perspective5899" />
    <inkscape:perspective
       id="perspective5879"
       inkscape:persp3d-origin="0.5 : 0.33333333 : 1"
       inkscape:vp_z="1 : 0.5 : 1"
       inkscape:vp_y="0 : 1000 : 0"
       inkscape:vp_x="0 : 0.5 : 1"
       sodipodi:type="inkscape:persp3d" />
  </defs>
  <sodipodi:namedview
     id="base"
     pagecolor="#ffffff"
     bordercolor="#666666"
     borderopacity="1.0"
     inkscape:pageopacity="0.0"
     inkscape:pageshadow="2"
     inkscape:zoom="12.210316"
     inkscape:cx="35.568211"
     inkscape:cy="21.416317"
     inkscape:document-units="px"
     inkscape:current-layer="layer1"
     showgrid="false"
     inkscape:window-width="1280"
     inkscape:window-height="748"
     inkscape:window-x="-8"
     inkscape:window-y="-8"
     inkscape:window-maximized="1" />
  <metadata
     id="metadata5896">
    <rdf:RDF>
      <cc:Work
         rdf:about="">
        <dc:format>image/svg+xml</dc:format>
        <dc:type
           rdf:resource="http://purl.org/dc/dcmitype/StillImage" />
        <dc:title></dc:title>
      </cc:Work>
    </rdf:RDF>
  </metadata>
  <g
     inkscape:label="Ebene 1"
     inkscape:groupmode="layer"
     id="layer1"
     transform="translate(35.56821,-96.66015)">
    <g
       id="g4673"
       transform="matrix(0,1.25,1.25,0,-31.240625,139.35765)"
       style="stroke:#000000;fill:#ffffff">
      <path
         d="m 0,0 0,50.011 c -0.001,0.145 -0.007,0.29 -0.018,0.434 -0.012,0.143 -0.03,0.286 -0.053,0.425 -0.022,0.141 -0.05,0.278 -0.084,0.412 -0.034,0.133 -0.073,0.263 -0.117,0.388 -0.044,0.125 -0.092,0.246 -0.145,0.361 -0.053,0.115 -0.111,0.224 -0.173,0.326 -0.061,0.103 -0.127,0.199 -0.195,0.288 -0.069,0.088 -0.142,0.168 -0.218,0.24 -0.075,0.074 -0.152,0.138 -0.233,0.194 -0.08,0.056 -0.163,0.103 -0.247,0.141 -0.084,0.04 -0.169,0.07 -0.255,0.09 -0.087,0.02 -0.174,0.03 -0.261,0.029 l -30.052,0 c -0.087,-10e-4 -0.174,-0.011 -0.26,-0.03 -0.087,-0.02 -0.172,-0.049 -0.256,-0.089 -0.084,-0.036 -0.167,-0.083 -0.247,-0.139 -0.08,-0.056 -0.158,-0.122 -0.233,-0.196 -0.076,-0.072 -0.148,-0.152 -0.217,-0.24 -0.069,-0.089 -0.134,-0.185 -0.196,-0.288 -0.062,-0.102 -0.119,-0.211 -0.173,-0.326 -0.052,-0.115 -0.101,-0.235 -0.144,-0.361 -0.044,-0.125 -0.083,-0.255 -0.117,-0.389 -0.033,-0.133 -0.062,-0.271 -0.084,-0.411 -0.024,-0.14 -0.042,-0.282 -0.054,-0.426 -0.012,-0.143 -0.018,-0.288 -0.018,-0.433 l 0,-50.037 c 10e-4,-0.145 0.007,-0.29 0.018,-0.433 0.012,-0.144 0.03,-0.286 0.054,-0.426 0.022,-0.141 0.05,-0.278 0.083,-0.412 0.034,-0.133 0.073,-0.263 0.118,-0.388 0.043,-0.125 0.092,-0.246 0.144,-0.361 0.054,-0.115 0.111,-0.224 0.173,-0.326 0.061,-0.103 0.127,-0.199 0.196,-0.287 0.069,-0.089 0.141,-0.169 0.217,-0.241 0.075,-0.074 0.153,-0.139 0.233,-0.195 0.081,-0.056 0.163,-0.102 0.247,-0.14 0.084,-0.04 0.17,-0.07 0.256,-0.09 0.086,-0.02 0.173,-0.03 0.26,-0.029 l 30.052,0 c 0.087,10e-4 0.174,0.011 0.261,0.03 0.086,0.02 0.171,0.049 0.255,0.089 0.084,0.036 0.167,0.083 0.247,0.139 0.081,0.056 0.159,0.122 0.233,0.196 0.076,0.072 0.148,0.152 0.218,0.241 0.068,0.088 0.134,0.184 0.195,0.287 0.062,0.102 0.12,0.211 0.173,0.326 0.053,0.115 0.101,0.236 0.145,0.361 0.044,0.125 0.083,0.255 0.116,0.388 0.034,0.135 0.062,0.272 0.085,0.412 0.023,0.14 0.042,0.282 0.054,0.426 0.012,0.143 0.018,0.288 0.017,0.433 L 0,0 z"
         style="fill:#ffffff;stroke:#000000;stroke-width:0.21600000999999999;stroke-linecap:butt;stroke-linejoin:bevel;stroke-miterlimit:22.92600059999999800;stroke-opacity:1;stroke-dasharray:none"
         id="path4675" />
    </g>
    <g
       id="g4661"
       transform="matrix(0,1.25,1.25,0,-12.194375,130.13015)"
       style="fill:#000000;stroke:#000000">
      <path
         d="m 0,0 -22.399,-12.748 0,26.286 L 0,0 z"
         style="fill:#000000;fill-opacity:1;fill-rule:evenodd;stroke:#000000;stroke-width:0.21600000999999999;stroke-linecap:butt;stroke-linejoin:miter;stroke-miterlimit:22.92600059999999800;stroke-opacity:1;stroke-dasharray:none"
         id="path4663" />
    </g>
    <g
       id="g4665"
       transform="matrix(0,1.25,1.25,0,-28.129375,130.77765)"
       style="fill:#000000;stroke:#000000">
      <path
         d="M 2.594,0 0,0 l 0,26.286 2.594,0 L 2.594,0 z M 0,0 z"
         style="fill:#000000;fill-opacity:1;fill-rule:evenodd;stroke:#000000;stroke-width:0.21600000999999999;stroke-linecap:butt;stroke-linejoin:miter;stroke-miterlimit:22.92600059999999800;stroke-opacity:1;stroke-dasharray:none"
         id="path4667" />
    </g>
    <g
       style="font-size:15px;fill:#000000;stroke:#000000"
       id="text4669">
      <path
         d="m 16.307575,134.01978 0,-30.80095 4.075977,0 0,30.80095 z"
         style="font-size:43.02887343999999800px;font-variant:normal;font-weight:300;writing-mode:lr-tb;fill:#000000;fill-opacity:1;fill-rule:nonzero;stroke:#000000;font-family:FrutigerLT;-inkscape-font-specification:FrutigerLT-Light"
         id="path5925" />
      <path
         d="m 25.859974,134.01978 0,-30.80095 4.075977,0 0,30.80095 z"
         style="font-size:43.02887343999999800px;font-variant:normal;font-weight:300;writing-mode:lr-tb;fill:#000000;fill-opacity:1;fill-rule:nonzero;stroke:#000000;font-family:FrutigerLT;-inkscape-font-specification:FrutigerLT-Light"
         id="path5927" />
    </g>
  </g>
</svg>
