<?xml version="1.0" encoding="UTF-8" standalone="no"?>
<svg
   xmlns:dc="http://purl.org/dc/elements/1.1/"
   xmlns:cc="http://creativecommons.org/ns#"
   xmlns:rdf="http://www.w3.org/1999/02/22-rdf-syntax-ns#"
   xmlns:svg="http://www.w3.org/2000/svg"
   xmlns="http://www.w3.org/2000/svg"
   xmlns:sodipodi="http://sodipodi.sourceforge.net/DTD/sodipodi-0.dtd"
   xmlns:inkscape="http://www.inkscape.org/namespaces/inkscape"
   sodipodi:docname="E.24 Jetski final.svg"
   inkscape:version="1.0 (4035a4fb49, 2020-05-01)"
   version="1.1"
   id="svg7601"
   height="71.136429"
   width="71.135399">
  <defs
     id="defs7603">
    <inkscape:perspective
       id="perspective7609"
       inkscape:persp3d-origin="372.04724 : 350.78739 : 1"
       inkscape:vp_z="744.09448 : 526.18109 : 1"
       inkscape:vp_y="0 : 1000 : 0"
       inkscape:vp_x="0 : 526.18109 : 1"
       sodipodi:type="inkscape:persp3d" />
    <inkscape:perspective
       sodipodi:type="inkscape:persp3d"
       inkscape:vp_x="0 : 0.5 : 1"
       inkscape:vp_y="0 : 1000 : 0"
       inkscape:vp_z="1 : 0.5 : 1"
       inkscape:persp3d-origin="0.5 : 0.33333333 : 1"
       id="perspective7588" />
  </defs>
  <sodipodi:namedview
     fit-margin-bottom="0"
     fit-margin-right="0"
     fit-margin-left="0"
     fit-margin-top="0"
     inkscape:document-rotation="0"
     inkscape:window-maximized="0"
     inkscape:window-y="0"
     inkscape:window-x="-7"
     inkscape:window-height="1008"
     inkscape:window-width="1229"
     showgrid="true"
     inkscape:current-layer="layer1"
     inkscape:document-units="px"
     inkscape:cy="22.302581"
     inkscape:cx="-13.003731"
     inkscape:zoom="4.5717968"
     inkscape:pageshadow="2"
     inkscape:pageopacity="0.0"
     borderopacity="1.0"
     bordercolor="#666666"
     pagecolor="#ffffff"
     id="base" />
  <metadata
     id="metadata7606">
    <rdf:RDF>
      <cc:Work
         rdf:about="">
        <dc:format>image/svg+xml</dc:format>
        <dc:type
           rdf:resource="http://purl.org/dc/dcmitype/StillImage" />
        <dc:title></dc:title>
      </cc:Work>
    </rdf:RDF>
  </metadata>
  <g
     transform="translate(-81.575084,-113.93682)"
     id="layer1"
     inkscape:groupmode="layer"
     inkscape:label="Ebene 1">
    <g
       id="g917">
      <g
         id="g3789"
         transform="matrix(0,1.25,1.25,0,85.961647,184.87066)"
         style="fill:#ffffff;stroke:#000000">
        <path
           d="m 0,0 v 49.916 c -0.001,0.144 -0.01,0.289 -0.03,0.432 -0.019,0.144 -0.049,0.286 -0.088,0.425 -0.037,0.14 -0.083,0.278 -0.139,0.411 -0.056,0.133 -0.122,0.263 -0.196,0.387 -0.072,0.126 -0.152,0.246 -0.24,0.361 -0.088,0.114 -0.184,0.223 -0.287,0.325 -0.102,0.103 -0.211,0.199 -0.325,0.287 -0.115,0.088 -0.235,0.169 -0.361,0.24 -0.125,0.074 -0.254,0.138 -0.387,0.194 -0.134,0.056 -0.271,0.103 -0.411,0.14 -0.14,0.04 -0.282,0.07 -0.425,0.09 -0.143,0.02 -0.287,0.03 -0.432,0.029 h -49.942 c -0.145,0 -0.289,-0.011 -0.433,-0.03 -0.143,-0.019 -0.285,-0.049 -0.424,-0.089 -0.14,-0.036 -0.278,-0.082 -0.411,-0.138 -0.134,-0.056 -0.263,-0.122 -0.387,-0.196 -0.126,-0.071 -0.246,-0.152 -0.361,-0.24 -0.115,-0.088 -0.224,-0.184 -0.325,-0.287 -0.103,-0.102 -0.199,-0.211 -0.288,-0.325 -0.088,-0.115 -0.168,-0.235 -0.24,-0.361 -0.073,-0.125 -0.138,-0.254 -0.194,-0.387 -0.055,-0.134 -0.102,-0.271 -0.14,-0.411 -0.04,-0.139 -0.069,-0.281 -0.089,-0.425 -0.021,-0.143 -0.03,-0.288 -0.03,-0.432 V -0.026 c 10e-4,-0.145 0.011,-0.289 0.03,-0.433 0.02,-0.143 0.049,-0.285 0.089,-0.424 0.036,-0.141 0.083,-0.278 0.139,-0.411 0.056,-0.133 0.121,-0.263 0.195,-0.388 0.072,-0.125 0.153,-0.246 0.24,-0.36 0.089,-0.115 0.185,-0.223 0.288,-0.325 0.101,-0.103 0.21,-0.199 0.325,-0.287 0.115,-0.089 0.235,-0.169 0.361,-0.241 0.124,-0.073 0.254,-0.138 0.387,-0.194 0.134,-0.055 0.271,-0.102 0.411,-0.14 0.139,-0.04 0.281,-0.07 0.424,-0.09 0.144,-0.02 0.288,-0.03 0.433,-0.028 h 49.942 c 0.145,0 0.289,0.01 0.432,0.03 0.144,0.019 0.286,0.049 0.425,0.088 0.14,0.036 0.277,0.083 0.411,0.139 0.133,0.056 0.263,0.122 0.387,0.195 0.125,0.072 0.246,0.153 0.361,0.241 0.114,0.088 0.223,0.184 0.325,0.287 0.103,0.102 0.199,0.21 0.287,0.325 0.088,0.114 0.169,0.235 0.24,0.36 0.074,0.125 0.138,0.255 0.194,0.388 0.056,0.134 0.103,0.271 0.141,0.411 0.039,0.139 0.069,0.281 0.089,0.425 0.021,0.143 0.03,0.287 0.029,0.432 z"
           style="fill:#ffffff;stroke:#000000;stroke-width:0.216;stroke-linecap:butt;stroke-linejoin:bevel;stroke-miterlimit:22.926;stroke-dasharray:none;stroke-opacity:1"
           id="path3791" />
        <g
           id="g3793"
           transform="translate(0.054)"
           style="fill:#ffffff;stroke:#000000">
          <path
             d="M 0,0 V -0.027 C -0.001,-0.173 -0.011,-0.32 -0.031,-0.466 -0.05,-0.612 -0.081,-0.756 -0.12,-0.897 -0.158,-1.04 -0.205,-1.18 -0.262,-1.315 -0.319,-1.45 -0.385,-1.582 -0.46,-1.708 -0.533,-1.836 -0.615,-1.958 -0.705,-2.075 -0.794,-2.192 -0.892,-2.302 -0.996,-2.405 -1.1,-2.51 -1.21,-2.608 -1.326,-2.697 -1.443,-2.787 -1.566,-2.868 -1.693,-2.941 -1.82,-3.016 -1.951,-3.082 -2.087,-3.138 -2.223,-3.195 -2.362,-3.243 -2.504,-3.281 -2.646,-3.321 -2.79,-3.352 -2.936,-3.372 -3.081,-3.393 -3.228,-3.403 -3.375,-3.401 h -49.943 c -0.147,0 -0.294,0.01 -0.439,0.03 -0.146,0.02 -0.29,0.05 -0.432,0.09 -0.142,0.037 -0.282,0.084 -0.417,0.141 -0.136,0.057 -0.267,0.124 -0.393,0.199 -0.128,0.073 -0.251,0.155 -0.367,0.244 -0.117,0.09 -0.227,0.187 -0.331,0.292 -0.104,0.103 -0.202,0.213 -0.291,0.33 -0.09,0.116 -0.171,0.239 -0.244,0.367 -0.075,0.126 -0.141,0.258 -0.198,0.393 -0.057,0.136 -0.104,0.275 -0.142,0.418 -0.04,0.141 -0.071,0.286 -0.091,0.431 -0.021,0.146 -0.031,0.293 -0.03,0.439 v 49.943 c 10e-4,0.147 0.011,0.294 0.031,0.44 0.02,0.145 0.05,0.29 0.09,0.431 0.036,0.143 0.084,0.282 0.141,0.417 0.057,0.136 0.124,0.267 0.199,0.394 0.073,0.128 0.154,0.25 0.244,0.367 0.089,0.116 0.187,0.227 0.291,0.33 0.104,0.105 0.214,0.202 0.331,0.292 0.116,0.089 0.239,0.171 0.367,0.244 0.126,0.075 0.257,0.141 0.393,0.197 0.136,0.057 0.275,0.105 0.417,0.143 0.142,0.04 0.286,0.07 0.432,0.091 0.145,0.02 0.292,0.03 0.439,0.029 h 49.943 c 0.147,0 0.294,-0.011 0.439,-0.031 0.146,-0.019 0.29,-0.049 0.432,-0.089 0.142,-0.037 0.282,-0.084 0.417,-0.142 0.136,-0.057 0.267,-0.123 0.394,-0.198 0.127,-0.073 0.25,-0.155 0.366,-0.244 0.117,-0.09 0.227,-0.187 0.331,-0.292 0.105,-0.103 0.202,-0.214 0.292,-0.33 0.089,-0.117 0.171,-0.239 0.244,-0.367 0.074,-0.127 0.14,-0.258 0.197,-0.394 0.057,-0.135 0.104,-0.275 0.143,-0.417 0.04,-0.141 0.07,-0.286 0.091,-0.431 0.021,-0.146 0.03,-0.293 0.029,-0.44 z"
             style="fill:#ffffff;stroke:#000000;stroke-width:0.216;stroke-linecap:butt;stroke-linejoin:bevel;stroke-miterlimit:22.926;stroke-dasharray:none;stroke-opacity:1"
             id="path3795" />
        </g>
      </g>
      <g
         id="g3785"
         transform="matrix(0,1.25,1.25,0,85.961647,181.90066)"
         style="fill:#003399;fill-opacity:1">
        <path
           d="M 0,0 V -0.008 C 0,-0.05 -0.003,-0.092 -0.009,-0.133 -0.014,-0.175 -0.023,-0.216 -0.034,-0.256 -0.045,-0.297 -0.058,-0.337 -0.075,-0.376 -0.091,-0.414 -0.11,-0.452 -0.131,-0.488 -0.152,-0.525 -0.175,-0.56 -0.201,-0.593 -0.227,-0.626 -0.255,-0.658 -0.285,-0.687 -0.314,-0.717 -0.346,-0.745 -0.379,-0.771 -0.412,-0.796 -0.447,-0.819 -0.484,-0.84 -0.52,-0.862 -0.557,-0.88 -0.596,-0.896 -0.635,-0.913 -0.675,-0.926 -0.715,-0.937 -0.756,-0.949 -0.797,-0.958 -0.839,-0.964 -0.88,-0.969 -0.922,-0.972 -0.964,-0.972 h -49.905 c -0.042,0 -0.084,0.003 -0.125,0.009 -0.042,0.005 -0.083,0.014 -0.124,0.026 -0.041,0.01 -0.08,0.024 -0.119,0.04 -0.039,0.016 -0.076,0.035 -0.113,0.057 -0.036,0.021 -0.071,0.044 -0.104,0.07 -0.034,0.025 -0.065,0.053 -0.095,0.083 -0.029,0.029 -0.057,0.061 -0.083,0.094 -0.025,0.033 -0.049,0.068 -0.07,0.105 -0.021,0.036 -0.04,0.074 -0.056,0.112 -0.017,0.039 -0.03,0.079 -0.041,0.12 -0.011,0.04 -0.02,0.081 -0.026,0.123 -0.006,0.041 -0.008,0.083 -0.008,0.125 v 49.905 c 0,0.042 0.003,0.084 0.009,0.126 0.006,0.041 0.014,0.083 0.025,0.123 0.011,0.041 0.024,0.081 0.041,0.119 0.016,0.039 0.035,0.077 0.056,0.113 0.021,0.036 0.045,0.071 0.07,0.104 0.026,0.034 0.054,0.065 0.083,0.095 0.03,0.03 0.061,0.058 0.095,0.083 0.033,0.026 0.068,0.049 0.104,0.07 0.037,0.021 0.074,0.04 0.113,0.057 0.039,0.016 0.078,0.029 0.119,0.04 0.041,0.012 0.082,0.02 0.124,0.026 0.041,0.006 0.083,0.009 0.125,0.009 h 49.905 c 0.042,-0.001 0.084,-0.004 0.125,-0.01 0.042,-0.005 0.083,-0.013 0.124,-0.025 0.04,-0.011 0.08,-0.024 0.119,-0.04 0.039,-0.017 0.076,-0.036 0.112,-0.057 0.037,-0.021 0.072,-0.044 0.105,-0.07 0.033,-0.025 0.065,-0.053 0.094,-0.083 0.03,-0.03 0.058,-0.061 0.084,-0.095 0.026,-0.033 0.049,-0.068 0.07,-0.104 0.021,-0.036 0.04,-0.074 0.056,-0.113 0.016,-0.038 0.03,-0.078 0.041,-0.119 0.011,-0.04 0.02,-0.082 0.026,-0.123 C -0.002,49.981 0.001,49.939 0,49.897 V 0"
           style="fill:#003399;fill-opacity:1;fill-rule:evenodd;stroke:none"
           id="path3787" />
      </g>
      <circle
         style="opacity:1;fill:#ffffff;stroke-width:5;stroke-linecap:round;stroke-linejoin:round"
         id="path854"
         cx="142.07175"
         cy="146.54472"
         r="2.3387887" />
      <ellipse
         style="opacity:1;fill:#ffffff;stroke-width:4.08248;stroke-linecap:round;stroke-linejoin:round"
         id="path856"
         transform="rotate(11.103219)"
         ry="2.2684026"
         rx="13.839377"
         cy="146.55862"
         cx="155.35097" />
      <path
         id="path858"
         style="opacity:1;fill:#ffffff;stroke:none;stroke-width:1px;stroke-linecap:butt;stroke-linejoin:miter;stroke-opacity:1"
         d="M 26.765625,6.0859375 C 20.006967,6.0034252 10.615696,7.4494782 8.5898438,15.751953 5.8051736,27.164253 19.957031,36.921875 19.957031,36.921875 l 25.220703,-0.0078 v -0.61914 l 0.666016,0.107422 0.126953,-0.789063 -28.210937,-4.591797 C 17.061493,27.651762 16.990925,23.160605 19.375,18.376953 21.779088,13.553145 25.101871,10.712315 27.96875,9.0371094 L 45.542969,35.345703 46.208984,34.902344 45.767578,34.240234 46.265625,34.007812 33.654297,6.7871094 c 0.120492,-0.022112 0.273437,-0.050781 0.273437,-0.050781 0,0 -3.106914,-0.6008832 -7.162109,-0.6503909 z M 32.869141,6.9765625 44.873047,32.902344 28.664062,8.6386719 C 30.449637,7.6840307 31.922969,7.218351 32.869141,6.9765625 Z M 17.951172,31.863281 44.080078,36.115234 H 19.523438 C 19.094617,35.283002 18.44689,33.840505 17.951172,31.863281 Z"
         transform="translate(81.575084,113.93682)" />
      <path
         style="opacity:1;fill:#ffffff;stroke:none;stroke-width:1px;stroke-linecap:butt;stroke-linejoin:miter;stroke-opacity:1"
         d="m 127.29273,173.23746 5.55668,-7.76171 c 1.64905,-0.4418 4.1007,-0.52726 5.43907,-1.47002 1.36074,-0.95852 1.16903,-2.02244 2.79338,-5.29756 1.62435,-3.27512 2.81364,-5.40389 1.98127,-6.86186 -0.67901,-1.18935 -3.95633,-1.6987 -7.51281,-2.39501 -3.99227,-0.78163 -8.30461,-1.65598 -8.30461,-1.65598 l -0.84849,2.97536 c 3.69576,0.90922 8.04832,1.3341 11.65606,2.5627 0,0 -2.02203,6.29776 -2.86276,7.04659 -0.84073,0.74883 -3.22234,0.83157 -4.55285,1.91261 -1.33051,1.08104 -7.85833,10.14514 -7.85833,10.14514 z"
         id="path860"
         sodipodi:nodetypes="ccszssccczscc" />
    </g>
  </g>
</svg>
