<?xml version="1.0" encoding="UTF-8" standalone="no"?>
<svg
   xmlns:dc="http://purl.org/dc/elements/1.1/"
   xmlns:cc="http://creativecommons.org/ns#"
   xmlns:rdf="http://www.w3.org/1999/02/22-rdf-syntax-ns#"
   xmlns:svg="http://www.w3.org/2000/svg"
   xmlns="http://www.w3.org/2000/svg"
   xmlns:sodipodi="http://sodipodi.sourceforge.net/DTD/sodipodi-0.dtd"
   xmlns:inkscape="http://www.inkscape.org/namespaces/inkscape"
   width="71.135185"
   height="71.136421"
   id="svg7009"
   version="1.1"
   inkscape:version="1.0 (4035a4fb49, 2020-05-01)"
   sodipodi:docname="E.16_Fahrerlaubnis_für_Sportboote.svg">
  <defs
     id="defs7011">
    <inkscape:perspective
       sodipodi:type="inkscape:persp3d"
       inkscape:vp_x="0 : 526.18109 : 1"
       inkscape:vp_y="0 : 1000 : 0"
       inkscape:vp_z="744.09448 : 526.18109 : 1"
       inkscape:persp3d-origin="372.04724 : 350.78739 : 1"
       id="perspective7017" />
    <inkscape:perspective
       id="perspective6983"
       inkscape:persp3d-origin="0.5 : 0.33333333 : 1"
       inkscape:vp_z="1 : 0.5 : 1"
       inkscape:vp_y="0 : 1000 : 0"
       inkscape:vp_x="0 : 0.5 : 1"
       sodipodi:type="inkscape:persp3d" />
  </defs>
  <sodipodi:namedview
     fit-margin-bottom="0"
     fit-margin-right="0"
     fit-margin-left="0"
     fit-margin-top="0"
     id="base"
     pagecolor="#ffffff"
     bordercolor="#666666"
     borderopacity="1.0"
     inkscape:pageopacity="0.0"
     inkscape:pageshadow="2"
     inkscape:zoom="6.8584462"
     inkscape:cx="18.841693"
     inkscape:cy="29.065092"
     inkscape:document-units="px"
     inkscape:current-layer="layer1"
     showgrid="false"
     inkscape:window-width="1920"
     inkscape:window-height="1017"
     inkscape:window-x="-8"
     inkscape:window-y="-8"
     inkscape:window-maximized="1"
     inkscape:document-rotation="0" />
  <metadata
     id="metadata7014">
    <rdf:RDF>
      <cc:Work
         rdf:about="">
        <dc:format>image/svg+xml</dc:format>
        <dc:type
           rdf:resource="http://purl.org/dc/dcmitype/StillImage" />
        <dc:title></dc:title>
      </cc:Work>
    </rdf:RDF>
  </metadata>
  <g
     inkscape:label="Ebene 1"
     inkscape:groupmode="layer"
     id="layer1"
     transform="translate(-521.57527,-359.65111)">
    <g
       id="g3801"
       transform="matrix(0,1.25,1.25,0,525.96161,430.58495)"
       style="fill:#ffffff;stroke:#000000">
      <path
         d="m 0,0 v 49.89 0.013 0.013 c -0.001,0.145 -0.011,0.289 -0.031,0.432 -0.019,0.144 -0.048,0.286 -0.088,0.425 -0.036,0.14 -0.083,0.278 -0.139,0.411 -0.056,0.133 -0.121,0.263 -0.195,0.387 -0.072,0.126 -0.153,0.246 -0.241,0.361 -0.088,0.114 -0.184,0.223 -0.287,0.325 -0.101,0.103 -0.21,0.199 -0.324,0.287 -0.115,0.088 -0.236,0.169 -0.361,0.24 -0.125,0.074 -0.254,0.138 -0.388,0.194 -0.133,0.056 -0.271,0.103 -0.41,0.14 -0.14,0.04 -0.282,0.07 -0.425,0.09 -0.144,0.02 -0.288,0.03 -0.432,0.029 h -49.943 c -0.144,-0.001 -0.289,-0.011 -0.432,-0.03 -0.144,-0.019 -0.285,-0.049 -0.425,-0.089 -0.14,-0.036 -0.277,-0.082 -0.41,-0.138 -0.134,-0.057 -0.263,-0.122 -0.388,-0.196 -0.125,-0.071 -0.246,-0.152 -0.361,-0.24 -0.114,-0.088 -0.223,-0.184 -0.324,-0.287 -0.104,-0.102 -0.199,-0.211 -0.288,-0.325 -0.088,-0.115 -0.168,-0.235 -0.24,-0.361 -0.073,-0.125 -0.138,-0.254 -0.194,-0.387 -0.056,-0.134 -0.103,-0.271 -0.14,-0.411 -0.04,-0.139 -0.07,-0.281 -0.09,-0.425 -0.02,-0.143 -0.03,-0.288 -0.029,-0.432 V -0.026 c 10e-4,-0.145 0.011,-0.289 0.03,-0.433 0.02,-0.143 0.049,-0.285 0.089,-0.424 0.036,-0.14 0.082,-0.278 0.138,-0.411 0.057,-0.133 0.122,-0.263 0.196,-0.388 0.072,-0.125 0.152,-0.246 0.24,-0.36 0.089,-0.115 0.184,-0.223 0.288,-0.325 0.101,-0.103 0.21,-0.199 0.324,-0.287 0.115,-0.089 0.236,-0.169 0.361,-0.241 0.125,-0.073 0.255,-0.138 0.388,-0.194 0.133,-0.055 0.27,-0.102 0.41,-0.14 0.14,-0.039 0.282,-0.069 0.425,-0.089 0.143,-0.021 0.288,-0.031 0.432,-0.029 h 0.013 l 0.014,-10e-4 h 49.889 l 0.013,10e-4 h 0.014 c 0.144,0 0.288,0.01 0.432,0.03 0.143,0.019 0.285,0.049 0.425,0.088 0.14,0.036 0.277,0.083 0.41,0.139 0.134,0.056 0.263,0.121 0.388,0.195 0.125,0.072 0.246,0.153 0.36,0.241 0.115,0.088 0.224,0.184 0.325,0.287 0.103,0.102 0.2,0.21 0.288,0.325 0.088,0.114 0.168,0.235 0.24,0.36 0.073,0.125 0.138,0.255 0.194,0.388 0.056,0.134 0.103,0.271 0.14,0.411 0.04,0.139 0.07,0.281 0.09,0.425 0.02,0.143 0.03,0.287 0.029,0.432 v 0.013 z"
         style="fill:#ffffff;stroke:#000000;stroke-width:0.216;stroke-linecap:butt;stroke-linejoin:bevel;stroke-miterlimit:22.926;stroke-dasharray:none;stroke-opacity:1"
         id="path3803" />
      <g
         id="g3805"
         transform="translate(0.054)"
         style="fill:#ffffff;stroke:#000000">
        <path
           d="M 0,0 V -0.027 C -0.001,-0.174 -0.011,-0.32 -0.031,-0.466 -0.05,-0.612 -0.081,-0.756 -0.12,-0.897 -0.157,-1.04 -0.205,-1.18 -0.262,-1.315 -0.319,-1.45 -0.385,-1.582 -0.46,-1.708 -0.533,-1.836 -0.615,-1.958 -0.705,-2.075 -0.794,-2.192 -0.892,-2.302 -0.996,-2.405 -1.1,-2.51 -1.21,-2.608 -1.326,-2.697 -1.443,-2.787 -1.565,-2.868 -1.693,-2.941 -1.82,-3.016 -1.951,-3.082 -2.087,-3.138 -2.223,-3.195 -2.362,-3.243 -2.504,-3.281 -2.646,-3.321 -2.79,-3.352 -2.936,-3.372 -3.081,-3.393 -3.228,-3.402 -3.375,-3.401 h -49.943 c -0.147,0 -0.294,0.011 -0.439,0.03 -0.146,0.02 -0.29,0.05 -0.431,0.09 -0.143,0.037 -0.283,0.084 -0.419,0.141 -0.135,0.057 -0.266,0.123 -0.392,0.199 -0.128,0.073 -0.251,0.155 -0.367,0.244 -0.117,0.09 -0.227,0.187 -0.331,0.292 -0.104,0.103 -0.202,0.213 -0.291,0.33 -0.09,0.116 -0.172,0.239 -0.245,0.367 -0.074,0.126 -0.14,0.258 -0.197,0.393 -0.057,0.136 -0.104,0.275 -0.142,0.418 -0.041,0.141 -0.071,0.285 -0.092,0.431 -0.02,0.146 -0.03,0.293 -0.029,0.439 v 49.943 c 10e-4,0.147 0.011,0.294 0.031,0.44 0.02,0.145 0.05,0.29 0.09,0.431 0.036,0.143 0.084,0.282 0.141,0.418 0.057,0.135 0.123,0.267 0.198,0.393 0.073,0.128 0.155,0.25 0.245,0.367 0.089,0.116 0.187,0.227 0.291,0.33 0.104,0.105 0.214,0.202 0.331,0.292 0.116,0.09 0.239,0.171 0.367,0.244 0.126,0.075 0.257,0.141 0.393,0.197 0.136,0.057 0.275,0.105 0.418,0.143 0.141,0.04 0.285,0.07 0.431,0.091 0.145,0.021 0.292,0.03 0.439,0.029 h 49.943 c 0.147,0 0.294,-0.011 0.439,-0.031 0.146,-0.019 0.29,-0.049 0.432,-0.089 0.142,-0.037 0.282,-0.084 0.417,-0.142 0.136,-0.057 0.267,-0.123 0.394,-0.198 0.127,-0.073 0.25,-0.155 0.367,-0.244 0.116,-0.09 0.226,-0.187 0.33,-0.292 0.105,-0.103 0.202,-0.214 0.292,-0.33 0.089,-0.117 0.171,-0.239 0.244,-0.367 0.075,-0.127 0.14,-0.258 0.197,-0.394 0.057,-0.135 0.104,-0.275 0.143,-0.417 0.039,-0.141 0.07,-0.286 0.091,-0.431 0.02,-0.146 0.03,-0.293 0.029,-0.44 z"
           style="fill:#ffffff;stroke:#000000;stroke-width:0.216;stroke-linecap:butt;stroke-linejoin:bevel;stroke-miterlimit:22.926;stroke-dasharray:none;stroke-opacity:1"
           id="path3807" />
      </g>
    </g>
    <g
       id="g3809"
       transform="matrix(0,1.25,1.25,0,525.96161,427.6162)"
       style="fill:#003399;fill-opacity:1">
      <path
         d="m 0,0 v -0.008 c 0,-0.042 -0.003,-0.084 -0.009,-0.125 -0.005,-0.042 -0.014,-0.083 -0.026,-0.123 -0.01,-0.041 -0.024,-0.081 -0.04,-0.12 -0.016,-0.038 -0.035,-0.076 -0.057,-0.112 -0.02,-0.037 -0.044,-0.072 -0.07,-0.105 -0.025,-0.033 -0.053,-0.065 -0.083,-0.094 -0.029,-0.03 -0.061,-0.058 -0.094,-0.084 C -0.412,-0.796 -0.447,-0.819 -0.484,-0.84 -0.52,-0.862 -0.558,-0.88 -0.596,-0.896 -0.635,-0.913 -0.675,-0.927 -0.715,-0.937 -0.756,-0.949 -0.797,-0.958 -0.839,-0.964 -0.88,-0.969 -0.922,-0.972 -0.964,-0.972 h -0.008 -49.89 -0.007 c -0.042,0 -0.084,0.003 -0.126,0.009 -0.041,0.005 -0.083,0.014 -0.123,0.026 -0.041,0.01 -0.081,0.024 -0.119,0.04 -0.039,0.016 -0.077,0.035 -0.113,0.057 -0.036,0.021 -0.071,0.044 -0.104,0.07 -0.034,0.025 -0.065,0.053 -0.095,0.083 -0.03,0.029 -0.058,0.061 -0.083,0.094 -0.026,0.033 -0.049,0.068 -0.07,0.105 -0.021,0.036 -0.04,0.074 -0.057,0.112 -0.016,0.039 -0.029,0.079 -0.04,0.12 -0.012,0.04 -0.02,0.081 -0.026,0.123 -0.006,0.041 -0.009,0.083 -0.008,0.125 v 49.905 c 0,0.042 0.002,0.084 0.008,0.126 0.006,0.041 0.014,0.083 0.026,0.123 0.01,0.041 0.024,0.081 0.04,0.119 0.017,0.039 0.035,0.077 0.057,0.113 0.021,0.036 0.044,0.071 0.07,0.104 0.025,0.034 0.053,0.065 0.083,0.095 0.03,0.03 0.061,0.058 0.095,0.083 0.033,0.026 0.068,0.049 0.104,0.07 0.036,0.021 0.074,0.04 0.113,0.057 0.038,0.016 0.078,0.029 0.119,0.04 0.04,0.012 0.082,0.02 0.123,0.026 0.042,0.006 0.084,0.009 0.126,0.009 h 49.905 c 0.042,0 0.084,-0.003 0.125,-0.009 0.042,-0.006 0.083,-0.014 0.124,-0.026 0.04,-0.01 0.08,-0.024 0.119,-0.04 0.038,-0.016 0.076,-0.035 0.112,-0.057 0.037,-0.021 0.072,-0.044 0.105,-0.07 0.033,-0.025 0.065,-0.053 0.094,-0.083 0.03,-0.03 0.058,-0.061 0.084,-0.095 0.025,-0.033 0.049,-0.068 0.069,-0.104 0.022,-0.036 0.04,-0.074 0.057,-0.113 0.016,-0.038 0.03,-0.078 0.04,-0.119 0.012,-0.04 0.021,-0.082 0.027,-0.123 C -0.003,49.981 0,49.939 0,49.897 V 49.89 0"
         style="fill:#003399;fill-opacity:1;fill-rule:evenodd;stroke:none"
         id="path3811" />
    </g>
    <rect
       style="opacity:1;fill:#ffffff;stroke-width:5;stroke-linecap:round;stroke-linejoin:round"
       id="rect868"
       width="11.947522"
       height="9.2367392"
       x="573.53192"
       y="390.60208" />
    <path
       id="path870"
       style="opacity:1;fill:#ffffff;fill-opacity:1;stroke:none;stroke-width:1.00844px;stroke-linecap:butt;stroke-linejoin:miter;stroke-opacity:1"
       d="m 556.2198,380.76673 v 14.45373 14.45372 l 16.97677,-1.71665 v -12.73707 -12.73707 z" />
    <rect
       style="opacity:1;fill:#ffffff;fill-opacity:1;stroke:none;stroke-width:5.01611;stroke-linecap:round;stroke-linejoin:round;stroke-opacity:1"
       id="rect875"
       width="13.133716"
       height="31.867348"
       x="542.37622"
       y="379.28677" />
    <rect
       style="opacity:1;fill:#ffffff;fill-opacity:1;stroke:none;stroke-width:5.03926;stroke-linecap:round;stroke-linejoin:round;stroke-opacity:1"
       id="rect877"
       width="13.855109"
       height="6.0239606"
       x="527.72473"
       y="383.47083" />
    <rect
       y="-406.97006"
       x="527.72473"
       height="6.0239606"
       width="13.855109"
       id="rect881"
       style="opacity:1;fill:#ffffff;fill-opacity:1;stroke:none;stroke-width:5.03926;stroke-linecap:round;stroke-linejoin:round;stroke-opacity:1"
       transform="scale(1,-1)" />
  </g>
</svg>
