<?xml version="1.0" encoding="UTF-8" standalone="no"?>
<svg
   xmlns:dc="http://purl.org/dc/elements/1.1/"
   xmlns:cc="http://creativecommons.org/ns#"
   xmlns:rdf="http://www.w3.org/1999/02/22-rdf-syntax-ns#"
   xmlns:svg="http://www.w3.org/2000/svg"
   xmlns="http://www.w3.org/2000/svg"
   xmlns:sodipodi="http://sodipodi.sourceforge.net/DTD/sodipodi-0.dtd"
   xmlns:inkscape="http://www.inkscape.org/namespaces/inkscape"
   width="71.136436"
   height="71.136337"
   id="svg7371"
   version="1.1"
   inkscape:version="1.0 (4035a4fb49, 2020-05-01)"
   sodipodi:docname="E.5.3_Erlaubnis.svg">
  <defs
     id="defs7373">
    <inkscape:perspective
       sodipodi:type="inkscape:persp3d"
       inkscape:vp_x="0 : 526.18109 : 1"
       inkscape:vp_y="0 : 1000 : 0"
       inkscape:vp_z="744.09448 : 526.18109 : 1"
       inkscape:persp3d-origin="372.04724 : 350.78739 : 1"
       id="perspective7379" />
    <inkscape:perspective
       id="perspective7362"
       inkscape:persp3d-origin="0.5 : 0.33333333 : 1"
       inkscape:vp_z="1 : 0.5 : 1"
       inkscape:vp_y="0 : 1000 : 0"
       inkscape:vp_x="0 : 0.5 : 1"
       sodipodi:type="inkscape:persp3d" />
  </defs>
  <sodipodi:namedview
     fit-margin-bottom="0"
     fit-margin-right="0"
     fit-margin-left="0"
     fit-margin-top="0"
     id="base"
     pagecolor="#ffffff"
     bordercolor="#666666"
     borderopacity="1.0"
     inkscape:pageopacity="0.0"
     inkscape:pageshadow="2"
     inkscape:zoom="4.0208925"
     inkscape:cx="-42.706903"
     inkscape:cy="4.2512596"
     inkscape:document-units="px"
     inkscape:current-layer="layer1"
     showgrid="false"
     inkscape:window-width="1920"
     inkscape:window-height="1017"
     inkscape:window-x="-8"
     inkscape:window-y="-8"
     inkscape:window-maximized="1"
     inkscape:document-rotation="0" />
  <metadata
     id="metadata7376">
    <rdf:RDF>
      <cc:Work
         rdf:about="">
        <dc:format>image/svg+xml</dc:format>
        <dc:type
           rdf:resource="http://purl.org/dc/dcmitype/StillImage" />
        <dc:title></dc:title>
      </cc:Work>
    </rdf:RDF>
  </metadata>
  <g
     inkscape:label="Ebene 1"
     inkscape:groupmode="layer"
     id="layer1"
     transform="translate(-314.43186,-496.79404)">
    <path
       d="m 318.81931,567.79528 h -0.0337 c -0.18375,-0.001 -0.36625,-0.0137 -0.54875,-0.0387 -0.1825,-0.025 -0.3625,-0.0625 -0.53875,-0.11125 -0.17875,-0.0462 -0.35375,-0.10625 -0.5225,-0.1775 -0.17,-0.0713 -0.33375,-0.15375 -0.49125,-0.2475 -0.16,-0.0913 -0.3125,-0.19375 -0.45875,-0.30625 -0.14625,-0.11125 -0.28375,-0.23375 -0.4125,-0.36375 -0.13125,-0.13 -0.25375,-0.2675 -0.365,-0.4125 -0.1125,-0.14625 -0.21375,-0.29875 -0.30625,-0.45875 -0.0925,-0.15875 -0.175,-0.3225 -0.245,-0.4925 -0.0713,-0.17 -0.13125,-0.34375 -0.17875,-0.52125 -0.05,-0.1775 -0.0888,-0.3575 -0.11375,-0.54 -0.0263,-0.18125 -0.0375,-0.365 -0.0375,-0.54875 v -62.42875 c 10e-4,-0.18375 0.015,-0.3675 0.0388,-0.54875 0.025,-0.1825 0.0625,-0.3625 0.1125,-0.54 0.0463,-0.1775 0.105,-0.3525 0.17625,-0.5225 0.0712,-0.16875 0.15375,-0.3325 0.2475,-0.49125 0.0925,-0.15875 0.195,-0.3125 0.30625,-0.4575 0.1125,-0.14625 0.23375,-0.28375 0.365,-0.41375 0.12875,-0.13 0.26625,-0.2525 0.4125,-0.36375 0.145,-0.1125 0.29875,-0.215 0.45875,-0.30625 0.1575,-0.0925 0.3225,-0.175 0.49125,-0.24625 0.17,-0.0713 0.34375,-0.13 0.5225,-0.1775 0.17625,-0.0512 0.35625,-0.0888 0.53875,-0.115 0.1825,-0.025 0.36625,-0.0375 0.54875,-0.0362 h 62.42875 c 0.18375,0.001 0.3675,0.0138 0.55,0.0387 0.18125,0.0238 0.3625,0.0625 0.53875,0.1125 0.17875,0.045 0.3525,0.105 0.5225,0.17625 0.16875,0.0713 0.33375,0.15375 0.49125,0.2475 0.16,0.0913 0.3125,0.19375 0.45875,0.30625 0.145,0.11125 0.28375,0.23375 0.4125,0.36375 0.13125,0.13 0.2525,0.2675 0.365,0.41375 0.1125,0.145 0.21375,0.29875 0.305,0.4575 0.0937,0.15875 0.17625,0.3225 0.24625,0.4925 0.0712,0.17 0.13125,0.34375 0.17875,0.52125 0.05,0.1775 0.0875,0.3575 0.11375,0.54 0.0263,0.18125 0.0375,0.365 0.0363,0.54875 v 62.42875 c -10e-4,0.18375 -0.0138,0.3675 -0.0388,0.54875 -0.0237,0.1825 -0.0613,0.3625 -0.11125,0.54 -0.0463,0.1775 -0.105,0.3525 -0.1775,0.52125 -0.0712,0.17 -0.15375,0.33375 -0.2475,0.4925 -0.0913,0.15875 -0.19375,0.3125 -0.305,0.45875 -0.1125,0.145 -0.23375,0.2825 -0.365,0.4125 -0.12875,0.13 -0.2675,0.2525 -0.4125,0.365 -0.14625,0.11125 -0.29875,0.21375 -0.45875,0.305 -0.15875,0.0925 -0.3225,0.175 -0.4925,0.24625 -0.16875,0.0712 -0.34375,0.13 -0.52125,0.17875 -0.17625,0.0488 -0.3575,0.0875 -0.53875,0.11375 -0.1825,0.025 -0.36625,0.0375 -0.55,0.0362 h -62.395 z"
       style="fill:#ffffff;stroke:#000000;stroke-width:0.27;stroke-linecap:butt;stroke-linejoin:bevel;stroke-miterlimit:22.926;stroke-dasharray:none;stroke-opacity:1"
       id="path17881" />
    <path
       id="path20656"
       style="fill:none;stroke:#231f20;stroke-width:0.27;stroke-linecap:butt;stroke-linejoin:bevel;stroke-miterlimit:22.926;stroke-dasharray:none;stroke-opacity:1"
       d="m 319.29181,567.72665 h 61.45375 c 0.20125,-10e-4 0.4025,-0.015 0.60125,-0.0425 0.2,-0.0263 0.3975,-0.0675 0.59125,-0.1225 0.195,-0.05 0.385,-0.115 0.57125,-0.19375 0.185,-0.0775 0.36625,-0.16875 0.53875,-0.27125 0.175,-0.1 0.3425,-0.21125 0.50125,-0.33375 0.16,-0.12375 0.31125,-0.25625 0.4525,-0.4 0.14375,-0.14125 0.2775,-0.2925 0.4,-0.4525 0.1225,-0.15875 0.23375,-0.32625 0.335,-0.50125 0.10125,-0.17375 0.19125,-0.35375 0.26875,-0.54 0.0775,-0.185 0.1425,-0.37625 0.195,-0.57 0.055,-0.195 0.0962,-0.3925 0.125,-0.59125 0.0275,-0.2 0.0412,-0.4 0.04,-0.60125 v -61.49 c -0.001,-0.20125 -0.015,-0.4025 -0.0425,-0.6025 -0.0263,-0.19875 -0.0675,-0.39625 -0.1225,-0.59 -0.05,-0.195 -0.115,-0.38625 -0.19375,-0.57125 -0.0775,-0.18625 -0.1675,-0.36625 -0.27,-0.54 -0.10125,-0.17375 -0.2125,-0.34125 -0.335,-0.50125 -0.12375,-0.16 -0.25625,-0.31 -0.4,-0.45125 -0.14125,-0.14375 -0.2925,-0.2775 -0.4525,-0.4 -0.15875,-0.12375 -0.32625,-0.235 -0.50125,-0.335 -0.17375,-0.1025 -0.35375,-0.19125 -0.53875,-0.27 -0.18625,-0.0775 -0.3775,-0.1425 -0.57125,-0.19375 -0.195,-0.055 -0.39125,-0.0975 -0.59125,-0.12625 -0.19875,-0.0275 -0.4,-0.0412 -0.60125,-0.04 h -61.49 c -0.20125,10e-4 -0.4025,0.0162 -0.6025,0.0425 -0.19875,0.0275 -0.39625,0.0688 -0.59,0.12375 -0.195,0.05 -0.38625,0.11375 -0.57125,0.1925 -0.18625,0.0775 -0.36625,0.16875 -0.53875,0.27125 -0.175,0.1 -0.3425,0.2125 -0.5025,0.335 -0.15875,0.1225 -0.31,0.25625 -0.4525,0.4 -0.1425,0.14125 -0.27625,0.29125 -0.39875,0.45125 -0.1225,0.16 -0.235,0.3275 -0.335,0.50125 -0.10125,0.17375 -0.1925,0.35375 -0.26875,0.54 -0.0788,0.18625 -0.14375,0.37625 -0.19625,0.57125 -0.0538,0.19375 -0.0963,0.39125 -0.12375,0.59125 -0.0288,0.19875 -0.0425,0.4 -0.0413,0.60125 v 61.49 c 0.003,0.20125 0.0163,0.40125 0.0425,0.60125 0.0275,0.2 0.0688,0.39625 0.1225,0.59125 0.0512,0.19375 0.11625,0.385 0.19375,0.57125 0.0775,0.185 0.16875,0.365 0.27125,0.53875 0.10125,0.17375 0.2125,0.3425 0.335,0.50125 0.1225,0.16 0.25625,0.31125 0.39875,0.4525 0.1425,0.14375 0.2925,0.27625 0.4525,0.4 0.16,0.1225 0.3275,0.23375 0.5025,0.33375 0.1725,0.1025 0.3525,0.1925 0.53875,0.27 0.185,0.0775 0.37625,0.1425 0.57125,0.195 0.19375,0.055 0.39125,0.0962 0.59125,0.125 0.19875,0.0275 0.4,0.0412 0.60125,0.04 h 0.0362 z" />
    <path
       id="path17885"
       style="fill:#003399;fill-opacity:1;fill-rule:evenodd;stroke:none"
       d="M 10.330078,3.171875 67.964844,60.806641 V 4.8457031 c 0,-0.0725 -0.0056,-0.1455969 -0.01563,-0.2167969 -0.01,-0.07375 -0.02492,-0.1448437 -0.04492,-0.2148437 -0.0187,-0.07 -0.04281,-0.1408313 -0.07031,-0.2070313 -0.0287,-0.0675 -0.06016,-0.1316125 -0.09766,-0.1953124 -0.03625,-0.0625 -0.07609,-0.1241407 -0.121094,-0.1816407 -0.04375,-0.05875 -0.09203,-0.1127625 -0.144531,-0.1640625 -0.05125,-0.0525 -0.105262,-0.099531 -0.164062,-0.1445312 -0.0575,-0.04375 -0.117841,-0.084794 -0.181641,-0.1210938 -0.0625,-0.0374 -0.129113,-0.070809 -0.195312,-0.099609 -0.0675,-0.0275 -0.135832,-0.051512 -0.207032,-0.070312 -0.07,-0.0187 -0.142344,-0.032969 -0.214844,-0.042969 -0.0725,-0.01 -0.144296,-0.015625 -0.216796,-0.015625 z m -7.158203,7.158203 v 55.945313 0.01563 c 0,0.0725 0.00563,0.144297 0.015625,0.216796 0.01,0.0725 0.024922,0.142891 0.044922,0.212891 0.0188,0.07125 0.041513,0.141485 0.070312,0.208985 0.0275,0.0675 0.060156,0.130859 0.097656,0.193359 0.03625,0.06375 0.076094,0.124794 0.1210938,0.183594 0.04375,0.0575 0.093984,0.111562 0.1464844,0.164062 0.05125,0.05125 0.1053625,0.09878 0.1640624,0.142578 0.0575,0.04495 0.1159876,0.08479 0.1796876,0.121094 0.0625,0.0374 0.1290124,0.07081 0.1953124,0.09961 0.0675,0.0288 0.1357313,0.05151 0.2070313,0.07031 0.07,0.02 0.1423438,0.03492 0.2148437,0.04492 0.0725,0.009 0.14495,0.01267 0.21875,0.01367 h 0.011719 55.9453134 z"
       transform="translate(314.43186,496.79404)" />
    <g
       id="g929"
       transform="translate(-208.79634,42.857242)"
       style="fill:#ffffff">
      <g
         transform="translate(-1.0105759)"
         id="g919"
         style="fill:#ffffff">
        <path
           id="path844"
           style="fill:#ffffff;fill-opacity:1;stroke:none;stroke-width:1px;stroke-linecap:butt;stroke-linejoin:miter;stroke-opacity:1"
           d="m 545.16692,491.4778 c -3,0 -3.99935,1.45898 -7.32031,1.45898 v 4 c 3.32096,0 4.32031,-1.45898 7.32031,-1.45898 3,0 3.99935,1.45898 7.32031,1.45898 3.32096,0 4.32032,-1.45898 7.32032,-1.45898 3,0 3.99935,1.45898 7.32031,1.45898 3.32096,0 4.32031,-1.45898 7.32031,-1.45898 3,0 3.99935,1.45898 7.32031,1.45898 v -4 c -3.32096,0 -4.32031,-1.45898 -7.32031,-1.45898 -3,0 -3.99935,1.45898 -7.32031,1.45898 -3.32096,0 -4.32031,-1.45898 -7.32031,-1.45898 -3,0 -3.99936,1.45898 -7.32032,1.45898 -3.32096,0 -4.32031,-1.45898 -7.32031,-1.45898 z" />
        <path
           d="m 545.16692,498.00814 c -3,0 -3.99935,1.45898 -7.32031,1.45898 v 4 c 3.32096,0 4.32031,-1.45898 7.32031,-1.45898 3,0 3.99935,1.45898 7.32031,1.45898 3.32096,0 4.32032,-1.45898 7.32032,-1.45898 3,0 3.99935,1.45898 7.32031,1.45898 3.32096,0 4.32031,-1.45898 7.32031,-1.45898 3,0 3.99935,1.45898 7.32031,1.45898 v -4 c -3.32096,0 -4.32031,-1.45898 -7.32031,-1.45898 -3,0 -3.99935,1.45898 -7.32031,1.45898 -3.32096,0 -4.32031,-1.45898 -7.32031,-1.45898 -3,0 -3.99936,1.45898 -7.32032,1.45898 -3.32096,0 -4.32031,-1.45898 -7.32031,-1.45898 z"
           style="fill:#ffffff;fill-opacity:1;stroke:none;stroke-width:1px;stroke-linecap:butt;stroke-linejoin:miter;stroke-opacity:1"
           id="path871" />
        <path
           id="path887"
           style="color:#000000;font-style:normal;font-variant:normal;font-weight:normal;font-stretch:normal;font-size:medium;line-height:normal;font-family:sans-serif;font-variant-ligatures:normal;font-variant-position:normal;font-variant-caps:normal;font-variant-numeric:normal;font-variant-alternates:normal;font-variant-east-asian:normal;font-feature-settings:normal;font-variation-settings:normal;text-indent:0;text-align:start;text-decoration:none;text-decoration-line:none;text-decoration-style:solid;text-decoration-color:#000000;letter-spacing:normal;word-spacing:normal;text-transform:none;writing-mode:lr-tb;direction:ltr;text-orientation:mixed;dominant-baseline:auto;baseline-shift:baseline;text-anchor:start;white-space:normal;shape-padding:0;shape-margin:0;inline-size:0;clip-rule:nonzero;display:inline;overflow:visible;visibility:visible;isolation:auto;mix-blend-mode:normal;color-interpolation:sRGB;color-interpolation-filters:linearRGB;solid-color:#000000;solid-opacity:1;vector-effect:none;fill:#ffffff;fill-opacity:1;fill-rule:nonzero;stroke:none;stroke-width:5;stroke-linecap:round;stroke-linejoin:round;stroke-miterlimit:4;stroke-dasharray:none;stroke-dashoffset:0;stroke-opacity:1;color-rendering:auto;image-rendering:auto;shape-rendering:auto;text-rendering:auto;enable-background:accumulate;stop-color:#000000"
           d="m 48.035156,21.861328 c -0.65215,0.008 -1.275228,0.271162 -1.736328,0.732422 l -8.835937,8.835938 H 17.578125 14.949219 c 0,0 0.18796,4.950368 1.890625,4.49414 1.2539,-0.41486 2.32971,-0.914062 4.08789,-0.914062 2.76578,0 3.853699,1.226292 6.605469,1.419922 h 1.429688 c 2.75177,-0.19363 3.839678,-1.419922 6.605468,-1.419922 1.86949,0 2.962599,0.56713 4.324219,0.99414 0.13349,-0.0896 0.25965,-0.19128 0.375,-0.30664 l 7.798828,-7.800782 7.601563,7.601563 c 0.512182,0.512638 1.190171,0.747789 1.861328,0.722656 V 30.287109 L 49.833984,22.59375 c -0.47641,-0.47657 -1.125018,-0.740662 -1.798828,-0.732422 z"
           transform="translate(524.23898,453.93678)"
           sodipodi:nodetypes="cccsccsccscccccccc" />
        <path
           id="path899"
           style="fill:#ffffff;fill-opacity:1;stroke:none;stroke-width:5.34653;stroke-linecap:round;stroke-linejoin:round;stroke-miterlimit:4;stroke-dasharray:none"
           d="m 562.88106,480.05554 a 4.7729707,4.7729707 0 0 1 -4.77297,4.77297 4.7729707,4.7729707 0 0 1 -4.77297,-4.77297 4.7729707,4.7729707 0 0 1 4.77297,-4.77297 4.7729707,4.7729707 0 0 1 4.77297,4.77297" />
      </g>
    </g>
    <path
       id="path17877"
       style="fill:none;stroke:#231f20;stroke-width:0.27;stroke-linecap:butt;stroke-linejoin:bevel;stroke-miterlimit:22.926;stroke-dasharray:none;stroke-opacity:1"
       d="m 318.81931,567.72778 h 62.3625 0.0163 0.0163 c 0.18125,-0.001 0.36125,-0.0137 0.54,-0.0387 0.18,-0.0238 0.3575,-0.06 0.53125,-0.11 0.175,-0.045 0.3475,-0.10375 0.51375,-0.17375 0.16625,-0.07 0.32875,-0.15125 0.48375,-0.24375 0.1575,-0.09 0.3075,-0.19 0.45125,-0.30125 0.1425,-0.11 0.27875,-0.23 0.40625,-0.3575 0.12875,-0.1275 0.24875,-0.26375 0.35875,-0.40625 0.11,-0.14375 0.21,-0.295 0.3,-0.45125 0.0925,-0.15625 0.1725,-0.3175 0.2425,-0.485 0.07,-0.16625 0.12875,-0.33875 0.175,-0.5125 0.05,-0.175 0.0875,-0.3525 0.1125,-0.53125 0.025,-0.18 0.0375,-0.36 0.0362,-0.54 v -62.42875 c -10e-4,-0.18 -0.0137,-0.36125 -0.0375,-0.54 -0.0238,-0.18 -0.0613,-0.35625 -0.11125,-0.53125 -0.045,-0.175 -0.1025,-0.34625 -0.1725,-0.5125 -0.0712,-0.1675 -0.1525,-0.32875 -0.245,-0.485 -0.09,-0.15625 -0.19,-0.3075 -0.3,-0.45125 -0.11,-0.1425 -0.23,-0.27875 -0.35875,-0.405 -0.1275,-0.13 -0.26375,-0.24875 -0.40625,-0.36 -0.14375,-0.11 -0.29375,-0.21 -0.45125,-0.3 -0.15625,-0.0913 -0.3175,-0.1725 -0.48375,-0.2425 -0.1675,-0.07 -0.33875,-0.12875 -0.51375,-0.175 -0.17375,-0.05 -0.35125,-0.0875 -0.53125,-0.1125 -0.17875,-0.025 -0.36,-0.0375 -0.54,-0.0362 h -62.4275 c -0.18125,0.001 -0.36125,0.0138 -0.54125,0.0375 -0.17875,0.025 -0.35625,0.0612 -0.53,0.11125 -0.175,0.045 -0.3475,0.1025 -0.51375,0.1725 -0.16625,0.0712 -0.32875,0.1525 -0.485,0.245 -0.15625,0.09 -0.3075,0.19 -0.45,0.3 -0.14375,0.11125 -0.27875,0.23 -0.40625,0.36 -0.12875,0.12625 -0.24875,0.2625 -0.35875,0.405 -0.11,0.14375 -0.21125,0.295 -0.30125,0.45125 -0.0913,0.15625 -0.1725,0.31875 -0.2425,0.485 -0.0687,0.16625 -0.1275,0.33875 -0.175,0.5125 -0.0488,0.175 -0.0863,0.3525 -0.1125,0.53125 -0.025,0.17875 -0.0375,0.36 -0.035,0.54 v 0.0162 l -10e-4,0.0175 v 62.36125 l 10e-4,0.0163 v 0.0175 c 0.001,0.18 0.0125,0.36 0.0375,0.54 0.0238,0.17875 0.0612,0.35625 0.11,0.53125 0.045,0.175 0.10375,0.34625 0.17375,0.5125 0.07,0.1675 0.15125,0.32875 0.24375,0.485 0.09,0.15625 0.19125,0.3075 0.30125,0.45 0.11,0.14375 0.23,0.28 0.35875,0.4075 0.1275,0.1275 0.2625,0.2475 0.40625,0.35875 0.1425,0.11 0.29375,0.21 0.45,0.3 0.15625,0.0913 0.31875,0.1725 0.485,0.2425 0.1675,0.07 0.33875,0.12875 0.51375,0.175 0.17375,0.05 0.35125,0.0875 0.53125,0.1125 0.17875,0.025 0.35875,0.0375 0.54,0.0362 h 0.0163 0.0163 z" />
  </g>
</svg>
