<?xml version="1.0" encoding="UTF-8" standalone="no"?>
<!-- Created with Inkscape (http://www.inkscape.org/) -->

<svg
   xmlns:dc="http://purl.org/dc/elements/1.1/"
   xmlns:cc="http://creativecommons.org/ns#"
   xmlns:rdf="http://www.w3.org/1999/02/22-rdf-syntax-ns#"
   xmlns:svg="http://www.w3.org/2000/svg"
   xmlns="http://www.w3.org/2000/svg"
   xmlns:sodipodi="http://sodipodi.sourceforge.net/DTD/sodipodi-0.dtd"
   xmlns:inkscape="http://www.inkscape.org/namespaces/inkscape"
   width="71.136543"
   height="48.275295"
   id="svg5145"
   version="1.1"
   inkscape:version="0.47 r22583"
   sodipodi:docname="Neues Dokument 11">
  <defs
     id="defs5147" />
  <sodipodi:namedview
     id="base"
     pagecolor="#ffffff"
     bordercolor="#666666"
     borderopacity="1.0"
     inkscape:pageopacity="0.0"
     inkscape:pageshadow="2"
     inkscape:zoom="10.833699"
     inkscape:cx="35.568272"
     inkscape:cy="24.137648"
     inkscape:document-units="px"
     inkscape:current-layer="layer1"
     showgrid="false"
     inkscape:window-width="1280"
     inkscape:window-height="748"
     inkscape:window-x="-8"
     inkscape:window-y="-8"
     inkscape:window-maximized="1" />
  <metadata
     id="metadata5150">
    <rdf:RDF>
      <cc:Work
         rdf:about="">
        <dc:format>image/svg+xml</dc:format>
        <dc:type
           rdf:resource="http://purl.org/dc/dcmitype/StillImage" />
        <dc:title></dc:title>
      </cc:Work>
    </rdf:RDF>
  </metadata>
  <g
     inkscape:label="Ebene 1"
     inkscape:groupmode="layer"
     id="layer1"
     transform="translate(189.85399,131.77547)">
    <path
       id="path17249"
       style="fill:none;stroke:#231f20;stroke-width:0.27000001;stroke-linecap:butt;stroke-linejoin:bevel;stroke-miterlimit:22.9260006;stroke-opacity:1;stroke-dasharray:none"
       d="m -186.38129,-83.680267 64.2175,0 c 0.14125,-0.001 0.28375,-0.0112 0.425,-0.03 0.14,-0.0188 0.28,-0.0475 0.4175,-0.0863 0.1375,-0.0362 0.2725,-0.0813 0.40375,-0.13625 0.13125,-0.0562 0.25875,-0.12 0.38,-0.1925 0.12375,-0.0713 0.2425,-0.15 0.355,-0.23625 0.11375,-0.0875 0.22,-0.18125 0.32,-0.2825 0.10125,-0.1 0.19625,-0.2075 0.2825,-0.32 0.0862,-0.1125 0.16625,-0.23125 0.23625,-0.355 0.0725,-0.1225 0.13625,-0.25 0.19125,-0.38 0.055,-0.1325 0.1,-0.26625 0.1375,-0.40375 0.0387,-0.1375 0.0687,-0.2775 0.0888,-0.41875 0.02,-0.14 0.0287,-0.2825 0.0275,-0.425 l 0,-41.382503 c 0,-0.14125 -0.01,-0.28375 -0.0288,-0.42375 -0.02,-0.1425 -0.0487,-0.28125 -0.0875,-0.41875 -0.035,-0.1375 -0.0813,-0.2725 -0.13625,-0.40375 -0.055,-0.13125 -0.12,-0.2575 -0.1925,-0.38125 -0.0712,-0.1225 -0.15,-0.24125 -0.23625,-0.35375 -0.0863,-0.1125 -0.18125,-0.22 -0.2825,-0.32 -0.1,-0.10125 -0.20625,-0.195 -0.32,-0.2825 -0.1125,-0.0862 -0.23125,-0.16625 -0.355,-0.23625 -0.12125,-0.0725 -0.24875,-0.13625 -0.38,-0.19125 -0.13125,-0.055 -0.26625,-0.1 -0.40375,-0.1375 -0.1375,-0.0387 -0.2775,-0.0687 -0.4175,-0.0887 -0.14125,-0.0188 -0.28375,-0.0288 -0.425,-0.0275 l -64.24375,0 c -0.14125,0 -0.28375,0.01 -0.425,0.03 -0.14,0.0187 -0.28,0.0475 -0.4175,0.0862 -0.1375,0.0363 -0.2725,0.0813 -0.40375,0.13625 -0.13125,0.055 -0.25875,0.12 -0.38125,0.1925 -0.1225,0.07 -0.24125,0.15 -0.35375,0.23625 -0.11375,0.0875 -0.22,0.18125 -0.32,0.2825 -0.10125,0.1 -0.19625,0.20625 -0.2825,0.32 -0.0862,0.1125 -0.16625,0.23125 -0.23625,0.35375 -0.0725,0.12375 -0.13625,0.25 -0.19125,0.38125 -0.055,0.13125 -0.1,0.26625 -0.1375,0.40375 -0.0387,0.1375 -0.0687,0.2775 -0.0887,0.41875 -0.02,0.14 -0.0288,0.2825 -0.0275,0.42375 l 0,41.382503 c 0,0.1425 0.01,0.285 0.0288,0.425 0.02,0.14125 0.0487,0.28125 0.0875,0.41875 0.0363,0.1375 0.0813,0.2725 0.13625,0.40375 0.0563,0.13125 0.12,0.2575 0.1925,0.38 0.0712,0.12375 0.15,0.2425 0.23625,0.355 0.0863,0.1125 0.18125,0.22 0.2825,0.32 0.1,0.10125 0.20625,0.195 0.32,0.2825 0.1125,0.0863 0.23,0.165 0.35375,0.23625 0.1225,0.0713 0.25,0.13625 0.38125,0.19 0.13125,0.055 0.26625,0.10125 0.40375,0.13875 0.1375,0.0387 0.2775,0.0675 0.4175,0.0875 0.14125,0.02 0.28375,0.03 0.425,0.0288 l 0.0263,0 z" />
    <path
       d="m -186.38129,-83.635267 -0.0263,0 c -0.14375,0 -0.2875,-0.0113 -0.43125,-0.03 -0.1425,-0.0187 -0.28375,-0.0487 -0.4225,-0.0875 -0.14,-0.0375 -0.2775,-0.0825 -0.41,-0.13875 -0.1325,-0.0562 -0.2625,-0.12125 -0.38625,-0.195 -0.125,-0.0712 -0.245,-0.1525 -0.36,-0.24 -0.11375,-0.0875 -0.2225,-0.18375 -0.32375,-0.28625 -0.1025,-0.10125 -0.19875,-0.21 -0.28625,-0.32375 -0.0875,-0.11375 -0.16875,-0.235 -0.24,-0.36 -0.0725,-0.12375 -0.1375,-0.2525 -0.1925,-0.38625 -0.0562,-0.1325 -0.1025,-0.27 -0.14,-0.40875 -0.04,-0.14 -0.07,-0.28125 -0.09,-0.42375 -0.02,-0.1425 -0.03,-0.2875 -0.0288,-0.43125 l 0,-41.382503 c 10e-4,-0.145 0.0113,-0.28875 0.03,-0.43125 0.02,-0.14375 0.0488,-0.285 0.0888,-0.42375 0.0362,-0.14 0.0825,-0.27625 0.13875,-0.40875 0.055,-0.13375 0.12,-0.2625 0.19375,-0.3875 0.0725,-0.12375 0.1525,-0.245 0.24,-0.35875 0.0875,-0.115 0.18375,-0.2225 0.28625,-0.32375 0.10125,-0.1025 0.21,-0.19875 0.32375,-0.28625 0.115,-0.0888 0.235,-0.16875 0.36,-0.24 0.12375,-0.0738 0.25375,-0.1375 0.38625,-0.19375 0.1325,-0.055 0.27,-0.1025 0.41,-0.14 0.13875,-0.0387 0.28,-0.0688 0.42375,-0.0888 0.1425,-0.02 0.28625,-0.03 0.43,-0.0288 l 64.24375,0 c 0.14375,0 0.2875,0.01 0.43125,0.03 0.1425,0.0188 0.28375,0.0488 0.4225,0.0875 0.14,0.0362 0.2775,0.0825 0.41,0.13875 0.1325,0.0563 0.2625,0.12125 0.38625,0.195 0.125,0.0712 0.245,0.15125 0.36,0.24 0.11375,0.0875 0.2225,0.18375 0.32375,0.28625 0.1025,0.10125 0.19875,0.20875 0.28625,0.32375 0.0875,0.11375 0.1675,0.23375 0.24,0.35875 0.0725,0.125 0.1375,0.25375 0.1925,0.3875 0.0562,0.1325 0.1025,0.27 0.14,0.40875 0.04,0.13875 0.07,0.28 0.09,0.42375 0.02,0.1425 0.03,0.28625 0.0288,0.43125 l 0,41.382503 c -10e-4,0.14375 -0.0112,0.28875 -0.03,0.43125 -0.02,0.1425 -0.0488,0.285 -0.0888,0.42375 -0.0362,0.13875 -0.0825,0.27625 -0.13875,0.40875 -0.055,0.13375 -0.12,0.2625 -0.19375,0.38625 -0.0725,0.125 -0.1525,0.24625 -0.24,0.36 -0.0875,0.11375 -0.18375,0.2225 -0.28625,0.32375 -0.10125,0.1025 -0.21,0.19875 -0.32375,0.28625 -0.115,0.0888 -0.235,0.16875 -0.36,0.24 -0.12375,0.0738 -0.25375,0.1375 -0.38625,0.19375 -0.1325,0.055 -0.27,0.1025 -0.41,0.14 -0.13875,0.0387 -0.28,0.0688 -0.42375,0.0888 -0.1425,0.02 -0.28625,0.03 -0.43,0.0288 l -64.2175,0 z"
       style="fill:#ffffff;stroke:#000000;stroke-width:0.27000001000000001;stroke-linecap:butt;stroke-linejoin:bevel;stroke-miterlimit:22.92600059999999800;stroke-opacity:1;stroke-dasharray:none"
       id="path17253" />
    <path
       id="path17257"
       style="fill:#003399;fill-opacity:1;fill-rule:evenodd;stroke:none"
       d="m -120.91004,-86.835267 0,0.015 0,0.015 c -0.001,0.05 -0.006,0.1 -0.0137,0.14875 -0.008,0.0487 -0.0188,0.0987 -0.0337,0.14625 -0.0125,0.0475 -0.03,0.095 -0.0513,0.14 -0.02,0.0462 -0.0425,0.09 -0.0687,0.1325 -0.0263,0.0425 -0.055,0.0838 -0.0863,0.1225 -0.0312,0.0387 -0.0662,0.075 -0.1025,0.10875 -0.0363,0.035 -0.0738,0.0675 -0.115,0.0963 -0.04,0.03 -0.0825,0.0562 -0.12625,0.08 -0.0437,0.0238 -0.0888,0.045 -0.135,0.0625 -0.0475,0.0175 -0.095,0.0325 -0.14375,0.0437 -0.0387,0.01 -0.0788,0.0175 -0.11875,0.0225 -0.04,0.006 -0.08,0.009 -0.12125,0.009 l -0.0125,0 -64.49375,0 -0.0162,0 c -0.0488,-0.001 -0.0988,-0.005 -0.1475,-0.0125 -0.05,-0.009 -0.0987,-0.0188 -0.14625,-0.0337 -0.0487,-0.0138 -0.095,-0.0312 -0.14125,-0.0513 -0.045,-0.02 -0.0888,-0.0437 -0.13125,-0.07 -0.0437,-0.0263 -0.0837,-0.055 -0.1225,-0.0863 -0.0388,-0.0312 -0.0763,-0.065 -0.11,-0.10125 -0.035,-0.0362 -0.0662,-0.075 -0.0962,-0.115 -0.0288,-0.0412 -0.055,-0.0825 -0.0788,-0.12625 -0.025,-0.045 -0.045,-0.09 -0.0625,-0.13625 -0.0187,-0.0462 -0.0325,-0.0937 -0.045,-0.1425 -0.009,-0.04 -0.0175,-0.0788 -0.0225,-0.12 -0.005,-0.04 -0.009,-0.08 -0.009,-0.12 l 0,-0.0138 0,-0.0137 0,-41.605003 0,-0.015 0,-0.015 c 0.001,-0.05 0.006,-0.0988 0.0137,-0.14875 0.008,-0.0488 0.0188,-0.0975 0.0338,-0.14625 0.0137,-0.0475 0.03,-0.095 0.05,-0.14 0.0213,-0.0463 0.045,-0.09 0.0712,-0.1325 0.025,-0.0425 0.0538,-0.0825 0.085,-0.1225 0.0325,-0.0388 0.0662,-0.075 0.1025,-0.10875 0.0363,-0.035 0.0738,-0.0662 0.115,-0.0962 0.04,-0.0288 0.0825,-0.055 0.12625,-0.08 0.0438,-0.0238 0.0888,-0.0437 0.135,-0.0625 0.0475,-0.0175 0.095,-0.0325 0.14375,-0.0437 0.0387,-0.01 0.0788,-0.0175 0.11875,-0.0225 0.04,-0.005 0.0812,-0.007 0.12125,-0.009 l 0.0137,0 64.49375,0 0.0137,0 c 0.05,0.001 0.1,0.006 0.15,0.0137 0.0488,0.008 0.0975,0.0188 0.145,0.0325 0.0487,0.0138 0.095,0.0312 0.14125,0.0512 0.045,0.0213 0.0888,0.0438 0.13125,0.07 0.0425,0.0263 0.0837,0.055 0.1225,0.0863 0.0388,0.0312 0.0763,0.0663 0.11,0.1025 0.035,0.035 0.0662,0.0738 0.0962,0.11375 0.0288,0.0412 0.055,0.0838 0.0788,0.1275 0.0237,0.0438 0.045,0.0888 0.0637,0.135 0.0175,0.0475 0.0325,0.095 0.0437,0.14375 0.01,0.0387 0.0175,0.0788 0.0225,0.11875 0.005,0.04 0.007,0.08 0.009,0.12 l 0,0.0137 0,41.618753" />
    <path
       id="path17261"
       style="fill:#ffffff;fill-opacity:1;fill-rule:evenodd;stroke:none"
       d="m -172.57379,-103.98027 -3.6575,-6.8575 17.37375,0 0,-6.85875 9.14375,0 0,6.85875 17.37375,0 -3.6575,6.8575 -36.57625,0" />
  </g>
</svg>
