<?xml version="1.0" encoding="UTF-8" standalone="no"?>
<!-- Created with Inkscape (http://www.inkscape.org/) -->

<svg
   xmlns:dc="http://purl.org/dc/elements/1.1/"
   xmlns:cc="http://creativecommons.org/ns#"
   xmlns:rdf="http://www.w3.org/1999/02/22-rdf-syntax-ns#"
   xmlns:svg="http://www.w3.org/2000/svg"
   xmlns="http://www.w3.org/2000/svg"
   xmlns:sodipodi="http://sodipodi.sourceforge.net/DTD/sodipodi-0.dtd"
   xmlns:inkscape="http://www.inkscape.org/namespaces/inkscape"
   width="64.791489"
   height="64.791489"
   id="svg14451"
   version="1.1"
   inkscape:version="0.47 r22583"
   sodipodi:docname="E.5.15 Erlaubnis.svg">
  <defs
     id="defs14453" />
  <sodipodi:namedview
     id="base"
     pagecolor="#ffffff"
     bordercolor="#666666"
     borderopacity="1.0"
     inkscape:pageopacity="0.0"
     inkscape:pageshadow="2"
     inkscape:zoom="7.0428058"
     inkscape:cx="32.39625"
     inkscape:cy="32.395629"
     inkscape:document-units="px"
     inkscape:current-layer="layer1"
     showgrid="false"
     inkscape:window-width="1280"
     inkscape:window-height="748"
     inkscape:window-x="-8"
     inkscape:window-y="-8"
     inkscape:window-maximized="1" />
  <metadata
     id="metadata14456">
    <rdf:RDF>
      <cc:Work
         rdf:about="">
        <dc:format>image/svg+xml</dc:format>
        <dc:type
           rdf:resource="http://purl.org/dc/dcmitype/StillImage" />
        <dc:title />
      </cc:Work>
    </rdf:RDF>
  </metadata>
  <g
     inkscape:label="Ebene 1"
     inkscape:groupmode="layer"
     id="layer1"
     transform="translate(-317.60375,-499.96632)">
    <path
       id="path17837"
       style="fill:none;stroke:#231f20;stroke-width:0.27000001;stroke-linecap:butt;stroke-linejoin:bevel;stroke-miterlimit:22.9260006;stroke-opacity:1;stroke-dasharray:none"
       d="m 318.81882,567.72772 62.3625,0 0.0162,0 0.0163,0 c 0.18125,-10e-4 0.36125,-0.0138 0.54,-0.0388 0.18,-0.0237 0.3575,-0.06 0.53125,-0.11 0.175,-0.045 0.3475,-0.10375 0.51375,-0.17375 0.16625,-0.07 0.32875,-0.15125 0.48375,-0.24375 0.1575,-0.09 0.3075,-0.19 0.45125,-0.30125 0.1425,-0.11 0.27875,-0.23 0.40625,-0.35875 0.12875,-0.12625 0.24875,-0.2625 0.35875,-0.405 0.11,-0.14375 0.21,-0.295 0.3,-0.45125 0.0925,-0.15625 0.1725,-0.3175 0.2425,-0.485 0.07,-0.16625 0.12875,-0.33875 0.175,-0.5125 0.05,-0.175 0.0875,-0.3525 0.1125,-0.53125 0.025,-0.18 0.0375,-0.36 0.0362,-0.54 l 0,-62.42875 c -0.001,-0.18 -0.0138,-0.36125 -0.0375,-0.54 -0.0237,-0.18 -0.0612,-0.35625 -0.11125,-0.53125 -0.045,-0.175 -0.1025,-0.34625 -0.1725,-0.5125 -0.0712,-0.1675 -0.1525,-0.32875 -0.245,-0.485 -0.09,-0.15625 -0.19,-0.3075 -0.3,-0.45125 -0.11,-0.1425 -0.23,-0.27875 -0.35875,-0.405 -0.1275,-0.13 -0.26375,-0.24875 -0.40625,-0.36 -0.14375,-0.11 -0.29375,-0.21 -0.45125,-0.3 -0.15625,-0.0913 -0.3175,-0.1725 -0.485,-0.2425 -0.16625,-0.07 -0.3375,-0.12875 -0.5125,-0.175 -0.17375,-0.05 -0.35125,-0.0875 -0.53125,-0.1125 -0.17875,-0.025 -0.36,-0.0375 -0.54,-0.0362 l -62.4275,0 c -0.18125,0.001 -0.36125,0.0138 -0.54125,0.0375 -0.17875,0.025 -0.35625,0.0612 -0.53,0.11125 -0.17625,0.045 -0.3475,0.1025 -0.51375,0.1725 -0.1675,0.0712 -0.32875,0.1525 -0.485,0.245 -0.15625,0.09 -0.3075,0.19 -0.45,0.3 -0.14375,0.11125 -0.27875,0.23 -0.40625,0.36 -0.12875,0.12625 -0.24875,0.2625 -0.35875,0.405 -0.11125,0.14375 -0.21125,0.295 -0.30125,0.45125 -0.0913,0.15625 -0.1725,0.31875 -0.2425,0.485 -0.0688,0.16625 -0.1275,0.33875 -0.175,0.5125 -0.0488,0.175 -0.0863,0.3525 -0.1125,0.53125 -0.025,0.17875 -0.0375,0.36 -0.035,0.54 l 0,0.0163 -10e-4,0.0175 0,62.36125 10e-4,0.0163 0,0.0175 c 0,0.18 0.0125,0.36 0.0375,0.54 0.0237,0.17875 0.0612,0.35625 0.11,0.53125 0.045,0.175 0.10375,0.34625 0.17375,0.5125 0.07,0.1675 0.15125,0.32875 0.24375,0.485 0.09,0.15625 0.19125,0.3075 0.30125,0.45 0.11,0.14375 0.23,0.28 0.35875,0.40625 0.1275,0.12875 0.2625,0.24875 0.40625,0.36 0.1425,0.11 0.29375,0.21 0.45,0.3 0.15625,0.0913 0.31875,0.1725 0.485,0.2425 0.1675,0.07 0.33875,0.12875 0.51375,0.175 0.17375,0.05 0.35125,0.0875 0.53125,0.1125 0.17875,0.025 0.35875,0.0375 0.54,0.0362 l 0.0163,0 0.0162,0 z" />
    <path
       d="m 318.81882,567.79522 -0.0337,0 c -0.18375,-10e-4 -0.36625,-0.0138 -0.54875,-0.0388 -0.1825,-0.0237 -0.3625,-0.0625 -0.53875,-0.11125 -0.17875,-0.0463 -0.35375,-0.10625 -0.5225,-0.1775 -0.17,-0.0713 -0.33375,-0.15375 -0.49125,-0.2475 -0.16,-0.0912 -0.3125,-0.19375 -0.45875,-0.30625 -0.14625,-0.11125 -0.28375,-0.23375 -0.4125,-0.36375 -0.13125,-0.13 -0.25375,-0.2675 -0.365,-0.4125 -0.1125,-0.14625 -0.21375,-0.29875 -0.30625,-0.45875 -0.0925,-0.15875 -0.175,-0.3225 -0.24625,-0.4925 -0.07,-0.17 -0.13,-0.34375 -0.1775,-0.52125 -0.05,-0.1775 -0.0888,-0.3575 -0.11375,-0.54 -0.0263,-0.18125 -0.0375,-0.365 -0.0375,-0.54875 l 0,-62.42875 c 10e-4,-0.18375 0.015,-0.3675 0.0387,-0.54875 0.025,-0.1825 0.0625,-0.3625 0.1125,-0.54 0.0462,-0.1775 0.105,-0.3525 0.17625,-0.5225 0.0712,-0.16875 0.15375,-0.3325 0.2475,-0.49125 0.0925,-0.15875 0.195,-0.3125 0.30625,-0.4575 0.1125,-0.14625 0.23375,-0.28375 0.365,-0.41375 0.12875,-0.13 0.26625,-0.2525 0.4125,-0.36375 0.145,-0.1125 0.29875,-0.215 0.45875,-0.30625 0.1575,-0.0925 0.3225,-0.175 0.49125,-0.24625 0.17,-0.0713 0.34375,-0.13 0.5225,-0.17875 0.17625,-0.05 0.35625,-0.0875 0.53875,-0.11375 0.1825,-0.025 0.36625,-0.0375 0.54875,-0.0362 l 62.42875,0 c 0.18375,0.001 0.3675,0.0138 0.55,0.0387 0.18125,0.0238 0.3625,0.0625 0.53875,0.11125 0.17875,0.0463 0.3525,0.10625 0.5225,0.1775 0.16875,0.0713 0.33375,0.15375 0.49125,0.2475 0.15875,0.0913 0.3125,0.19375 0.45875,0.30625 0.145,0.11125 0.28375,0.23375 0.4125,0.36375 0.13125,0.13 0.2525,0.2675 0.365,0.41375 0.1125,0.145 0.21375,0.29875 0.305,0.4575 0.0937,0.15875 0.17625,0.3225 0.24625,0.4925 0.0713,0.17 0.13125,0.34375 0.17875,0.52125 0.05,0.1775 0.0875,0.3575 0.11375,0.54 0.0263,0.18125 0.0375,0.365 0.0362,0.54875 l 0,62.42875 c -0.001,0.18375 -0.0138,0.3675 -0.0387,0.54875 -0.0238,0.1825 -0.0613,0.3625 -0.11125,0.54 -0.0462,0.1775 -0.105,0.3525 -0.1775,0.52125 -0.0712,0.17 -0.15375,0.33375 -0.2475,0.4925 -0.0912,0.15875 -0.19375,0.3125 -0.305,0.45875 -0.1125,0.145 -0.23375,0.2825 -0.365,0.4125 -0.12875,0.13 -0.2675,0.2525 -0.4125,0.365 -0.14625,0.11125 -0.29875,0.21375 -0.45875,0.305 -0.15875,0.0937 -0.3225,0.175 -0.4925,0.24625 -0.16875,0.0712 -0.34375,0.13 -0.52125,0.17875 -0.17625,0.0487 -0.3575,0.0875 -0.54,0.1125 -0.18125,0.0263 -0.365,0.0387 -0.54875,0.0375 l -62.395,0 z"
       style="fill:#ffffff;stroke:#000000;stroke-width:0.27000001;stroke-linecap:butt;stroke-linejoin:bevel;stroke-miterlimit:22.9260006;stroke-opacity:1;stroke-dasharray:none"
       id="path17841" />
    <path
       id="path17845"
       style="fill:#003499;fill-opacity:1;fill-rule:evenodd;stroke:none"
       d="m 318.81882,564.75897 -0.01,0 c -0.0525,0 -0.105,-0.004 -0.15625,-0.0113 -0.0525,-0.006 -0.10375,-0.0175 -0.155,-0.0325 -0.05,-0.0125 -0.1,-0.03 -0.14875,-0.05 -0.0475,-0.02 -0.095,-0.0438 -0.14,-0.0713 -0.0463,-0.0263 -0.09,-0.055 -0.13125,-0.0875 -0.0412,-0.0312 -0.0812,-0.0662 -0.1175,-0.10375 -0.0375,-0.0362 -0.0725,-0.0762 -0.105,-0.1175 -0.0312,-0.0412 -0.0613,-0.085 -0.0862,-0.13125 -0.0275,-0.045 -0.05,-0.0925 -0.0713,-0.14 -0.02,-0.0488 -0.0375,-0.0987 -0.05,-0.14875 -0.015,-0.0512 -0.0263,-0.1025 -0.0337,-0.155 -0.006,-0.0512 -0.01,-0.10375 -0.01,-0.15625 l 0,-0.01 0,-62.3625 0,-0.009 c 0,-0.0525 0.004,-0.105 0.0113,-0.1575 0.006,-0.0512 0.0175,-0.10375 0.0325,-0.15375 0.0125,-0.0512 0.03,-0.10125 0.05,-0.14875 0.02,-0.0488 0.0438,-0.0963 0.0713,-0.14125 0.025,-0.045 0.055,-0.0888 0.0875,-0.13 0.0312,-0.0425 0.0663,-0.0813 0.10375,-0.11875 0.0362,-0.0375 0.0762,-0.0725 0.1175,-0.10375 0.0413,-0.0325 0.085,-0.0612 0.13125,-0.0875 0.045,-0.0263 0.0925,-0.05 0.14,-0.0712 0.0488,-0.02 0.0987,-0.0362 0.14875,-0.05 0.0513,-0.015 0.1025,-0.025 0.155,-0.0325 0.0513,-0.008 0.10375,-0.0113 0.15625,-0.01 l 62.38125,0 c 0.0525,0 0.105,0.002 0.1575,0.01 0.0513,0.007 0.10375,0.0175 0.15375,0.0325 0.0513,0.0125 0.10125,0.03 0.14875,0.05 0.0487,0.0213 0.0962,0.045 0.14125,0.0712 0.045,0.0263 0.0888,0.055 0.13,0.0875 0.0425,0.0312 0.0813,0.0663 0.11875,0.10375 0.0375,0.0375 0.0725,0.0763 0.10375,0.11875 0.0325,0.0412 0.0613,0.085 0.0875,0.13 0.0263,0.045 0.05,0.0925 0.0713,0.14125 0.02,0.0475 0.0362,0.0975 0.05,0.14875 0.015,0.05 0.025,0.1025 0.0325,0.15375 0.008,0.0525 0.0113,0.105 0.01,0.1575 l 0,62.38125 c 0,0.0525 -0.002,0.105 -0.01,0.15625 -0.007,0.0525 -0.0175,0.10375 -0.0325,0.155 -0.0125,0.05 -0.03,0.1 -0.05,0.14875 -0.02,0.0475 -0.045,0.095 -0.0713,0.14 -0.0262,0.0462 -0.055,0.09 -0.0875,0.13125 -0.0312,0.0412 -0.0663,0.0812 -0.10375,0.1175 -0.0375,0.0375 -0.0762,0.0725 -0.11875,0.105 -0.0412,0.0312 -0.085,0.06 -0.13,0.0862 -0.045,0.0275 -0.0925,0.0513 -0.14125,0.0713 -0.0475,0.02 -0.0975,0.0375 -0.14875,0.05 -0.05,0.015 -0.1025,0.0263 -0.15375,0.0338 -0.0525,0.006 -0.105,0.01 -0.1575,0.01 l -0.009,0 -62.3625,0" />
    <path
       id="path17853"
       style="fill:#003499;fill-opacity:1;fill-rule:evenodd;stroke:none"
       d="m 345.27632,518.86397 0,10.79875 12.1475,0 0.0712,-0.001 c 0.0238,0 0.0475,0 0.07,-10e-4 0.23625,-0.005 0.47125,-0.025 0.70375,-0.0613 0.23375,-0.0362 0.46375,-0.09 0.68875,-0.15875 0.2275,-0.065 0.44875,-0.145 0.665,-0.24125 0.215,-0.0962 0.4225,-0.2075 0.6225,-0.3325 0.2025,-0.12125 0.395,-0.2575 0.57875,-0.405 0.1825,-0.14875 0.35625,-0.31 0.5175,-0.48125 0.1625,-0.17 0.315,-0.35125 0.4525,-0.5425 0.13875,-0.19 0.26375,-0.39 0.375,-0.59875 0.11375,-0.20625 0.21375,-0.42 0.29875,-0.64 0.0838,-0.22 0.1525,-0.44625 0.20625,-0.675 0.0487,-0.195 0.085,-0.39125 0.11,-0.59 0.025,-0.1975 0.0375,-0.3975 0.0387,-0.5975 10e-4,-0.0362 10e-4,-0.0713 10e-4,-0.1075 0,-0.035 -10e-4,-0.0712 -0.002,-0.1075 -0.005,-0.235 -0.0263,-0.47 -0.0625,-0.7025 -0.0362,-0.23375 -0.0888,-0.46375 -0.1575,-0.68875 -0.0637,-0.2275 -0.145,-0.45 -0.24125,-0.665 -0.0963,-0.215 -0.20625,-0.42375 -0.33125,-0.62375 -0.1225,-0.20125 -0.25875,-0.39375 -0.40625,-0.5775 -0.14875,-0.1825 -0.30875,-0.35625 -0.48125,-0.5175 -0.17,-0.1625 -0.35125,-0.315 -0.54125,-0.45375 -0.19125,-0.13875 -0.39125,-0.26375 -0.59875,-0.375 -0.2075,-0.11375 -0.42125,-0.2125 -0.64125,-0.2975 -0.22,-0.0838 -0.44625,-0.15375 -0.675,-0.2075 -0.185,-0.0462 -0.3725,-0.0812 -0.5625,-0.10625 -0.18875,-0.025 -0.37875,-0.0387 -0.57,-0.0412 -0.0213,0 -0.0425,-10e-4 -0.0637,-10e-4 l -0.0637,0 -12.14875,0" />
    <g
       id="g3717"
       transform="matrix(0,1.25,1.25,0,351.43125,558.09031)">
      <path
         d="m 0,0 -19.437,19.437 c -0.006,0.005 -0.011,0.01 -0.016,0.015 -0.005,0.005 -0.01,0.01 -0.015,0.015 -0.051,0.049 -0.105,0.094 -0.162,0.136 -0.057,0.042 -0.118,0.079 -0.18,0.113 -0.062,0.034 -0.126,0.064 -0.192,0.089 -0.066,0.026 -0.134,0.046 -0.203,0.062 -0.068,0.017 -0.138,0.029 -0.208,0.036 -0.071,0.008 -0.142,0.011 -0.212,0.008 -0.071,-0.001 -0.142,-0.007 -0.211,-0.018 -0.07,-0.011 -0.139,-0.027 -0.207,-0.048 -0.068,-0.019 -0.134,-0.044 -0.199,-0.073 -0.065,-0.028 -0.127,-0.062 -0.187,-0.099 -0.049,-0.03 -0.097,-0.062 -0.142,-0.097 -0.045,-0.034 -0.089,-0.072 -0.13,-0.112 L -21.715,19.451 -21.728,19.437 -41.166,0 l -0.015,-0.015 -0.014,-0.016 c -0.049,-0.051 -0.095,-0.105 -0.136,-0.162 -0.042,-0.057 -0.08,-0.117 -0.113,-0.18 -0.035,-0.062 -0.064,-0.126 -0.09,-0.192 -0.025,-0.066 -0.045,-0.133 -0.061,-0.202 -0.017,-0.069 -0.03,-0.139 -0.037,-0.209 -0.007,-0.071 -0.01,-0.141 -0.008,-0.212 0.002,-0.071 0.008,-0.141 0.019,-0.211 0.011,-0.07 0.027,-0.139 0.048,-0.207 0.019,-0.068 0.043,-0.134 0.072,-0.199 0.029,-0.064 0.062,-0.127 0.1,-0.187 0.029,-0.049 0.061,-0.096 0.096,-0.142 0.035,-0.045 0.072,-0.088 0.112,-0.129 0.005,-0.005 0.009,-0.01 0.014,-0.014 0.004,-0.005 0.009,-0.009 0.013,-0.014 l 19.438,-19.437 c 0.005,-0.005 0.01,-0.01 0.015,-0.015 0.005,-0.005 0.01,-0.01 0.015,-0.015 0.051,-0.049 0.105,-0.094 0.163,-0.136 0.057,-0.042 0.117,-0.079 0.179,-0.113 0.062,-0.034 0.126,-0.064 0.192,-0.089 0.066,-0.026 0.134,-0.046 0.203,-0.062 0.069,-0.017 0.139,-0.029 0.209,-0.037 0.07,-0.007 0.141,-0.01 0.212,-0.007 0.07,0.001 0.141,0.007 0.211,0.018 0.07,0.011 0.139,0.027 0.206,0.048 0.068,0.02 0.135,0.044 0.199,0.073 0.065,0.028 0.127,0.062 0.187,0.099 0.05,0.029 0.097,0.062 0.143,0.096 0.045,0.035 0.088,0.073 0.129,0.113 l 0.014,0.013 0.014,0.014 L 0,-2.291 0.015,-2.276 0.029,-2.26 c 0.05,0.051 0.095,0.105 0.137,0.162 0.041,0.057 0.079,0.117 0.112,0.18 0.035,0.061 0.065,0.126 0.09,0.192 0.025,0.066 0.046,0.133 0.062,0.202 0.016,0.069 0.029,0.139 0.036,0.209 0.008,0.071 0.01,0.141 0.008,0.212 -0.001,0.071 -0.008,0.141 -0.019,0.211 -0.011,0.07 -0.027,0.139 -0.047,0.207 -0.02,0.068 -0.044,0.134 -0.073,0.199 -0.029,0.064 -0.062,0.127 -0.099,0.187 -0.03,0.049 -0.062,0.096 -0.097,0.142 -0.035,0.045 -0.072,0.088 -0.112,0.129 -0.005,0.005 -0.009,0.01 -0.014,0.014 C 0.009,-0.009 0.005,-0.005 0,0"
         style="fill:#ffffff;fill-opacity:1;fill-rule:evenodd;stroke:none"
         id="path3719" />
    </g>
    <g
       id="g3721"
       transform="matrix(0,1.25,1.25,0,350.8025,542.53031)"
       style="fill:#003399;fill-opacity:1">
      <path
         d="m 0,0 -9.836,5.695 -0.012,0.006 c -0.02,0.011 -0.04,0.021 -0.061,0.029 -0.021,0.008 -0.043,0.015 -0.065,0.02 -0.022,0.005 -0.044,0.009 -0.067,0.012 -0.022,0.002 -0.045,0.003 -0.067,0.002 -0.023,0 -0.045,-0.002 -0.068,-0.006 -0.022,-0.003 -0.044,-0.008 -0.066,-0.015 -0.022,-0.006 -0.043,-0.014 -0.064,-0.023 -0.02,-0.009 -0.04,-0.02 -0.059,-0.032 -0.02,-0.011 -0.038,-0.024 -0.056,-0.039 -0.017,-0.014 -0.034,-0.029 -0.05,-0.045 -0.015,-0.017 -0.03,-0.034 -0.043,-0.053 -0.013,-0.018 -0.025,-0.037 -0.036,-0.057 -0.011,-0.02 -0.02,-0.04 -0.029,-0.061 -0.008,-0.021 -0.014,-0.043 -0.02,-0.065 -0.004,-0.018 -0.008,-0.036 -0.01,-0.054 -0.003,-0.018 -0.004,-0.037 -0.004,-0.055 l 0,-0.012 0,-11.39 0,-0.013 c 10e-4,-0.023 0.003,-0.045 0.006,-0.068 0.003,-0.022 0.009,-0.044 0.015,-0.066 0.006,-0.021 0.014,-0.043 0.023,-0.063 0.01,-0.021 0.02,-0.041 0.032,-0.06 0.012,-0.019 0.025,-0.038 0.039,-0.056 0.014,-0.017 0.03,-0.034 0.046,-0.049 0.017,-0.016 0.034,-0.03 0.052,-0.044 0.018,-0.013 0.038,-0.025 0.058,-0.036 0.019,-0.01 0.04,-0.02 0.061,-0.028 0.021,-0.008 0.043,-0.015 0.065,-0.02 0.022,-0.006 0.044,-0.009 0.067,-0.012 0.022,-0.002 0.045,-0.003 0.067,-0.002 0.023,0 0.045,0.002 0.067,0.006 0.023,0.003 0.045,0.008 0.067,0.015 0.017,0.005 0.035,0.011 0.052,0.018 0.017,0.007 0.033,0.015 0.049,0.024 l 0.011,0.006 9.836,5.695 0.012,0.007 c 0.019,0.012 0.038,0.025 0.055,0.039 0.018,0.014 0.034,0.03 0.05,0.046 0.015,0.017 0.03,0.034 0.043,0.052 0.013,0.018 0.025,0.038 0.036,0.058 0.011,0.019 0.02,0.04 0.029,0.061 0.007,0.021 0.014,0.043 0.019,0.065 0.006,0.022 0.009,0.044 0.012,0.067 0.002,0.022 0.003,0.045 0.002,0.067 0,0.023 -0.002,0.045 -0.006,0.068 -0.003,0.022 -0.008,0.044 -0.015,0.066 -0.006,0.021 -0.014,0.043 -0.023,0.063 -0.01,0.021 -0.02,0.041 -0.032,0.06 -0.012,0.019 -0.025,0.038 -0.039,0.055 -0.014,0.018 -0.03,0.034 -0.046,0.05 -0.013,0.012 -0.027,0.024 -0.041,0.035 -0.015,0.011 -0.03,0.022 -0.045,0.031 L 0,0"
         style="fill:#003399;fill-opacity:1;fill-rule:evenodd;stroke:none"
         id="path3723" />
    </g>
    <g
       id="g3725"
       transform="matrix(0,1.25,1.25,0,350.8025,556.76656)"
       style="fill:#003399;fill-opacity:1">
      <path
         d="m 0,0 -9.836,5.695 -0.012,0.006 c -0.02,0.011 -0.04,0.021 -0.061,0.029 -0.021,0.008 -0.043,0.015 -0.065,0.02 -0.022,0.005 -0.044,0.009 -0.067,0.012 -0.022,0.002 -0.045,0.003 -0.067,0.002 -0.023,0 -0.045,-0.002 -0.068,-0.006 -0.022,-0.003 -0.044,-0.008 -0.066,-0.015 -0.022,-0.006 -0.043,-0.014 -0.063,-0.023 -0.021,-0.009 -0.041,-0.02 -0.06,-0.032 -0.02,-0.011 -0.038,-0.024 -0.056,-0.039 -0.017,-0.014 -0.034,-0.029 -0.05,-0.045 -0.015,-0.017 -0.03,-0.034 -0.043,-0.053 -0.013,-0.018 -0.025,-0.037 -0.036,-0.057 -0.011,-0.02 -0.02,-0.04 -0.029,-0.061 -0.008,-0.021 -0.014,-0.043 -0.02,-0.065 -0.004,-0.018 -0.008,-0.036 -0.01,-0.054 -0.003,-0.018 -0.004,-0.037 -0.004,-0.055 l 0,-0.012 0,-11.39 0,-0.013 c 10e-4,-0.023 0.003,-0.045 0.006,-0.068 0.003,-0.022 0.009,-0.044 0.015,-0.066 0.006,-0.021 0.014,-0.043 0.023,-0.063 0.01,-0.021 0.02,-0.041 0.032,-0.06 0.012,-0.019 0.025,-0.038 0.039,-0.056 0.014,-0.017 0.03,-0.034 0.046,-0.049 0.017,-0.016 0.034,-0.03 0.052,-0.044 0.018,-0.013 0.038,-0.025 0.058,-0.036 0.019,-0.01 0.04,-0.02 0.061,-0.028 0.021,-0.008 0.043,-0.015 0.065,-0.02 0.022,-0.006 0.044,-0.009 0.067,-0.012 0.022,-0.002 0.045,-0.003 0.067,-0.002 0.023,0 0.045,0.002 0.067,0.006 0.023,0.003 0.045,0.008 0.067,0.015 0.017,0.005 0.035,0.011 0.052,0.018 0.017,0.007 0.033,0.015 0.049,0.024 l 0.011,0.006 9.836,5.695 0.012,0.007 c 0.019,0.012 0.038,0.025 0.055,0.039 0.018,0.014 0.034,0.03 0.05,0.046 0.015,0.017 0.03,0.034 0.043,0.052 0.013,0.018 0.025,0.038 0.036,0.058 0.011,0.019 0.02,0.04 0.028,0.061 0.008,0.021 0.015,0.043 0.02,0.065 0.006,0.022 0.009,0.044 0.012,0.067 0.002,0.022 0.003,0.045 0.002,0.067 0,0.023 -0.002,0.045 -0.006,0.068 -0.003,0.022 -0.009,0.044 -0.015,0.066 -0.006,0.021 -0.014,0.043 -0.023,0.063 -0.01,0.021 -0.02,0.041 -0.032,0.06 -0.012,0.019 -0.025,0.038 -0.039,0.055 -0.014,0.018 -0.03,0.034 -0.046,0.05 -0.013,0.012 -0.027,0.024 -0.041,0.035 -0.015,0.011 -0.03,0.022 -0.045,0.031 L 0,0"
         style="fill:#003399;fill-opacity:1;fill-rule:evenodd;stroke:none"
         id="path3727" />
    </g>
    <g
       id="g3729"
       transform="matrix(0,1.25,1.25,0,350.8025,528.26406)"
       style="fill:#003399;fill-opacity:1">
      <path
         d="m 0,0 -9.836,5.695 -0.012,0.006 c -0.02,0.011 -0.04,0.021 -0.061,0.029 -0.021,0.008 -0.043,0.015 -0.065,0.02 -0.022,0.005 -0.044,0.009 -0.067,0.012 -0.022,0.002 -0.045,0.003 -0.068,0.002 -0.022,0 -0.045,-0.002 -0.067,-0.006 -0.022,-0.003 -0.044,-0.008 -0.066,-0.015 -0.022,-0.006 -0.043,-0.014 -0.064,-0.023 -0.02,-0.009 -0.04,-0.02 -0.059,-0.032 -0.02,-0.011 -0.038,-0.024 -0.056,-0.039 -0.018,-0.014 -0.034,-0.029 -0.05,-0.046 -0.016,-0.016 -0.03,-0.033 -0.043,-0.052 -0.014,-0.018 -0.026,-0.037 -0.036,-0.057 -0.011,-0.02 -0.021,-0.04 -0.029,-0.061 -0.008,-0.021 -0.015,-0.043 -0.02,-0.065 -0.004,-0.018 -0.008,-0.036 -0.01,-0.054 -0.003,-0.019 -0.004,-0.037 -0.004,-0.055 l 0,-11.415 c 0,-0.023 0.002,-0.045 0.006,-0.068 0.003,-0.022 0.008,-0.044 0.015,-0.066 0.006,-0.022 0.014,-0.043 0.023,-0.064 0.009,-0.02 0.02,-0.04 0.032,-0.059 0.012,-0.02 0.025,-0.038 0.039,-0.056 0.014,-0.017 0.03,-0.034 0.046,-0.049 0.016,-0.016 0.034,-0.031 0.052,-0.044 0.018,-0.013 0.037,-0.025 0.057,-0.036 0.02,-0.011 0.041,-0.02 0.062,-0.028 0.021,-0.008 0.043,-0.015 0.065,-0.02 0.021,-0.006 0.044,-0.009 0.066,-0.012 0.023,-0.002 0.045,-0.003 0.068,-0.002 0.022,0 0.045,0.002 0.067,0.006 0.023,0.003 0.045,0.008 0.067,0.015 0.017,0.005 0.035,0.011 0.052,0.018 0.017,0.007 0.033,0.015 0.049,0.024 l 0.011,0.006 9.836,5.695 0.012,0.007 c 0.019,0.012 0.037,0.024 0.055,0.039 0.017,0.014 0.034,0.029 0.049,0.046 0.016,0.016 0.031,0.033 0.044,0.052 0.013,0.018 0.025,0.037 0.036,0.058 0.011,0.019 0.02,0.04 0.028,0.061 0.008,0.021 0.015,0.043 0.02,0.065 0.005,0.022 0.009,0.044 0.012,0.067 0.002,0.022 0.003,0.045 0.002,0.067 C 0.257,-0.411 0.255,-0.389 0.252,-0.367 0.248,-0.344 0.243,-0.322 0.237,-0.3 0.23,-0.279 0.222,-0.257 0.213,-0.237 0.204,-0.216 0.194,-0.196 0.182,-0.177 0.17,-0.158 0.157,-0.139 0.143,-0.122 0.128,-0.104 0.113,-0.088 0.096,-0.072 0.083,-0.06 0.07,-0.048 0.055,-0.037 0.041,-0.026 0.026,-0.016 0.01,-0.006 L 0,0"
         style="fill:#003399;fill-opacity:1;fill-rule:evenodd;stroke:none"
         id="path3731" />
    </g>
  </g>
</svg>
