<?xml version="1.0" encoding="UTF-8" standalone="no"?>
<!-- Created with Inkscape (http://www.inkscape.org/) -->

<svg
   xmlns:dc="http://purl.org/dc/elements/1.1/"
   xmlns:cc="http://creativecommons.org/ns#"
   xmlns:rdf="http://www.w3.org/1999/02/22-rdf-syntax-ns#"
   xmlns:svg="http://www.w3.org/2000/svg"
   xmlns="http://www.w3.org/2000/svg"
   xmlns:sodipodi="http://sodipodi.sourceforge.net/DTD/sodipodi-0.dtd"
   xmlns:inkscape="http://www.inkscape.org/namespaces/inkscape"
   width="71.136436"
   height="71.136421"
   id="svg6251"
   version="1.1"
   inkscape:version="0.47 r22583"
   sodipodi:docname="Neues Dokument 17">
  <defs
     id="defs6253" />
  <sodipodi:namedview
     id="base"
     pagecolor="#ffffff"
     bordercolor="#666666"
     borderopacity="1.0"
     inkscape:pageopacity="0.0"
     inkscape:pageshadow="2"
     inkscape:zoom="7.3520707"
     inkscape:cx="35.568218"
     inkscape:cy="35.568211"
     inkscape:document-units="px"
     inkscape:current-layer="layer1"
     showgrid="false"
     inkscape:window-width="1280"
     inkscape:window-height="748"
     inkscape:window-x="-8"
     inkscape:window-y="-8"
     inkscape:window-maximized="1" />
  <metadata
     id="metadata6256">
    <rdf:RDF>
      <cc:Work
         rdf:about="">
        <dc:format>image/svg+xml</dc:format>
        <dc:type
           rdf:resource="http://purl.org/dc/dcmitype/StillImage" />
        <dc:title></dc:title>
      </cc:Work>
    </rdf:RDF>
  </metadata>
  <g
     inkscape:label="Ebene 1"
     inkscape:groupmode="layer"
     id="layer1"
     transform="translate(-314.43186,-496.79397)">
    <path
       id="path17857"
       style="fill:none;stroke:#231f20;stroke-width:0.27000001;stroke-linecap:butt;stroke-linejoin:bevel;stroke-miterlimit:22.9260006;stroke-opacity:1;stroke-dasharray:none"
       d="m 318.81931,567.72781 62.37875,0 0.0163,0 c 0.18125,-10e-4 0.36125,-0.0137 0.54,-0.0375 0.18,-0.025 0.3575,-0.0613 0.53125,-0.11125 0.175,-0.045 0.3475,-0.10375 0.51375,-0.17375 0.16625,-0.07 0.32875,-0.15125 0.48375,-0.24375 0.1575,-0.09 0.3075,-0.19 0.45125,-0.30125 0.14375,-0.11 0.27875,-0.23 0.40625,-0.3575 0.12875,-0.1275 0.24875,-0.26375 0.35875,-0.40625 0.11,-0.14375 0.21,-0.295 0.3,-0.45125 0.0925,-0.15625 0.17375,-0.31875 0.2425,-0.485 0.07,-0.16625 0.12875,-0.3375 0.175,-0.5125 0.05,-0.175 0.0875,-0.3525 0.1125,-0.53125 0.025,-0.18 0.0375,-0.36 0.0362,-0.54 l 0,-62.42875 c 0,-0.18 -0.0137,-0.36125 -0.0375,-0.54 -0.0238,-0.18 -0.0613,-0.3575 -0.11125,-0.53125 -0.045,-0.175 -0.1025,-0.34625 -0.1725,-0.51375 -0.07,-0.16625 -0.1525,-0.32875 -0.245,-0.48375 -0.09,-0.15625 -0.19,-0.3075 -0.3,-0.45125 -0.11,-0.1425 -0.23,-0.27875 -0.35875,-0.405 -0.1275,-0.13 -0.2625,-0.25 -0.40625,-0.36 -0.14375,-0.11 -0.29375,-0.21 -0.45125,-0.3 -0.155,-0.0912 -0.3175,-0.1725 -0.48375,-0.2425 -0.1675,-0.07 -0.33875,-0.12875 -0.51375,-0.175 -0.17375,-0.05 -0.35125,-0.0875 -0.53125,-0.1125 -0.17875,-0.025 -0.35875,-0.0375 -0.54,-0.0362 l -62.4275,0 c -0.18125,0.001 -0.36125,0.0138 -0.54125,0.0375 -0.17875,0.025 -0.35625,0.0612 -0.53,0.11125 -0.175,0.045 -0.3475,0.1025 -0.51375,0.1725 -0.16625,0.0712 -0.32875,0.1525 -0.485,0.245 -0.15625,0.09 -0.3075,0.19 -0.45,0.3 -0.14375,0.11125 -0.27875,0.23 -0.40625,0.36 -0.12875,0.12625 -0.24875,0.2625 -0.35875,0.405 -0.11125,0.14375 -0.21125,0.295 -0.30125,0.45125 -0.0913,0.15625 -0.1725,0.3175 -0.2425,0.485 -0.0687,0.16625 -0.1275,0.3375 -0.175,0.5125 -0.05,0.175 -0.0862,0.3525 -0.1125,0.53125 -0.025,0.17875 -0.0375,0.36 -0.035,0.54 l -10e-4,0.0163 0,62.39625 10e-4,0.0162 c 0,0.18 0.0125,0.36 0.0375,0.54 0.0238,0.17875 0.0612,0.35625 0.11,0.53125 0.045,0.175 0.10375,0.34625 0.17375,0.51375 0.07,0.16625 0.15125,0.3275 0.24375,0.48375 0.09,0.15625 0.19125,0.3075 0.30125,0.45125 0.11,0.1425 0.23,0.27875 0.35875,0.40625 0.1275,0.1275 0.2625,0.2475 0.40625,0.35875 0.1425,0.11 0.29375,0.21 0.45,0.3 0.15625,0.0913 0.31875,0.1725 0.485,0.2425 0.16625,0.07 0.33875,0.12875 0.51375,0.175 0.17375,0.05 0.35125,0.0875 0.53125,0.1125 0.17875,0.025 0.35875,0.0375 0.54,0.0362 l 0.0163,0 0.0162,0 z" />
    <path
       d="m 318.81931,567.79531 -0.0337,0 c -0.18375,-10e-4 -0.36625,-0.0138 -0.54875,-0.0388 -0.1825,-0.0237 -0.3625,-0.0625 -0.54,-0.11125 -0.1775,-0.0463 -0.3525,-0.10625 -0.52125,-0.1775 -0.17,-0.0713 -0.33375,-0.15375 -0.49125,-0.2475 -0.16,-0.0913 -0.31375,-0.19375 -0.45875,-0.30625 -0.14625,-0.11125 -0.28375,-0.23375 -0.4125,-0.36375 -0.13125,-0.13 -0.25375,-0.2675 -0.365,-0.4125 -0.1125,-0.14625 -0.215,-0.29875 -0.30625,-0.45875 -0.0925,-0.15875 -0.175,-0.3225 -0.245,-0.4925 -0.0713,-0.16875 -0.13125,-0.34375 -0.17875,-0.52125 -0.05,-0.1775 -0.0888,-0.3575 -0.11375,-0.54 -0.0263,-0.18125 -0.0375,-0.365 -0.0375,-0.54875 l 0,-62.42875 c 10e-4,-0.18375 0.015,-0.3675 0.0388,-0.54875 0.025,-0.1825 0.0625,-0.3625 0.1125,-0.54 0.0463,-0.1775 0.105,-0.3525 0.17625,-0.5225 0.0712,-0.16875 0.15375,-0.3325 0.2475,-0.49125 0.0925,-0.15875 0.19375,-0.3125 0.30625,-0.4575 0.1125,-0.14625 0.23375,-0.28375 0.365,-0.41375 0.12875,-0.13 0.26625,-0.2525 0.4125,-0.36375 0.145,-0.1125 0.29875,-0.215 0.45875,-0.30625 0.1575,-0.0925 0.32125,-0.175 0.49125,-0.24625 0.17,-0.0713 0.34375,-0.13 0.52125,-0.1775 0.1775,-0.0513 0.3575,-0.0888 0.54,-0.115 0.1825,-0.025 0.365,-0.0375 0.54875,-0.0362 l 62.42875,0 c 0.185,0.001 0.3675,0.0138 0.55,0.0387 0.18125,0.025 0.3625,0.0625 0.53875,0.1125 0.17875,0.045 0.3525,0.105 0.5225,0.17625 0.17,0.0712 0.33375,0.15375 0.49125,0.2475 0.16,0.0912 0.3125,0.19375 0.45875,0.30625 0.14625,0.11125 0.28375,0.23375 0.4125,0.36375 0.13125,0.13 0.2525,0.2675 0.365,0.41375 0.1125,0.145 0.21375,0.29875 0.305,0.4575 0.0937,0.15875 0.17625,0.3225 0.24625,0.4925 0.0712,0.17 0.13125,0.34375 0.17875,0.52125 0.05,0.1775 0.0888,0.3575 0.11375,0.54 0.0263,0.18125 0.0375,0.365 0.0363,0.54875 l 0,62.42875 c -10e-4,0.18375 -0.0138,0.3675 -0.0388,0.54875 -0.0237,0.1825 -0.0613,0.3625 -0.11125,0.54 -0.0463,0.1775 -0.105,0.3525 -0.1775,0.52125 -0.0712,0.17 -0.15375,0.33375 -0.2475,0.4925 -0.0913,0.15875 -0.1925,0.3125 -0.305,0.45875 -0.1125,0.145 -0.23375,0.2825 -0.365,0.4125 -0.12875,0.13 -0.26625,0.2525 -0.4125,0.365 -0.14625,0.11125 -0.29875,0.21375 -0.45875,0.305 -0.15875,0.0925 -0.3225,0.175 -0.4925,0.24625 -0.16875,0.0712 -0.34375,0.13 -0.52125,0.17875 -0.17625,0.05 -0.3575,0.0875 -0.53875,0.11375 -0.1825,0.025 -0.36625,0.0375 -0.55,0.0363 l -62.395,0 z"
       style="fill:#ffffff;stroke:#000000;stroke-width:0.27000001000000001;stroke-linecap:butt;stroke-linejoin:bevel;stroke-miterlimit:22.92600059999999800;stroke-opacity:1;stroke-dasharray:none"
       id="path17861" />
    <path
       id="path17865"
       style="fill:#003499;fill-opacity:1;fill-rule:evenodd;stroke:none"
       d="m 318.81931,564.75781 -0.01,0 c -0.0525,0 -0.105,-0.004 -0.15625,-0.0112 -0.0525,-0.006 -0.10375,-0.0175 -0.155,-0.0325 -0.05,-0.0125 -0.1,-0.0288 -0.14875,-0.05 -0.0475,-0.02 -0.095,-0.0437 -0.14,-0.0712 -0.0463,-0.0263 -0.09,-0.055 -0.13125,-0.0863 -0.0412,-0.0325 -0.0813,-0.0675 -0.1175,-0.105 -0.0375,-0.0363 -0.0725,-0.0763 -0.105,-0.1175 -0.0312,-0.0413 -0.06,-0.085 -0.0863,-0.13125 -0.0275,-0.045 -0.05,-0.0925 -0.0713,-0.14 -0.02,-0.0487 -0.0375,-0.0988 -0.05,-0.15 -0.015,-0.05 -0.0263,-0.10125 -0.0325,-0.15375 -0.007,-0.0512 -0.0113,-0.10375 -0.0113,-0.15625 l 0,-62.38125 c 0,-0.0525 0.004,-0.105 0.0113,-0.1575 0.007,-0.0525 0.0175,-0.10375 0.0325,-0.15375 0.0125,-0.0513 0.0288,-0.10125 0.05,-0.15 0.02,-0.0475 0.0437,-0.095 0.0713,-0.14 0.0263,-0.045 0.055,-0.0888 0.0863,-0.13125 0.0325,-0.0412 0.0675,-0.08 0.105,-0.1175 0.0362,-0.0375 0.0763,-0.0725 0.1175,-0.10375 0.0412,-0.0325 0.085,-0.0613 0.13125,-0.0875 0.045,-0.0263 0.0925,-0.05 0.14,-0.0713 0.0487,-0.02 0.0987,-0.0362 0.14875,-0.05 0.0512,-0.015 0.1025,-0.025 0.155,-0.0325 0.0513,-0.008 0.10375,-0.0113 0.15625,-0.0113 l 62.38125,0 c 0.0525,10e-4 0.105,0.004 0.1575,0.0113 0.0525,0.007 0.10375,0.0175 0.15375,0.0325 0.0512,0.0125 0.10125,0.03 0.15,0.05 0.0475,0.02 0.095,0.0438 0.14,0.0713 0.045,0.0262 0.0888,0.055 0.13125,0.0875 0.0413,0.0312 0.08,0.0663 0.1175,0.10375 0.0375,0.0375 0.0725,0.0762 0.10375,0.1175 0.0325,0.0425 0.0613,0.0863 0.0875,0.13125 0.0263,0.045 0.05,0.0925 0.0712,0.14125 0.02,0.0475 0.0363,0.0975 0.05,0.14875 0.015,0.05 0.025,0.10125 0.0325,0.15375 0.007,0.0525 0.0112,0.105 0.0112,0.1575 l 0,62.38125 c 0,0.0525 -0.004,0.105 -0.0112,0.15625 -0.007,0.0525 -0.0175,0.10375 -0.0325,0.15375 -0.0125,0.0512 -0.03,0.10125 -0.05,0.15 -0.02,0.0475 -0.0437,0.095 -0.0712,0.14 -0.0263,0.0463 -0.055,0.09 -0.0875,0.13125 -0.0312,0.0413 -0.0662,0.0812 -0.10375,0.1175 -0.0375,0.0375 -0.0762,0.0725 -0.1175,0.105 -0.0425,0.0312 -0.0863,0.06 -0.13125,0.0863 -0.045,0.0275 -0.0925,0.05 -0.14125,0.0712 -0.0475,0.02 -0.0975,0.0375 -0.14875,0.05 -0.05,0.015 -0.10125,0.0262 -0.15375,0.0325 -0.0525,0.007 -0.105,0.0112 -0.1575,0.0112 l -62.37125,0" />
    <path
       id="path17869"
       style="fill:#ffffff;fill-opacity:1;fill-rule:evenodd;stroke:none"
       d="m 341.99931,548.76531 0,-4.99875 -9.435,0 0,-4.15375 6.8375,-23.9225 4.93375,0 -7.0425,23.62875 4.70625,0 0,-9.435 4.74,0 0,9.435 2.3425,0 0,4.4475 -2.3425,0 0,4.99875 -4.74,0" />
    <path
       id="path17873"
       style="fill:#ffffff;fill-opacity:1;fill-rule:evenodd;stroke:none"
       d="m 357.97681,540.45906 0,1.67125 0.0112,0.0825 c 0.004,0.0275 0.009,0.055 0.0125,0.0825 0.0362,0.22375 0.1,0.44375 0.18875,0.6525 0.09,0.21 0.21125,0.405 0.36,0.5775 0.1925,0.24375 0.4375,0.44125 0.71625,0.58 0.2825,0.1425 0.5925,0.2225 0.90875,0.23625 0.31625,0.0288 0.63375,-0.009 0.93375,-0.11125 0.2925,-0.0962 0.56,-0.25875 0.7825,-0.475 0.1325,-0.12 0.25,-0.2575 0.34875,-0.4075 0.1,-0.1525 0.18875,-0.31125 0.26375,-0.4775 0.0475,-0.0962 0.0888,-0.195 0.12375,-0.2975 0.035,-0.1 0.0575,-0.20375 0.0662,-0.30875 0.002,-0.025 0.004,-0.0513 0.005,-0.0775 0,-0.0262 10e-4,-0.0512 10e-4,-0.0775 l 0,-8.14375 c -10e-4,-0.0375 -10e-4,-0.075 -0.004,-0.11125 -10e-4,-0.0375 -0.004,-0.075 -0.006,-0.1125 -0.0188,-0.22 -0.0725,-0.43625 -0.15875,-0.63875 -0.0863,-0.20625 -0.20375,-0.3975 -0.3475,-0.5675 -0.14375,-0.18375 -0.3175,-0.34375 -0.5125,-0.47375 -0.19375,-0.13 -0.4075,-0.23 -0.63125,-0.2975 -0.25,-0.0838 -0.5125,-0.125 -0.77625,-0.1225 -0.2675,0.004 -0.53125,0.0538 -0.78125,0.15 -0.3075,0.10625 -0.58875,0.27625 -0.8275,0.4975 -0.23375,0.21375 -0.41125,0.48375 -0.5125,0.78375 -0.0212,0.0588 -0.0412,0.11625 -0.0588,0.17625 -0.0162,0.06 -0.0325,0.11875 -0.0475,0.17875 l -4.23375,0 0,-17.73375 13.635,0 0,4.45 -9.45375,0 0,8.86125 c 0.15875,-0.12625 0.3175,-0.25 0.48,-0.37125 0.16125,-0.12125 0.3275,-0.23625 0.49875,-0.3425 0.42,-0.2575 0.87375,-0.4575 1.3475,-0.59125 0.47875,-0.13625 0.97375,-0.20375 1.47,-0.20125 0.57,-0.0137 1.1375,0.0663 1.68125,0.235 0.5425,0.16625 1.05375,0.41875 1.51625,0.7475 0.38625,0.25625 0.73625,0.5625 1.04375,0.90875 0.30875,0.34875 0.57375,0.7325 0.7925,1.14375 0.17,0.30125 0.31,0.61875 0.41875,0.9475 0.1075,0.32375 0.17125,0.66125 0.19125,1.0025 0.004,0.05 0.006,0.1 0.007,0.15 0.003,0.05 0.005,0.1 0.006,0.15 l 0,9.445 -0.0125,0.13 c -0.004,0.0437 -0.007,0.0863 -0.0125,0.12875 -0.0425,0.42625 -0.1175,0.84875 -0.22625,1.2625 -0.10875,0.41625 -0.25625,0.82 -0.44125,1.2075 -0.28375,0.63375 -0.665,1.2175 -1.13125,1.73125 -0.465,0.51625 -1.0075,0.95875 -1.6075,1.31125 -0.4825,0.30625 -1.00125,0.55 -1.54625,0.725 -0.54375,0.17375 -1.1075,0.2775 -1.67875,0.30875 -0.765,0.0587 -1.53375,-0.009 -2.27625,-0.19875 -0.74375,-0.18875 -1.44875,-0.50375 -2.085,-0.93125 -0.56625,-0.355 -1.075,-0.79375 -1.51,-1.30125 -0.435,-0.50875 -0.795,-1.07625 -1.07,-1.68625 -0.18875,-0.38875 -0.34,-0.79625 -0.44875,-1.215 -0.1075,-0.41375 -0.165,-0.84 -0.17125,-1.26875 -0.001,-0.0437 -0.002,-0.0875 -0.002,-0.13 0,-0.0437 -10e-4,-0.0875 -10e-4,-0.13125 l 0,-1.7125 4.76125,0" />
  </g>
</svg>
