<?xml version="1.0" encoding="UTF-8" standalone="no"?>
<!-- Created with Inkscape (http://www.inkscape.org/) -->

<svg
   xmlns:dc="http://purl.org/dc/elements/1.1/"
   xmlns:cc="http://creativecommons.org/ns#"
   xmlns:rdf="http://www.w3.org/1999/02/22-rdf-syntax-ns#"
   xmlns:svg="http://www.w3.org/2000/svg"
   xmlns="http://www.w3.org/2000/svg"
   xmlns:sodipodi="http://sodipodi.sourceforge.net/DTD/sodipodi-0.dtd"
   xmlns:inkscape="http://www.inkscape.org/namespaces/inkscape"
   width="71.136436"
   height="71.136337"
   id="svg7371"
   version="1.1"
   inkscape:version="0.47 r22583"
   sodipodi:docname="Neues Dokument 23">
  <defs
     id="defs7373">
    <inkscape:perspective
       sodipodi:type="inkscape:persp3d"
       inkscape:vp_x="0 : 526.18109 : 1"
       inkscape:vp_y="0 : 1000 : 0"
       inkscape:vp_z="744.09448 : 526.18109 : 1"
       inkscape:persp3d-origin="372.04724 : 350.78739 : 1"
       id="perspective7379" />
    <inkscape:perspective
       id="perspective7362"
       inkscape:persp3d-origin="0.5 : 0.33333333 : 1"
       inkscape:vp_z="1 : 0.5 : 1"
       inkscape:vp_y="0 : 1000 : 0"
       inkscape:vp_x="0 : 0.5 : 1"
       sodipodi:type="inkscape:persp3d" />
  </defs>
  <sodipodi:namedview
     id="base"
     pagecolor="#ffffff"
     bordercolor="#666666"
     borderopacity="1.0"
     inkscape:pageopacity="0.0"
     inkscape:pageshadow="2"
     inkscape:zoom="7.3520794"
     inkscape:cx="35.568218"
     inkscape:cy="35.568169"
     inkscape:document-units="px"
     inkscape:current-layer="layer1"
     showgrid="false"
     inkscape:window-width="1280"
     inkscape:window-height="748"
     inkscape:window-x="-8"
     inkscape:window-y="-8"
     inkscape:window-maximized="1" />
  <metadata
     id="metadata7376">
    <rdf:RDF>
      <cc:Work
         rdf:about="">
        <dc:format>image/svg+xml</dc:format>
        <dc:type
           rdf:resource="http://purl.org/dc/dcmitype/StillImage" />
        <dc:title></dc:title>
      </cc:Work>
    </rdf:RDF>
  </metadata>
  <g
     inkscape:label="Ebene 1"
     inkscape:groupmode="layer"
     id="layer1"
     transform="translate(-314.43186,-496.79404)">
    <path
       id="path17877"
       style="fill:none;stroke:#231f20;stroke-width:0.27000001;stroke-linecap:butt;stroke-linejoin:bevel;stroke-miterlimit:22.9260006;stroke-opacity:1;stroke-dasharray:none"
       d="m 318.81931,567.72778 62.3625,0 0.0163,0 0.0163,0 c 0.18125,-0.001 0.36125,-0.0137 0.54,-0.0387 0.18,-0.0238 0.3575,-0.06 0.53125,-0.11 0.175,-0.045 0.3475,-0.10375 0.51375,-0.17375 0.16625,-0.07 0.32875,-0.15125 0.48375,-0.24375 0.1575,-0.09 0.3075,-0.19 0.45125,-0.30125 0.1425,-0.11 0.27875,-0.23 0.40625,-0.3575 0.12875,-0.1275 0.24875,-0.26375 0.35875,-0.40625 0.11,-0.14375 0.21,-0.295 0.3,-0.45125 0.0925,-0.15625 0.1725,-0.3175 0.2425,-0.485 0.07,-0.16625 0.12875,-0.33875 0.175,-0.5125 0.05,-0.175 0.0875,-0.3525 0.1125,-0.53125 0.025,-0.18 0.0375,-0.36 0.0362,-0.54 l 0,-62.42875 c -10e-4,-0.18 -0.0137,-0.36125 -0.0375,-0.54 -0.0238,-0.18 -0.0613,-0.35625 -0.11125,-0.53125 -0.045,-0.175 -0.1025,-0.34625 -0.1725,-0.5125 -0.0712,-0.1675 -0.1525,-0.32875 -0.245,-0.485 -0.09,-0.15625 -0.19,-0.3075 -0.3,-0.45125 -0.11,-0.1425 -0.23,-0.27875 -0.35875,-0.405 -0.1275,-0.13 -0.26375,-0.24875 -0.40625,-0.36 -0.14375,-0.11 -0.29375,-0.21 -0.45125,-0.3 -0.15625,-0.0913 -0.3175,-0.1725 -0.48375,-0.2425 -0.1675,-0.07 -0.33875,-0.12875 -0.51375,-0.175 -0.17375,-0.05 -0.35125,-0.0875 -0.53125,-0.1125 -0.17875,-0.025 -0.36,-0.0375 -0.54,-0.0362 l -62.4275,0 c -0.18125,0.001 -0.36125,0.0138 -0.54125,0.0375 -0.17875,0.025 -0.35625,0.0612 -0.53,0.11125 -0.175,0.045 -0.3475,0.1025 -0.51375,0.1725 -0.16625,0.0712 -0.32875,0.1525 -0.485,0.245 -0.15625,0.09 -0.3075,0.19 -0.45,0.3 -0.14375,0.11125 -0.27875,0.23 -0.40625,0.36 -0.12875,0.12625 -0.24875,0.2625 -0.35875,0.405 -0.11,0.14375 -0.21125,0.295 -0.30125,0.45125 -0.0913,0.15625 -0.1725,0.31875 -0.2425,0.485 -0.0687,0.16625 -0.1275,0.33875 -0.175,0.5125 -0.0488,0.175 -0.0863,0.3525 -0.1125,0.53125 -0.025,0.17875 -0.0375,0.36 -0.035,0.54 l 0,0.0162 -10e-4,0.0175 0,62.36125 10e-4,0.0163 0,0.0175 c 0.001,0.18 0.0125,0.36 0.0375,0.54 0.0238,0.17875 0.0612,0.35625 0.11,0.53125 0.045,0.175 0.10375,0.34625 0.17375,0.5125 0.07,0.1675 0.15125,0.32875 0.24375,0.485 0.09,0.15625 0.19125,0.3075 0.30125,0.45 0.11,0.14375 0.23,0.28 0.35875,0.4075 0.1275,0.1275 0.2625,0.2475 0.40625,0.35875 0.1425,0.11 0.29375,0.21 0.45,0.3 0.15625,0.0913 0.31875,0.1725 0.485,0.2425 0.1675,0.07 0.33875,0.12875 0.51375,0.175 0.17375,0.05 0.35125,0.0875 0.53125,0.1125 0.17875,0.025 0.35875,0.0375 0.54,0.0362 l 0.0163,0 0.0163,0 z" />
    <path
       d="m 318.81931,567.79528 -0.0337,0 c -0.18375,-0.001 -0.36625,-0.0137 -0.54875,-0.0387 -0.1825,-0.025 -0.3625,-0.0625 -0.53875,-0.11125 -0.17875,-0.0462 -0.35375,-0.10625 -0.5225,-0.1775 -0.17,-0.0713 -0.33375,-0.15375 -0.49125,-0.2475 -0.16,-0.0913 -0.3125,-0.19375 -0.45875,-0.30625 -0.14625,-0.11125 -0.28375,-0.23375 -0.4125,-0.36375 -0.13125,-0.13 -0.25375,-0.2675 -0.365,-0.4125 -0.1125,-0.14625 -0.21375,-0.29875 -0.30625,-0.45875 -0.0925,-0.15875 -0.175,-0.3225 -0.245,-0.4925 -0.0713,-0.17 -0.13125,-0.34375 -0.17875,-0.52125 -0.05,-0.1775 -0.0888,-0.3575 -0.11375,-0.54 -0.0263,-0.18125 -0.0375,-0.365 -0.0375,-0.54875 l 0,-62.42875 c 10e-4,-0.18375 0.015,-0.3675 0.0388,-0.54875 0.025,-0.1825 0.0625,-0.3625 0.1125,-0.54 0.0463,-0.1775 0.105,-0.3525 0.17625,-0.5225 0.0712,-0.16875 0.15375,-0.3325 0.2475,-0.49125 0.0925,-0.15875 0.195,-0.3125 0.30625,-0.4575 0.1125,-0.14625 0.23375,-0.28375 0.365,-0.41375 0.12875,-0.13 0.26625,-0.2525 0.4125,-0.36375 0.145,-0.1125 0.29875,-0.215 0.45875,-0.30625 0.1575,-0.0925 0.3225,-0.175 0.49125,-0.24625 0.17,-0.0713 0.34375,-0.13 0.5225,-0.1775 0.17625,-0.0512 0.35625,-0.0888 0.53875,-0.115 0.1825,-0.025 0.36625,-0.0375 0.54875,-0.0362 l 62.42875,0 c 0.18375,0.001 0.3675,0.0138 0.55,0.0387 0.18125,0.0238 0.3625,0.0625 0.53875,0.1125 0.17875,0.045 0.3525,0.105 0.5225,0.17625 0.16875,0.0713 0.33375,0.15375 0.49125,0.2475 0.16,0.0913 0.3125,0.19375 0.45875,0.30625 0.145,0.11125 0.28375,0.23375 0.4125,0.36375 0.13125,0.13 0.2525,0.2675 0.365,0.41375 0.1125,0.145 0.21375,0.29875 0.305,0.4575 0.0937,0.15875 0.17625,0.3225 0.24625,0.4925 0.0712,0.17 0.13125,0.34375 0.17875,0.52125 0.05,0.1775 0.0875,0.3575 0.11375,0.54 0.0263,0.18125 0.0375,0.365 0.0363,0.54875 l 0,62.42875 c -10e-4,0.18375 -0.0138,0.3675 -0.0388,0.54875 -0.0237,0.1825 -0.0613,0.3625 -0.11125,0.54 -0.0463,0.1775 -0.105,0.3525 -0.1775,0.52125 -0.0712,0.17 -0.15375,0.33375 -0.2475,0.4925 -0.0913,0.15875 -0.19375,0.3125 -0.305,0.45875 -0.1125,0.145 -0.23375,0.2825 -0.365,0.4125 -0.12875,0.13 -0.2675,0.2525 -0.4125,0.365 -0.14625,0.11125 -0.29875,0.21375 -0.45875,0.305 -0.15875,0.0925 -0.3225,0.175 -0.4925,0.24625 -0.16875,0.0712 -0.34375,0.13 -0.52125,0.17875 -0.17625,0.0488 -0.3575,0.0875 -0.53875,0.11375 -0.1825,0.025 -0.36625,0.0375 -0.55,0.0362 l -62.395,0 z"
       style="fill:#ffffff;stroke:#000000;stroke-width:0.27000001000000001;stroke-linecap:butt;stroke-linejoin:bevel;stroke-miterlimit:22.92600059999999800;stroke-opacity:1;stroke-dasharray:none"
       id="path17881" />
    <path
       id="path17885"
       style="fill:#003399;fill-opacity:1;fill-rule:evenodd;stroke:none"
       d="m 319.29181,564.75778 -0.0125,0 c -0.0738,-10e-4 -0.14625,-0.006 -0.21875,-0.015 -0.0725,-0.01 -0.14375,-0.025 -0.21375,-0.045 -0.0713,-0.0188 -0.14,-0.0412 -0.2075,-0.07 -0.0663,-0.0288 -0.1325,-0.0613 -0.195,-0.0987 -0.0637,-0.0363 -0.12375,-0.0763 -0.18125,-0.12125 -0.0587,-0.0438 -0.1125,-0.0925 -0.16375,-0.14375 -0.0525,-0.0525 -0.10125,-0.10625 -0.145,-0.16375 -0.045,-0.0588 -0.085,-0.11875 -0.12125,-0.1825 -0.0375,-0.0625 -0.07,-0.1275 -0.0975,-0.195 -0.0288,-0.0675 -0.0525,-0.13625 -0.0713,-0.2075 -0.02,-0.07 -0.035,-0.14125 -0.045,-0.21375 -0.01,-0.0725 -0.015,-0.145 -0.015,-0.2175 l 0,-0.0137 0,-61.4175 0,-0.0125 c 10e-4,-0.0725 0.006,-0.14625 0.0163,-0.21875 0.009,-0.0725 0.0238,-0.14375 0.0437,-0.21375 0.0188,-0.07 0.0425,-0.14 0.07,-0.20625 0.0288,-0.0675 0.0613,-0.1325 0.0987,-0.19625 0.0362,-0.0625 0.0763,-0.12375 0.12125,-0.18125 0.0437,-0.0587 0.0925,-0.1125 0.145,-0.16375 0.0512,-0.0525 0.105,-0.10125 0.16375,-0.145 0.0575,-0.045 0.1175,-0.085 0.18125,-0.12125 0.0625,-0.0375 0.12875,-0.07 0.195,-0.0975 0.0675,-0.0288 0.1375,-0.0525 0.2075,-0.0713 0.07,-0.0188 0.14125,-0.035 0.21375,-0.045 0.0725,-0.01 0.145,-0.015 0.21875,-0.0138 l 61.44375,0 c 0.0725,0 0.145,0.005 0.2175,0.015 0.0725,0.01 0.14375,0.025 0.21375,0.0437 0.0712,0.0188 0.14,0.0425 0.2075,0.07 0.0662,0.0288 0.1325,0.0613 0.195,0.0987 0.0638,0.0363 0.12375,0.0775 0.18125,0.12125 0.0588,0.045 0.1125,0.0925 0.16375,0.145 0.0525,0.0513 0.10125,0.105 0.145,0.16375 0.045,0.0575 0.085,0.11875 0.12125,0.18125 0.0375,0.0637 0.07,0.12875 0.0987,0.19625 0.0275,0.0662 0.0513,0.13625 0.07,0.20625 0.02,0.07 0.035,0.14125 0.045,0.215 0.01,0.0712 0.015,0.145 0.015,0.2175 l 0,61.44375 c -10e-4,0.0725 -0.006,0.145 -0.0162,0.2175 -0.009,0.0725 -0.0238,0.14375 -0.0438,0.21375 -0.0187,0.0712 -0.0425,0.14 -0.07,0.2075 -0.0275,0.0675 -0.0613,0.1325 -0.0987,0.195 -0.0362,0.0637 -0.0762,0.12375 -0.12125,0.1825 -0.045,0.0575 -0.0925,0.11125 -0.145,0.16375 -0.0513,0.0513 -0.105,0.1 -0.1625,0.14375 -0.0588,0.045 -0.11875,0.085 -0.1825,0.12125 -0.0625,0.0375 -0.12875,0.07 -0.195,0.0975 -0.0675,0.0288 -0.13625,0.0525 -0.2075,0.0712 -0.07,0.02 -0.14125,0.035 -0.21375,0.045 -0.0725,0.01 -0.145,0.015 -0.2175,0.015 l -0.0138,0 -61.4175,0" />
    <path
       d="m 342.57681,515.82653 0,33.07125 4.72425,0 0,-33.07125 -4.72425,0 z"
       style="fill:#ffffff;fill-opacity:1;fill-rule:nonzero;stroke:none"
       id="path17887" />
    <path
       d="m 352.70056,515.82653 0,33.07125 4.72425,0 0,-33.07125 -4.72425,0 z"
       style="fill:#ffffff;fill-opacity:1;fill-rule:nonzero;stroke:none"
       id="path17889" />
  </g>
</svg>
