<?xml version="1.0" encoding="UTF-8" standalone="no"?>
<!-- Created with Inkscape (http://www.inkscape.org/) -->

<svg
   xmlns:dc="http://purl.org/dc/elements/1.1/"
   xmlns:cc="http://creativecommons.org/ns#"
   xmlns:rdf="http://www.w3.org/1999/02/22-rdf-syntax-ns#"
   xmlns:svg="http://www.w3.org/2000/svg"
   xmlns="http://www.w3.org/2000/svg"
   xmlns:sodipodi="http://sodipodi.sourceforge.net/DTD/sodipodi-0.dtd"
   xmlns:inkscape="http://www.inkscape.org/namespaces/inkscape"
   width="71.136543"
   height="48.275246"
   id="svg6805"
   version="1.1"
   inkscape:version="0.47 r22583"
   sodipodi:docname="E.5.2 Erlaubnis.svg">
  <defs
     id="defs6807">
    <inkscape:perspective
       sodipodi:type="inkscape:persp3d"
       inkscape:vp_x="0 : 24.137623 : 1"
       inkscape:vp_y="0 : 1000 : 0"
       inkscape:vp_z="71.136543 : 24.137623 : 1"
       inkscape:persp3d-origin="35.568272 : 16.091749 : 1"
       id="perspective12" />
  </defs>
  <sodipodi:namedview
     id="base"
     pagecolor="#ffffff"
     bordercolor="#666666"
     borderopacity="1.0"
     inkscape:pageopacity="0.0"
     inkscape:pageshadow="2"
     inkscape:zoom="10.83371"
     inkscape:cx="35.568272"
     inkscape:cy="24.137623"
     inkscape:document-units="px"
     inkscape:current-layer="layer1"
     showgrid="false"
     inkscape:window-width="1280"
     inkscape:window-height="748"
     inkscape:window-x="-8"
     inkscape:window-y="-8"
     inkscape:window-maximized="1" />
  <metadata
     id="metadata6810">
    <rdf:RDF>
      <cc:Work
         rdf:about="">
        <dc:format>image/svg+xml</dc:format>
        <dc:type
           rdf:resource="http://purl.org/dc/dcmitype/StillImage" />
        <dc:title />
      </cc:Work>
    </rdf:RDF>
  </metadata>
  <g
     inkscape:label="Ebene 1"
     inkscape:groupmode="layer"
     id="layer1"
     transform="translate(275.56835,183.20414)">
    <path
       id="path17949"
       style="fill:none;stroke:#231f20;stroke-width:0.27000001;stroke-linecap:butt;stroke-linejoin:bevel;stroke-miterlimit:22.9260006;stroke-opacity:1;stroke-dasharray:none"
       d="m -272.09565,-135.11014 64.2175,0 c 0.14125,-0.001 0.28375,-0.0112 0.425,-0.03 0.14,-0.0188 0.28,-0.0475 0.4175,-0.0863 0.1375,-0.0362 0.2725,-0.0812 0.40375,-0.1375 0.13125,-0.055 0.25875,-0.11875 0.38,-0.19125 0.12375,-0.0712 0.2425,-0.15 0.355,-0.23625 0.11375,-0.0875 0.22,-0.18125 0.32,-0.2825 0.10125,-0.1 0.19625,-0.2075 0.2825,-0.32 0.0863,-0.1125 0.16625,-0.23125 0.23625,-0.355 0.0725,-0.1225 0.13625,-0.25 0.19125,-0.38 0.055,-0.1325 0.1,-0.2675 0.1375,-0.405 0.0388,-0.13625 0.0688,-0.27625 0.0888,-0.4175 0.02,-0.14 0.0288,-0.2825 0.0275,-0.425 l 0,-41.3825 c 0,-0.14125 -0.01,-0.28375 -0.0288,-0.42375 -0.02,-0.14125 -0.0487,-0.28125 -0.0875,-0.41875 -0.035,-0.1375 -0.0812,-0.2725 -0.13625,-0.40375 -0.055,-0.13125 -0.12,-0.2575 -0.1925,-0.38 -0.0712,-0.12375 -0.15,-0.2425 -0.23625,-0.355 -0.0863,-0.1125 -0.18125,-0.22 -0.2825,-0.32 -0.1,-0.10125 -0.20625,-0.195 -0.32,-0.2825 -0.1125,-0.0863 -0.23125,-0.165 -0.355,-0.23625 -0.12125,-0.0725 -0.24875,-0.135 -0.38,-0.19 -0.13125,-0.055 -0.26625,-0.10125 -0.40375,-0.13875 -0.1375,-0.0388 -0.2775,-0.0688 -0.4175,-0.0888 -0.14125,-0.0188 -0.28375,-0.0288 -0.425,-0.0275 l -64.24375,0 c -0.14125,0 -0.28375,0.01 -0.42375,0.03 -0.14125,0.0187 -0.28125,0.0475 -0.41875,0.0863 -0.1375,0.0362 -0.2725,0.0812 -0.40375,0.13625 -0.13125,0.0563 -0.25875,0.12 -0.38125,0.1925 -0.1225,0.0712 -0.24125,0.15 -0.35375,0.23625 -0.11375,0.0875 -0.22,0.18125 -0.32,0.2825 -0.10125,0.1 -0.19625,0.2075 -0.2825,0.32 -0.0863,0.1125 -0.16625,0.23125 -0.23625,0.355 -0.0725,0.1225 -0.13625,0.24875 -0.19125,0.38 -0.055,0.13125 -0.1,0.26625 -0.1375,0.40375 -0.0387,0.1375 -0.0688,0.2775 -0.0888,0.41875 -0.02,0.14 -0.0288,0.2825 -0.0275,0.42375 l 0,41.3825 c 0.001,0.1425 0.01,0.285 0.0288,0.425 0.02,0.14125 0.0488,0.28125 0.0875,0.4175 0.0362,0.13875 0.0813,0.27375 0.13625,0.405 0.0563,0.13125 0.12,0.2575 0.1925,0.38 0.0712,0.12375 0.15,0.2425 0.23625,0.355 0.0863,0.1125 0.18125,0.22 0.2825,0.32 0.1,0.10125 0.20625,0.195 0.32,0.2825 0.1125,0.0863 0.23,0.165 0.35375,0.23625 0.1225,0.0725 0.25,0.13625 0.38125,0.19 0.13125,0.055 0.26625,0.10125 0.40375,0.13875 0.1375,0.0388 0.2775,0.0675 0.41875,0.0875 0.14,0.02 0.2825,0.03 0.42375,0.0288 l 0.0263,0 z" />
    <path
       d="m -272.09565,-135.06389 -0.0263,0 c -0.14375,-0.001 -0.2875,-0.0113 -0.43125,-0.03 -0.1425,-0.02 -0.28375,-0.0488 -0.4225,-0.0888 -0.14,-0.0362 -0.2775,-0.0825 -0.41,-0.13875 -0.1325,-0.055 -0.2625,-0.12 -0.38625,-0.19375 -0.125,-0.0725 -0.245,-0.1525 -0.36,-0.24 -0.11375,-0.0875 -0.2225,-0.18375 -0.32375,-0.28625 -0.1025,-0.10125 -0.19875,-0.21 -0.28625,-0.32375 -0.0875,-0.115 -0.16875,-0.235 -0.24,-0.36 -0.0725,-0.12375 -0.1375,-0.25375 -0.1925,-0.38625 -0.0563,-0.1325 -0.1025,-0.27 -0.14,-0.41 -0.04,-0.13875 -0.07,-0.28 -0.09,-0.42375 -0.02,-0.1425 -0.03,-0.28625 -0.0288,-0.43 l 0,-41.3825 c 10e-4,-0.14375 0.0113,-0.28875 0.03,-0.43125 0.02,-0.14375 0.0487,-0.285 0.0888,-0.42375 0.0362,-0.13875 0.0825,-0.27625 0.13875,-0.41 0.055,-0.1325 0.12,-0.26125 0.19375,-0.385 0.0725,-0.125 0.1525,-0.24625 0.24,-0.36 0.0875,-0.11375 0.18375,-0.2225 0.28625,-0.32375 0.10125,-0.1025 0.21,-0.19875 0.32375,-0.28625 0.115,-0.0887 0.235,-0.16875 0.36,-0.24 0.12375,-0.0725 0.25375,-0.1375 0.38625,-0.19375 0.13375,-0.055 0.27,-0.1025 0.41,-0.14 0.13875,-0.0387 0.28,-0.0687 0.42375,-0.0888 0.1425,-0.02 0.28625,-0.03 0.43,-0.0288 l 64.24375,0 c 0.14375,0 0.2875,0.01 0.43125,0.03 0.1425,0.0188 0.28375,0.0488 0.4225,0.0875 0.14,0.0375 0.2775,0.0825 0.41,0.13875 0.1325,0.0562 0.2625,0.12125 0.38625,0.195 0.125,0.0712 0.245,0.15125 0.36,0.24 0.11375,0.0875 0.2225,0.18375 0.32375,0.28625 0.1025,0.10125 0.19875,0.21 0.28625,0.32375 0.0875,0.11375 0.1675,0.235 0.24,0.36 0.0725,0.12375 0.1375,0.2525 0.1925,0.385 0.0563,0.13375 0.1025,0.27125 0.14,0.41 0.04,0.13875 0.07,0.28125 0.09,0.42375 0.02,0.1425 0.03,0.2875 0.0288,0.43125 l 0,41.3825 c -0.001,0.14375 -0.0113,0.2875 -0.03,0.43125 -0.02,0.1425 -0.0488,0.28375 -0.0888,0.4225 -0.0362,0.14 -0.0825,0.2775 -0.13875,0.41 -0.055,0.13375 -0.12,0.2625 -0.19375,0.38625 -0.0725,0.125 -0.1525,0.245 -0.24,0.36 -0.0875,0.11375 -0.18375,0.2225 -0.28625,0.32375 -0.10125,0.1025 -0.21,0.19875 -0.32375,0.28625 -0.115,0.0888 -0.235,0.16875 -0.36,0.24 -0.12375,0.0725 -0.25375,0.1375 -0.38625,0.1925 -0.1325,0.0563 -0.27,0.1025 -0.41,0.14 -0.13875,0.04 -0.28,0.07 -0.42375,0.09 -0.1425,0.02 -0.28625,0.03 -0.43,0.0288 l -64.2175,0 z"
       style="fill:#ffffff;stroke:#000000;stroke-width:0.27000001000000001;stroke-linecap:butt;stroke-linejoin:bevel;stroke-miterlimit:22.92600059999999800;stroke-opacity:1;stroke-dasharray:none"
       id="path17953" />
    <path
       id="path17957"
       style="fill:#003399;fill-opacity:1;fill-rule:evenodd;stroke:none"
       d="m -273.37565,-137.12139 0,-41.99875 0,-0.025 0,-0.025 c 0.001,-0.0825 0.006,-0.165 0.0138,-0.24625 0.007,-0.0812 0.0188,-0.1625 0.0337,-0.24125 0.0138,-0.08 0.03,-0.1575 0.0512,-0.2325 0.02,-0.075 0.0437,-0.14875 0.07,-0.21875 0.025,-0.07 0.0538,-0.1375 0.0863,-0.2025 0.0312,-0.0637 0.065,-0.125 0.10125,-0.18125 0.0362,-0.0575 0.0738,-0.11 0.115,-0.15875 0.04,-0.0488 0.0825,-0.0925 0.12625,-0.13125 0.0437,-0.04 0.0888,-0.075 0.135,-0.105 0.0475,-0.0288 0.095,-0.0538 0.14375,-0.0725 0.04,-0.0163 0.0787,-0.0288 0.11875,-0.0375 0.04,-0.008 0.0813,-0.0125 0.12125,-0.0138 l 0.0138,0 64.49375,0 0.0137,0 c 0.05,0.001 0.1,0.009 0.15,0.0225 0.0487,0.0125 0.0975,0.0312 0.14625,0.055 0.0475,0.0225 0.0937,0.05 0.14,0.085 0.045,0.0325 0.09,0.0713 0.1325,0.115 0.0425,0.0425 0.0825,0.0913 0.1225,0.1425 0.0387,0.0525 0.075,0.10875 0.10875,0.16875 0.035,0.06 0.0662,0.12375 0.0962,0.19 0.0288,0.0662 0.055,0.1375 0.0787,0.21 0.025,0.0725 0.0463,0.1475 0.0637,0.22375 0.0175,0.0775 0.0325,0.15625 0.0438,0.2375 0.01,0.065 0.0175,0.13 0.0225,0.19625 0.005,0.0662 0.009,0.13375 0.009,0.2 l 0,0.0225 0,42.02125 -66.75125,0" />
    <g
       transform="scale(0.77778684,1.2856993)"
       style="font-size:11.66680241px;fill:#ffffff"
       id="text17959">
      <path
         d="m -348.16045,-119.36103 2.33418,-0.31122 c 0.26799,1.3227 0.72402,2.27582 1.36808,2.85936 0.64406,0.58355 1.4286,0.87532 2.35363,0.87532 1.09792,0 2.0251,-0.38038 2.78156,-1.14115 0.75643,-0.76077 1.13466,-1.70308 1.13467,-2.82695 -10e-6,-1.07198 -0.35014,-1.95594 -1.05038,-2.65188 -0.70026,-0.69592 -1.59071,-1.04389 -2.67134,-1.0439 -0.4409,1e-5 -0.98987,0.0865 -1.64689,0.25936 l 0.25936,-2.04889 c 0.1556,0.0173 0.28096,0.0259 0.37606,0.0259 0.99418,2e-5 1.88894,-0.25934 2.6843,-0.77805 0.79534,-0.5187 1.19301,-1.31837 1.19302,-2.39902 -1e-5,-0.85585 -0.28962,-1.56474 -0.86883,-2.12669 -0.57923,-0.56191 -1.32703,-0.84288 -2.2434,-0.8429 -0.90774,2e-5 -1.66419,0.28531 -2.26934,0.85587 -0.60516,0.57059 -0.99419,1.42645 -1.16709,2.56759 l -2.33417,-0.41496 c 0.28529,-1.56475 0.93367,-2.77722 1.94515,-3.63743 1.01147,-0.86017 2.26933,-1.29026 3.77358,-1.29028 1.0374,2e-5 1.99268,0.22263 2.86585,0.66784 0.87314,0.44524 1.54097,1.05255 2.0035,1.82195 0.4625,0.76943 0.69375,1.58639 0.69377,2.45088 -2e-5,0.8213 -0.22047,1.5691 -0.66135,2.2434 -0.44092,0.67433 -1.09362,1.21033 -1.95812,1.60799 1.12385,0.25936 1.99701,0.79752 2.61947,1.61447 0.62243,0.81697 0.93365,1.83925 0.93367,3.06685 -2e-5,1.65986 -0.60517,3.06685 -1.81547,4.22097 -1.21033,1.15412 -2.74051,1.73118 -4.59055,1.73118 -1.66851,0 -3.05388,-0.4971 -4.15613,-1.49128 -1.10225,-0.99419 -1.73118,-2.2823 -1.88679,-3.86436 z"
         style="font-size:26.55772591px;font-variant:normal;font-weight:normal;writing-mode:lr-tb;fill:#ffffff;fill-opacity:1;fill-rule:nonzero;stroke:none;font-family:Arial;-inkscape-font-specification:ArialMT"
         id="path2819" />
      <path
         d="m -333.40733,-123.71816 c 0,-2.24771 0.23125,-4.05669 0.69377,-5.42695 0.46251,-1.37023 1.14979,-2.4271 2.06185,-3.17059 0.91205,-0.74346 2.05969,-1.1152 3.44291,-1.11522 1.02011,2e-5 1.91488,0.20534 2.6843,0.61597 0.7694,0.41066 1.40482,1.00284 1.90624,1.77656 0.50141,0.77375 0.89476,1.71607 1.18006,2.82695 0.28527,1.1109 0.42792,2.60867 0.42793,4.49328 -1e-5,2.23045 -0.22911,4.03078 -0.68728,5.40103 -0.45821,1.37025 -1.14333,2.42927 -2.05538,3.17707 -0.91206,0.7478 -2.06402,1.1217 -3.45587,1.1217 -1.83277,0 -3.27217,-0.65703 -4.31823,-1.97108 -1.25354,-1.58205 -1.8803,-4.15829 -1.8803,-7.72872 z m 2.39901,0 c 0,3.12089 0.36525,5.19787 1.09577,6.23096 0.7305,1.03309 1.63175,1.54963 2.70375,1.54963 1.07198,0 1.97323,-0.51871 2.70375,-1.55612 0.7305,-1.03741 1.09576,-3.11223 1.09577,-6.22447 -10e-6,-3.12951 -0.36527,-5.20865 -1.09577,-6.23743 -0.73052,-1.02875 -1.64041,-1.54313 -2.72969,-1.54315 -1.07199,2e-5 -1.92786,0.45388 -2.56759,1.3616 -0.804,1.15846 -1.20599,3.29812 -1.20599,6.41898 z"
         style="font-size:26.55772591px;font-variant:normal;font-weight:normal;writing-mode:lr-tb;fill:#ffffff;fill-opacity:1;fill-rule:nonzero;stroke:none;font-family:Arial;-inkscape-font-specification:ArialMT"
         id="path2821" />
      <path
         d="m -311.51755,-120.04831 0,-2.34715 7.17111,0 0,2.34715 z"
         style="font-size:26.55772591px;font-variant:normal;font-weight:normal;writing-mode:lr-tb;fill:#ffffff;fill-opacity:1;fill-rule:nonzero;stroke:none;font-family:Arial;-inkscape-font-specification:ArialMT"
         id="path2823" />
      <path
         d="m -282.91964,-128.69773 -2.32121,0.18155 c -0.20749,-0.91637 -0.50143,-1.58204 -0.8818,-1.99702 -0.6311,-0.66565 -1.40916,-0.99849 -2.33417,-0.99851 -0.74349,2e-5 -1.39619,0.2075 -1.95812,0.62245 -0.73484,0.53601 -1.31406,1.31839 -1.73766,2.34714 -0.42361,1.02878 -0.64406,2.49412 -0.66135,4.39603 0.56193,-0.85585 1.24921,-1.49126 2.06185,-1.90624 0.81264,-0.41495 1.66418,-0.62244 2.55463,-0.62245 1.55611,1e-5 2.88096,0.57275 3.97458,1.71821 1.09359,1.14549 1.64039,2.62596 1.64041,4.44142 -2e-5,1.19303 -0.25721,2.30176 -0.77158,3.3262 -0.51439,1.02445 -1.22113,1.80899 -2.12021,2.35363 -0.8991,0.54464 -1.91922,0.81696 -3.06036,0.81696 -1.94515,0 -3.53152,-0.71538 -4.75912,-2.14615 -1.22761,-1.43076 -1.84141,-3.7887 -1.84141,-7.07384 0,-3.67415 0.67864,-6.34549 2.03592,-8.014 1.18437,-1.45236 2.77939,-2.17855 4.78506,-2.17857 1.49559,2e-5 2.72103,0.41931 3.67633,1.25786 0.95527,0.83859 1.528,1.99704 1.71821,3.47533 z m -9.53122,8.19555 c 0,0.804 0.17074,1.57341 0.51222,2.30824 0.34148,0.73483 0.81912,1.2946 1.43293,1.67931 0.61379,0.38471 1.25785,0.57706 1.93218,0.57706 0.98553,0 1.83275,-0.39767 2.54165,-1.19302 0.70889,-0.79535 1.06334,-1.87599 1.06335,-3.24191 -1e-5,-1.31405 -0.35014,-2.3493 -1.05038,-3.10575 -0.70026,-0.75644 -1.58206,-1.13466 -2.6454,-1.13467 -1.0547,1e-5 -1.94947,0.37823 -2.6843,1.13467 -0.73483,0.75645 -1.10225,1.74847 -1.10225,2.97607 z"
         style="font-size:26.55772591px;font-variant:normal;font-weight:normal;writing-mode:lr-tb;fill:#ffffff;fill-opacity:1;fill-rule:nonzero;stroke:none;font-family:Arial;-inkscape-font-specification:ArialMT"
         id="path2825" />
      <path
         d="m -280.2653,-123.71816 c -10e-6,-2.24771 0.23125,-4.05669 0.69376,-5.42695 0.46251,-1.37023 1.1498,-2.4271 2.06186,-3.17059 0.91205,-0.74346 2.05969,-1.1152 3.44291,-1.11522 1.02011,2e-5 1.91488,0.20534 2.6843,0.61597 0.7694,0.41066 1.40482,1.00284 1.90624,1.77656 0.5014,0.77375 0.89476,1.71607 1.18006,2.82695 0.28527,1.1109 0.42792,2.60867 0.42793,4.49328 -10e-6,2.23045 -0.22911,4.03078 -0.68729,5.40103 -0.4582,1.37025 -1.14332,2.42927 -2.05537,3.17707 -0.91206,0.7478 -2.06402,1.1217 -3.45587,1.1217 -1.83277,0 -3.27217,-0.65703 -4.31823,-1.97108 -1.25354,-1.58205 -1.88031,-4.15829 -1.8803,-7.72872 z m 2.39901,0 c 0,3.12089 0.36525,5.19787 1.09576,6.23096 0.73051,1.03309 1.63176,1.54963 2.70376,1.54963 1.07198,0 1.97323,-0.51871 2.70375,-1.55612 0.7305,-1.03741 1.09575,-3.11223 1.09577,-6.22447 -2e-5,-3.12951 -0.36527,-5.20865 -1.09577,-6.23743 -0.73052,-1.02875 -1.64041,-1.54313 -2.72969,-1.54315 -1.072,2e-5 -1.92786,0.45388 -2.56759,1.3616 -0.804,1.15846 -1.20599,3.29812 -1.20599,6.41898 z"
         style="font-size:26.55772591px;font-variant:normal;font-weight:normal;writing-mode:lr-tb;fill:#ffffff;fill-opacity:1;fill-rule:nonzero;stroke:none;font-family:Arial;-inkscape-font-specification:ArialMT"
         id="path2827" />
    </g>
  </g>
</svg>
