<?xml version="1.0" encoding="UTF-8" standalone="no"?>
<svg
   xmlns:dc="http://purl.org/dc/elements/1.1/"
   xmlns:cc="http://creativecommons.org/ns#"
   xmlns:rdf="http://www.w3.org/1999/02/22-rdf-syntax-ns#"
   xmlns:svg="http://www.w3.org/2000/svg"
   xmlns="http://www.w3.org/2000/svg"
   xmlns:sodipodi="http://sodipodi.sourceforge.net/DTD/sodipodi-0.dtd"
   xmlns:inkscape="http://www.inkscape.org/namespaces/inkscape"
   width="71.136246"
   height="71.136368"
   id="svg5697"
   version="1.1"
   inkscape:version="1.0 (4035a4fb49, 2020-05-01)"
   sodipodi:docname="E.7.1_Erlaubnis_zum_Festmachen_am_Ufer.svg">
  <defs
     id="defs5699">
    <inkscape:perspective
       sodipodi:type="inkscape:persp3d"
       inkscape:vp_x="0 : 35.568184 : 1"
       inkscape:vp_y="0 : 1000 : 0"
       inkscape:vp_z="71.136246 : 35.568184 : 1"
       inkscape:persp3d-origin="35.568123 : 23.712123 : 1"
       id="perspective7470" />
  </defs>
  <sodipodi:namedview
     fit-margin-bottom="0"
     fit-margin-right="0"
     fit-margin-left="0"
     fit-margin-top="0"
     id="base"
     pagecolor="#ffffff"
     bordercolor="#666666"
     borderopacity="1.0"
     inkscape:pageopacity="0.0"
     inkscape:pageshadow="2"
     inkscape:zoom="7.7904328"
     inkscape:cx="36.866883"
     inkscape:cy="17.895908"
     inkscape:document-units="px"
     inkscape:current-layer="layer1"
     showgrid="false"
     inkscape:window-width="1920"
     inkscape:window-height="1017"
     inkscape:window-x="-8"
     inkscape:window-y="-8"
     inkscape:window-maximized="1"
     inkscape:document-rotation="0"
     inkscape:snap-grids="false" />
  <metadata
     id="metadata5702">
    <rdf:RDF>
      <cc:Work
         rdf:about="">
        <dc:format>image/svg+xml</dc:format>
        <dc:type
           rdf:resource="http://purl.org/dc/dcmitype/StillImage" />
        <dc:title></dc:title>
      </cc:Work>
    </rdf:RDF>
  </metadata>
  <g
     inkscape:label="Ebene 1"
     inkscape:groupmode="layer"
     id="layer1"
     transform="translate(132.71098,-151.07971)">
    <g
       id="g843">
      <path
         d="m -128.32353,222.01355 h 62.362497 0.0162 0.0163 c 0.18125,-0.001 0.36125,-0.0138 0.54,-0.0388 0.18,-0.0237 0.3575,-0.06 0.53125,-0.11 0.175,-0.045 0.3475,-0.10375 0.51375,-0.17375 0.16625,-0.07 0.32875,-0.15125 0.48375,-0.24375 0.1575,-0.09 0.3075,-0.19 0.45125,-0.30125 0.1425,-0.11 0.27875,-0.23 0.40625,-0.35875 0.12875,-0.12625 0.24875,-0.2625 0.35875,-0.405 0.11,-0.14375 0.21,-0.295 0.3,-0.45125 0.0925,-0.15625 0.1725,-0.3175 0.2425,-0.485 0.07,-0.16625 0.12875,-0.33875 0.175,-0.5125 0.05,-0.175 0.0875,-0.3525 0.1125,-0.53125 0.025,-0.18 0.0375,-0.36 0.0362,-0.54 V 155.4335 c -0.001,-0.18 -0.0138,-0.36125 -0.0375,-0.54 -0.0237,-0.18 -0.0612,-0.35625 -0.11125,-0.53125 -0.045,-0.175 -0.1025,-0.34625 -0.1725,-0.5125 -0.0712,-0.1675 -0.1525,-0.32875 -0.245,-0.485 -0.09,-0.15625 -0.19,-0.3075 -0.3,-0.45125 -0.11,-0.1425 -0.23,-0.27875 -0.35875,-0.405 -0.1275,-0.13 -0.26375,-0.24875 -0.40625,-0.36 -0.14375,-0.11 -0.29375,-0.21 -0.45125,-0.3 -0.15625,-0.0913 -0.3175,-0.1725 -0.485,-0.2425 -0.16625,-0.07 -0.3375,-0.12875 -0.5125,-0.175 -0.17375,-0.05 -0.35125,-0.0875 -0.53125,-0.1125 -0.17875,-0.025 -0.36,-0.0375 -0.54,-0.0362 h -62.427497 c -0.18125,0.001 -0.36125,0.0138 -0.54125,0.0375 -0.17875,0.025 -0.35625,0.0612 -0.53,0.11125 -0.17625,0.045 -0.3475,0.1025 -0.51375,0.1725 -0.1675,0.0712 -0.32875,0.1525 -0.485,0.245 -0.15625,0.09 -0.3075,0.19 -0.45,0.3 -0.14375,0.11125 -0.27875,0.23 -0.40625,0.36 -0.12875,0.12625 -0.24875,0.2625 -0.35875,0.405 -0.11125,0.14375 -0.21125,0.295 -0.30125,0.45125 -0.0913,0.15625 -0.1725,0.31875 -0.2425,0.485 -0.0688,0.16625 -0.1275,0.33875 -0.175,0.5125 -0.0488,0.175 -0.0863,0.3525 -0.1125,0.53125 -0.025,0.17875 -0.0375,0.36 -0.035,0.54 v 0.0163 l -0.001,0.0175 v 62.36125 l 0.001,0.0163 v 0.0175 c 0,0.18 0.0125,0.36 0.0375,0.54 0.0237,0.17875 0.0612,0.35625 0.11,0.53125 0.045,0.175 0.10375,0.34625 0.17375,0.5125 0.07,0.1675 0.15125,0.32875 0.24375,0.485 0.09,0.15625 0.19125,0.3075 0.30125,0.45 0.11,0.14375 0.23,0.28 0.35875,0.40625 0.1275,0.12875 0.2625,0.24875 0.40625,0.36 0.1425,0.11 0.29375,0.21 0.45,0.3 0.15625,0.0913 0.31875,0.1725 0.485,0.2425 0.1675,0.07 0.33875,0.12875 0.51375,0.175 0.17375,0.05 0.35125,0.0875 0.53125,0.1125 0.17875,0.025 0.35875,0.0375 0.54,0.0362 h 0.0163 0.0162 z"
         style="fill:none;stroke:#231f20;stroke-width:0.27;stroke-linecap:butt;stroke-linejoin:bevel;stroke-miterlimit:22.926;stroke-dasharray:none;stroke-opacity:1"
         id="path17837" />
      <path
         id="path17841"
         style="fill:#ffffff;stroke:#000000;stroke-width:0.27;stroke-linecap:butt;stroke-linejoin:bevel;stroke-miterlimit:22.926;stroke-dasharray:none;stroke-opacity:1"
         d="m -128.32353,222.08105 h -0.0337 c -0.18375,-0.001 -0.36625,-0.0138 -0.54875,-0.0388 -0.1825,-0.0237 -0.3625,-0.0625 -0.53875,-0.11125 -0.17875,-0.0463 -0.35375,-0.10625 -0.5225,-0.1775 -0.17,-0.0713 -0.33375,-0.15375 -0.49125,-0.2475 -0.16,-0.0912 -0.3125,-0.19375 -0.45875,-0.30625 -0.14625,-0.11125 -0.28375,-0.23375 -0.4125,-0.36375 -0.13125,-0.13 -0.25375,-0.2675 -0.365,-0.4125 -0.1125,-0.14625 -0.21375,-0.29875 -0.30625,-0.45875 -0.0925,-0.15875 -0.175,-0.3225 -0.24625,-0.4925 -0.07,-0.17 -0.13,-0.34375 -0.1775,-0.52125 -0.05,-0.1775 -0.0888,-0.3575 -0.11375,-0.54 -0.0263,-0.18125 -0.0375,-0.365 -0.0375,-0.54875 V 155.4335 c 10e-4,-0.18375 0.015,-0.3675 0.0387,-0.54875 0.025,-0.1825 0.0625,-0.3625 0.1125,-0.54 0.0462,-0.1775 0.105,-0.3525 0.17625,-0.5225 0.0712,-0.16875 0.15375,-0.3325 0.2475,-0.49125 0.0925,-0.15875 0.195,-0.3125 0.30625,-0.4575 0.1125,-0.14625 0.23375,-0.28375 0.365,-0.41375 0.12875,-0.13 0.26625,-0.2525 0.4125,-0.36375 0.145,-0.1125 0.29875,-0.215 0.45875,-0.30625 0.1575,-0.0925 0.3225,-0.175 0.49125,-0.24625 0.17,-0.0713 0.34375,-0.13 0.5225,-0.17875 0.17625,-0.05 0.35625,-0.0875 0.53875,-0.11375 0.1825,-0.025 0.36625,-0.0375 0.54875,-0.0362 h 62.428747 c 0.18375,0.001 0.3675,0.0138 0.55,0.0387 0.18125,0.0238 0.3625,0.0625 0.53875,0.11125 0.17875,0.0463 0.3525,0.10625 0.5225,0.1775 0.16875,0.0713 0.33375,0.15375 0.49125,0.2475 0.15875,0.0913 0.3125,0.19375 0.45875,0.30625 0.145,0.11125 0.28375,0.23375 0.4125,0.36375 0.13125,0.13 0.2525,0.2675 0.365,0.41375 0.1125,0.145 0.21375,0.29875 0.305,0.4575 0.0937,0.15875 0.17625,0.3225 0.24625,0.4925 0.0713,0.17 0.13125,0.34375 0.17875,0.52125 0.05,0.1775 0.0875,0.3575 0.11375,0.54 0.0263,0.18125 0.0375,0.365 0.0362,0.54875 v 62.42875 c -10e-4,0.18375 -0.0138,0.3675 -0.0387,0.54875 -0.0238,0.1825 -0.0613,0.3625 -0.11125,0.54 -0.0462,0.1775 -0.105,0.3525 -0.1775,0.52125 -0.0712,0.17 -0.15375,0.33375 -0.2475,0.4925 -0.0912,0.15875 -0.19375,0.3125 -0.305,0.45875 -0.1125,0.145 -0.23375,0.2825 -0.365,0.4125 -0.12875,0.13 -0.2675,0.2525 -0.4125,0.365 -0.14625,0.11125 -0.29875,0.21375 -0.45875,0.305 -0.15875,0.0937 -0.3225,0.175 -0.4925,0.24625 -0.16875,0.0712 -0.34375,0.13 -0.52125,0.17875 -0.17625,0.0487 -0.3575,0.0875 -0.54,0.1125 -0.18125,0.0263 -0.365,0.0387 -0.54875,0.0375 h -62.394997 z" />
      <path
         d="m -128.32353,219.0448 h -0.01 c -0.0525,0 -0.105,-0.004 -0.15625,-0.0113 -0.0525,-0.006 -0.10375,-0.0175 -0.155,-0.0325 -0.05,-0.0125 -0.1,-0.03 -0.14875,-0.05 -0.0475,-0.02 -0.095,-0.0438 -0.14,-0.0713 -0.0463,-0.0263 -0.09,-0.055 -0.13125,-0.0875 -0.0412,-0.0312 -0.0812,-0.0662 -0.1175,-0.10375 -0.0375,-0.0362 -0.0725,-0.0762 -0.105,-0.1175 -0.0312,-0.0412 -0.0613,-0.085 -0.0862,-0.13125 -0.0275,-0.045 -0.05,-0.0925 -0.0713,-0.14 -0.02,-0.0488 -0.0375,-0.0987 -0.05,-0.14875 -0.015,-0.0512 -0.0263,-0.1025 -0.0337,-0.155 -0.006,-0.0512 -0.01,-0.10375 -0.01,-0.15625 v -0.01 -62.3625 -0.009 c 0,-0.0525 0.004,-0.105 0.0113,-0.1575 0.006,-0.0512 0.0175,-0.10375 0.0325,-0.15375 0.0125,-0.0512 0.03,-0.10125 0.05,-0.14875 0.02,-0.0488 0.0438,-0.0963 0.0713,-0.14125 0.025,-0.045 0.055,-0.0888 0.0875,-0.13 0.0312,-0.0425 0.0663,-0.0813 0.10375,-0.11875 0.0362,-0.0375 0.0762,-0.0725 0.1175,-0.10375 0.0413,-0.0325 0.085,-0.0612 0.13125,-0.0875 0.045,-0.0263 0.0925,-0.05 0.14,-0.0712 0.0488,-0.02 0.0987,-0.0362 0.14875,-0.05 0.0513,-0.015 0.1025,-0.025 0.155,-0.0325 0.0513,-0.008 0.10375,-0.0113 0.15625,-0.01 h 62.381247 c 0.0525,0 0.105,0.002 0.1575,0.01 0.0513,0.007 0.10375,0.0175 0.15375,0.0325 0.0513,0.0125 0.10125,0.03 0.14875,0.05 0.0487,0.0213 0.0962,0.045 0.14125,0.0712 0.045,0.0263 0.0888,0.055 0.13,0.0875 0.0425,0.0312 0.0813,0.0663 0.11875,0.10375 0.0375,0.0375 0.0725,0.0763 0.10375,0.11875 0.0325,0.0412 0.0613,0.085 0.0875,0.13 0.0263,0.045 0.05,0.0925 0.0713,0.14125 0.02,0.0475 0.0362,0.0975 0.05,0.14875 0.015,0.05 0.025,0.1025 0.0325,0.15375 0.008,0.0525 0.0113,0.105 0.01,0.1575 v 62.38125 c 0,0.0525 -0.002,0.105 -0.01,0.15625 -0.007,0.0525 -0.0175,0.10375 -0.0325,0.155 -0.0125,0.05 -0.03,0.1 -0.05,0.14875 -0.02,0.0475 -0.045,0.095 -0.0713,0.14 -0.0262,0.0462 -0.055,0.09 -0.0875,0.13125 -0.0312,0.0412 -0.0663,0.0812 -0.10375,0.1175 -0.0375,0.0375 -0.0762,0.0725 -0.11875,0.105 -0.0412,0.0312 -0.085,0.06 -0.13,0.0862 -0.045,0.0275 -0.0925,0.0513 -0.14125,0.0713 -0.0475,0.02 -0.0975,0.0375 -0.14875,0.05 -0.05,0.015 -0.1025,0.0263 -0.15375,0.0338 -0.0525,0.006 -0.105,0.01 -0.1575,0.01 h -0.009 -62.362497"
         style="fill:#003499;fill-opacity:1;fill-rule:evenodd;stroke:none"
         id="path17845" />
      <path
         d="m -101.86603,173.1498 v 10.79875 h 12.147497 l 0.0712,-0.001 c 0.0238,0 0.0475,0 0.07,-0.001 0.23625,-0.005 0.47125,-0.025 0.70375,-0.0613 0.23375,-0.0362 0.46375,-0.09 0.68875,-0.15875 0.2275,-0.065 0.44875,-0.145 0.665,-0.24125 0.215,-0.0962 0.4225,-0.2075 0.6225,-0.3325 0.2025,-0.12125 0.395,-0.2575 0.57875,-0.405 0.1825,-0.14875 0.35625,-0.31 0.5175,-0.48125 0.1625,-0.17 0.315,-0.35125 0.4525,-0.5425 0.13875,-0.19 0.26375,-0.39 0.375,-0.59875 0.11375,-0.20625 0.21375,-0.42 0.29875,-0.64 0.0838,-0.22 0.1525,-0.44625 0.20625,-0.675 0.0487,-0.195 0.085,-0.39125 0.11,-0.59 0.025,-0.1975 0.0375,-0.3975 0.0387,-0.5975 0.001,-0.0362 0.001,-0.0713 0.001,-0.1075 0,-0.035 -0.001,-0.0712 -0.002,-0.1075 -0.005,-0.235 -0.0263,-0.47 -0.0625,-0.7025 -0.0362,-0.23375 -0.0888,-0.46375 -0.1575,-0.68875 -0.0637,-0.2275 -0.145,-0.45 -0.24125,-0.665 -0.0963,-0.215 -0.20625,-0.42375 -0.33125,-0.62375 -0.1225,-0.20125 -0.25875,-0.39375 -0.40625,-0.5775 -0.14875,-0.1825 -0.30875,-0.35625 -0.48125,-0.5175 -0.17,-0.1625 -0.35125,-0.315 -0.54125,-0.45375 -0.19125,-0.13875 -0.39125,-0.26375 -0.59875,-0.375 -0.2075,-0.11375 -0.42125,-0.2125 -0.64125,-0.2975 -0.22,-0.0838 -0.44625,-0.15375 -0.675,-0.2075 -0.185,-0.0462 -0.3725,-0.0812 -0.5625,-0.10625 -0.18875,-0.025 -0.37875,-0.0387 -0.57,-0.0412 -0.0213,0 -0.0425,-10e-4 -0.0637,-10e-4 h -0.0637 -12.148747"
         style="fill:#003499;fill-opacity:1;fill-rule:evenodd;stroke:none"
         id="path17853" />
      <path
         transform="translate(-132.71098,151.07971)"
         d="m 22.59375,36.648438 v 0.0039 c -3.40809,0.0543 -2.828463,0.76626 -4.632812,5.02539 -3.800381,9.54788 -3.458587,4.00319 -3.373047,10.44336 0.13441,6.10318 -2.11375,4.45665 16.90039,4.71875 19.160788,-0.21217 16.875337,1.411033 17.009766,-4.904297 0.02437,-5.75373 0.305584,-1.134983 -3.335938,-9.958985 -2.908333,-6.88945 -0.353849,-5.017226 -13.013671,-5.279296 -3.555981,0.0591 -6.050032,-0.007 -7.832032,-0.03906 -0.66825,-0.0115 -1.235786,-0.01456 -1.722656,-0.0098 z m -0.726562,2.175781 c 0.15277,-0.003 0.356706,0.0059 0.640624,0.0059 l 18.197266,-0.002 c 0.985139,0.005 0.840272,-0.05978 1.246094,0.900391 l 2.589844,6.103515 -26.103516,0.07617 2.601562,-6.140625 c 0.36421,-0.81812 0.369805,-0.932876 0.828126,-0.941406 z m -2.953126,9.769531 a 2.15625,2.15625 0 0 1 0.002,0 2.15625,2.15625 0 0 1 0.05273,0 A 2.15625,2.15625 0 0 1 21.125,50.75 2.15625,2.15625 0 0 1 18.96875,52.90625 2.15625,2.15625 0 0 1 16.8125,50.75 2.15625,2.15625 0 0 1 18.914062,48.59375 Z m 25.181641,0 a 2.15625,2.15625 0 0 1 2.15625,2.15625 2.15625,2.15625 0 0 1 -2.15625,2.15625 2.15625,2.15625 0 0 1 -2.15625,-2.15625 2.15625,2.15625 0 0 1 2.15625,-2.15625 z m -22.650391,8.939453 -4.86914,0.01172 c 0.0434,6.2365 -0.455792,5.912968 2.705078,5.923828 2.65443,-0.0381 2.149133,0.306373 2.164062,-5.935548 z m 20.197266,0.05469 c 0.0394,6.26263 -0.321408,5.803815 2.53125,5.841797 2.758981,-0.0162 2.313239,0.409493 2.345703,-5.841797 z"
         style="opacity:1;fill:#ffffff;fill-opacity:1;fill-rule:evenodd;stroke:none;stroke-width:0.0361229"
         id="path911" />
      <path
         transform="translate(-132.71098,151.07971)"
         d="m 23.625,6.8085938 -1.574219,3.4121092 21.13086,9.746094 13.955078,20 v 23.683594 h 3.757812 V 23.998047 Z m 24.476562,15.4277342 9.035157,4.166016 v 8.783203 z"
         style="opacity:1;fill:#ffffff;stroke-width:4.84611;stroke-linecap:round;stroke-linejoin:round"
         id="rect878" />
    </g>
  </g>
</svg>
